<?xml version="1.0" encoding="UTF-8" standalone="no"?>
<!-- Created with Inkscape (http://www.inkscape.org/) -->
<svg id="svg3594" xmlns:rdf="http://www.w3.org/1999/02/22-rdf-syntax-ns#" xmlns="http://www.w3.org/2000/svg" height="16" width="16" version="1.1" xmlns:cc="http://creativecommons.org/ns#" xmlns:dc="http://purl.org/dc/elements/1.1/" viewBox="0 0 16 16">
 <metadata id="metadata3599">
  <rdf:RDF>
   <cc:Work rdf:about="">
    <dc:format>image/svg+xml</dc:format>
    <dc:type rdf:resource="http://purl.org/dc/dcmitype/StillImage"/>
    <dc:title/>
   </cc:Work>
  </rdf:RDF>
 </metadata>
 <g id="layer1" transform="translate(0 -1036.4)" fill="#333">
  <circle id="circle236" cy="1044.4" cx="7.9569" r="2.9765"/>
  <path id="path238" d="m7.9391 1040.5 6.9088 0.031c-1.3076-2.6403-3.745-4.1401-6.8909-4.1401-2.5467 0-4.5313 1.0004-5.997 2.8542l2.3338 3.8089c0.13579-1.8288 1.7842-2.5451 3.6454-2.5543zm0.08089 7.7878c-1.5349 0-3.0944-1.0697-3.5884-2.4339l-3.1225-5.9165c-0.8555 1.2737-1.3549 2.8068-1.3549 4.4565 0 4.0282 2.4397 7.1712 6.3132 7.7301l2.6348-4.2523c-0.48277 0.246-0.30319 0.4161-0.88216 0.4161zm7.3672-6.8705c-1.3872-0.031-4.996-0.032-4.996-0.032 0.97351 0.6323 1.4596 1.7609 1.4596 3.0082 0 0.6133-0.25043 1.3796-0.52446 1.883l-0.91345 1.2311-2.9873 4.8694c0.1756 0.021 0.35261 0.021 0.53115 0.021 4.4198 0 8.0027-3.5829 8.0027-8.0028 0-1.052-0.20337-2.0563-0.5723-2.9763h0.000026z"/>
 </g>
</svg>
