<?xml version="1.0" encoding="UTF-8" standalone="no"?>
<!-- Created with Inkscape (http://www.inkscape.org/) -->
<svg id="svg4499" xmlns:rdf="http://www.w3.org/1999/02/22-rdf-syntax-ns#" xmlns="http://www.w3.org/2000/svg" height="16" width="16" version="1.1" xmlns:cc="http://creativecommons.org/ns#" xmlns:dc="http://purl.org/dc/elements/1.1/" viewBox="0 0 16 16">
 <metadata id="metadata4504">
  <rdf:RDF>
   <cc:Work rdf:about="">
    <dc:format>image/svg+xml</dc:format>
    <dc:type rdf:resource="http://purl.org/dc/dcmitype/StillImage"/>
    <dc:title/>
   </cc:Work>
  </rdf:RDF>
 </metadata>
 <g id="layer1" transform="translate(0 -1036.4)" fill="#333">
  <path id="path4471" d="m12.394 1042.3c-0.31896 0-0.57858 0.2438-0.57858 0.5444v1.7968c0 1.9784-1.7116 3.5897-3.8165 3.5897-2.1036 0-3.8154-1.6113-3.8154-3.5897v-1.7968c0-0.3006-0.25972-0.5444-0.57844-0.5444-0.31896 0-0.57844 0.2438-0.57844 0.5444v1.7968c0 2.5785 2.2309 4.678 4.9723 4.678 2.7417 0 4.9728-2.0995 4.9728-4.678v-1.7968c0-0.3006-0.25902-0.5444-0.57774-0.5444"/>
  <path id="path4473" d="m7.9993 1036.4c-4.4109 0-7.9993 3.6-7.9993 8 0 4.4109 3.5884 7.9997 7.9993 7.9997 4.4114 0 8.0007-3.5888 8.0007-7.9997 0-4.4118-3.5893-8.0003-8.0007-8.0003m0 14.899c-3.8041 0-6.8981-3.0954-6.8981-6.8989 0-3.8049 3.094-6.899 6.8981-6.899 3.804 0 6.8995 3.0941 6.8995 6.899 0 3.8035-3.0955 6.8989-6.8995 6.8989"/>
 </g>
</svg>
