<?xml version="1.0" encoding="UTF-8" standalone="no"?>
<!-- Created with Inkscape (http://www.inkscape.org/) -->
<svg id="svg3361" xmlns:rdf="http://www.w3.org/1999/02/22-rdf-syntax-ns#" xmlns="http://www.w3.org/2000/svg" height="16" viewBox="0 0 16 16" width="16" version="1.1" xmlns:cc="http://creativecommons.org/ns#" xmlns:dc="http://purl.org/dc/elements/1.1/">
 <metadata id="metadata3366">
  <rdf:RDF>
   <cc:Work rdf:about="">
    <dc:format>image/svg+xml</dc:format>
    <dc:type rdf:resource="http://purl.org/dc/dcmitype/StillImage"/>
    <dc:title/>
   </cc:Work>
  </rdf:RDF>
 </metadata>
 <g fill="#333">
  <g id="g3105" transform="matrix(.47471 0 0 -.47471 6.0023 1.4)">
   <path id="path3107" d="m0 0v-24.345l4.313-2.213-0.1329 21.151c-0.0061 0.956 1.7589 1.329 2.4429 1.107 0.901-0.249 1.8124-1.0645 1.8085-2.0205l-0.027544-6.6698c3.432-1.656 6.362-1.4177 6.362 2.9613 0 4.489-2.512 6.88-7.178 8.481-1.834 0.618-5.2551 2.187-7.5961 2.62" fill="#333"/>
  </g>
  <g id="g3109" transform="matrix(.47471 0 0 -.47471 9.114 12.1)">
   <path id="path3111" d="m-1.0815-0.047021 9.9405 3.205c1.002 0.359 1.158 0.867 0.343 1.134-0.817 0.268-2.296 0.19-3.301-0.17l-7.0799-2.5515-0.066497 3.6425 0.73898 0.114s2.5524 1.0732 4.9514 1.3382c2.398 0.2649 5.335-0.3632 7.639-1.2372 2.599-0.823 2.892-2.032 2.233-2.865-0.662-0.833-2.28-1.428-2.28-1.428l-13.318-5.035-0.13299 3.5205" fill="#333"/>
  </g>
  <g id="g3113" transform="matrix(.47471 0 0 -.47471 1.2067 12)">
   <path id="path3115" d="m0 0c-2.669 0.751-3.114 2.315-1.9 3.216 1.127 0.833 3.036 1.462 3.036 1.462l7.7859 2.9-0.133-3.198-5.4369-2.129c-1.006-0.362-1.159-0.869-0.344-1.137 0.817-0.268 2.295-0.192 3.3 0.17l2.5474 0.94805-0.016624-3.2111c-0.174-0.032-0.367-0.062-0.544-0.092-2.7281-0.4461-5.4358 0.127-8.2948 1.071" fill="#333"/>
  </g>
 </g>
</svg>
