<?xml version="1.0" encoding="UTF-8" standalone="no"?>
<!-- Created with Inkscape (http://www.inkscape.org/) -->

<svg
   xmlns:dc="http://purl.org/dc/elements/1.1/"
   xmlns:cc="http://creativecommons.org/ns#"
   xmlns:rdf="http://www.w3.org/1999/02/22-rdf-syntax-ns#"
   xmlns:svg="http://www.w3.org/2000/svg"
   xmlns="http://www.w3.org/2000/svg"
   xmlns:sodipodi="http://sodipodi.sourceforge.net/DTD/sodipodi-0.dtd"
   xmlns:inkscape="http://www.inkscape.org/namespaces/inkscape"
   width="1479.9908"
   height="447.55533"
   id="svg2"
   version="1.1"
   inkscape:version="0.48.3.1 r9886"
   sodipodi:docname="moailogo-white.svg">
  <defs
     id="defs4" />
  <sodipodi:namedview
     id="base"
     pagecolor="#ff8dff"
     bordercolor="#666666"
     borderopacity="1.0"
     inkscape:pageopacity="1"
     inkscape:pageshadow="2"
     inkscape:zoom="0.35"
     inkscape:cx="253.89414"
     inkscape:cy="165.55535"
     inkscape:document-units="px"
     inkscape:current-layer="layer1"
     showgrid="false"
     inkscape:window-width="1139"
     inkscape:window-height="745"
     inkscape:window-x="208"
     inkscape:window-y="208"
     inkscape:window-maximized="0"
     fit-margin-top="0"
     fit-margin-left="0"
     fit-margin-right="0"
     fit-margin-bottom="0" />
  <metadata
     id="metadata7">
    <rdf:RDF>
      <cc:Work
         rdf:about="">
        <dc:format>image/svg+xml</dc:format>
        <dc:type
           rdf:resource="http://purl.org/dc/dcmitype/StillImage" />
        <dc:title></dc:title>
      </cc:Work>
    </rdf:RDF>
  </metadata>
  <g
     inkscape:label="Layer 1"
     inkscape:groupmode="layer"
     id="layer1"
     transform="translate(505.70518,-250.36219)">
    <path
       style="fill:#ffffff;fill-opacity:1"
       d="m -302.32462,697.3156 c -124.75254,-9.47038 -216.36697,-120.41249 -201.87125,-244.45954 8.66793,-74.1757 54.5917,-138.75552 121.98158,-171.53528 31.04612,-15.10144 60.97075,-21.95859 95.82745,-21.95859 25.78348,0 44.32554,2.95781 68.67255,10.95458 56.23762,18.47122 101.56575,57.82017 127.87815,111.00989 41.19124,83.26688 25.76001,182.42461 -38.81535,249.41911 -44.95096,46.63493 -109.64049,71.43077 -173.67313,66.56983 z m 60.90017,-62.06343 c 5.4769,-2.74487 9.37446,-6.42842 12.05174,-11.38998 2.07013,-3.83638 2.15816,-5.18627 2.15205,-33 -0.006,-28.91699 -0.0141,-29.0229 -2.72441,-37 -4.49819,-13.2395 -8.93472,-19.62808 -25.15697,-36.22594 -17.25709,-17.65665 -21.30337,-20.27406 -31.34184,-20.27406 -9.55713,0 -13.47309,2.53236 -30.42894,19.67768 -14.62406,14.78747 -19.5354,21.22262 -23.64669,30.98341 -4.71333,11.1901 -5.19478,15.22917 -5.19478,43.58113 0,29.85401 0.12491,30.5638 6.65283,37.80364 7.2324,8.02115 6.47704,7.90732 52.63701,7.93218 39.5248,0.0213 40.92041,-0.0435 45,-2.08806 z M -362.54764,535.17692 c 14.4016,-4.78894 19.8936,-8.65268 37.95629,-26.70309 14.75272,-14.74269 16.81993,-17.21702 18.3738,-21.99241 1.99983,-6.14589 1.60176,-12.91263 -1.10998,-18.86868 -0.97019,-2.13093 -8.65565,-10.71169 -17.79718,-19.87043 -15.65876,-15.68826 -16.37073,-16.2545 -26.58958,-21.14703 -5.775,-2.76492 -12.61177,-5.52347 -15.19282,-6.13011 -7.23542,-1.70058 -58.97427,-1.47783 -63.16203,0.27192 -4.69445,1.96147 -10.40298,7.26297 -12.95406,12.03042 -2.15381,4.02501 -2.19109,4.8008 -2.19109,45.59468 0,46.03552 -0.23009,44.29744 6.86195,51.83532 7.15555,7.60537 9.83863,8.10747 41.63805,7.79183 25.36571,-0.25178 26.82816,-0.37216 34.16665,-2.81242 z m 217.44553,1.7078 c 6.32771,-1.87913 12.55642,-7.19668 15.54991,-13.2752 2.33392,-4.73922 2.33791,-4.81649 2.33791,-45.24733 l 0,-40.5 -2.36285,-4.5 c -3.22155,-6.13537 -5.80459,-8.77416 -11.35391,-11.59899 -4.64208,-2.363 -5.15434,-2.40101 -32.35565,-2.40101 -31.38222,0 -34.50296,0.46821 -48.42759,7.26574 -7.60485,3.71243 -10.20959,5.82799 -24.73363,20.08848 -18.33449,18.0018 -21.27282,22.36884 -21.2566,31.59212 0.0167,9.49107 2.76171,13.60812 21.11451,31.66811 15.3215,15.07704 16.9873,16.40937 25.87572,20.6957 13.70861,6.61081 19.28515,7.51222 47.0685,7.60832 18.0708,0.0625 24.72903,-0.26311 28.54368,-1.39594 z m -129.83925,-79.79017 c 2.61147,-1.28942 10.44058,-8.37798 20.13493,-18.23037 14.76019,-15.00081 16.18376,-16.78198 20.49387,-25.64194 6.74343,-13.86191 7.56146,-19.03014 7.57533,-47.86005 0.007,-13.8504 -0.43787,-26.11906 -1.02267,-28.22474 -1.58302,-5.69997 -6.86184,-11.86113 -12.83686,-14.98252 l -5.34591,-2.79274 -40.13581,0.022 c -38.21363,0.0209 -40.35132,0.11952 -44.63581,2.05895 -6.04311,2.7355 -9.77576,6.40969 -12.61671,12.41909 -2.30022,4.86561 -2.36362,5.71228 -2.35874,31.5 0.006,30.35228 0.64064,34.58587 7.19839,48 3.70344,7.57553 5.8478,10.22297 19.71622,24.34179 8.55846,8.71298 16.8833,16.79161 18.49963,17.95252 6.85453,4.92315 17.09812,5.50462 25.33414,1.43805 z m 317.22707,21.25017 0,-137.01747 24.74353,0.26747 24.74353,0.26747 42.44031,104.76616 c 23.34217,57.62139 42.73367,104.42139 43.09223,104 0.35855,-0.42139 19.51332,-47.67077 42.5662,-104.99862 l 41.9142,-104.23245 24.75,-0.0176 24.75,-0.0175 0,137 0,137 -17.4957,0 -17.4958,0 -0.2542,-113.71038 -0.2543,-113.71038 -45.6864,113.46038 -45.68632,113.46038 -7.34839,0.28819 -7.34839,0.28819 -45.96525,-113.61349 -45.96525,-113.61349 -0.25425,113.5753 -0.25426,113.5753 -17.49574,0 -17.49575,0 0,-137.01747 z m 425.5,135.14443 c -21.2836,-3.90169 -41.769,-12.49308 -57.1804,-23.98102 -46.6889,-34.80274 -64.7943,-99.63873 -44.7092,-160.10542 12.4359,-37.43869 41.2638,-66.71551 78.6906,-79.91612 19.5406,-6.89206 45.9157,-9.72849 67.2257,-7.22958 59.5442,6.98245 104.1137,47.49779 115.9136,105.36984 7.015,34.40476 1.2532,73.80685 -14.9441,102.19623 -12.4521,21.82509 -31.9385,40.29229 -54.3247,51.48346 -7.599,3.79885 -23.8435,9.29716 -34.1715,11.56611 -11.8518,2.6037 -43.7606,2.95188 -56.5,0.6165 z m 54,-30.97735 c 16.812,-4.46194 37.0279,-16.82675 47.1405,-28.8329 19.3327,-22.95266 28.7172,-54.95084 25.4802,-86.87931 -1.8225,-17.97726 -4.8366,-29.05559 -11.5378,-42.40824 -12.8636,-25.63162 -34.5775,-43.26908 -61.6894,-50.10817 -11.7358,-2.96041 -34.1172,-3.70337 -46.5432,-1.54503 -32.78,5.69376 -58.7667,26.46119 -71.8096,57.38713 -11.1403,26.41461 -12.2546,60.91184 -2.8744,88.98909 11.4322,34.21951 37.4388,57.52113 72.3337,64.81017 10.2153,2.13382 39.2605,1.30486 49.5,-1.41274 z m 115.5,32.34067 c 0,-0.30359 24.57419,-61.40061 54.60939,-135.77114 30.0352,-74.37052 54.8333,-135.78164 55.107,-136.46914 0.3763,-0.94524 5.6848,-1.25 21.7733,-1.25 l 21.2758,0 9.0181,22.25 c 9.7037,23.94133 95.6991,237.79743 99.1222,246.5 l 2.065,5.25 -19.7354,-0.004 -19.7354,-0.004 -12,-30.49519 -12,-30.49518 -68.1669,-10e-4 -68.1668,-0.001 -11.9524,30.25 -11.9524,30.25 -19.6308,0.27114 c -10.7969,0.1495 -19.63069,0.0231 -19.63069,-0.28049 z M 826.2857,523.64226 c 0,-2.01777 -57.4886,-146.1753 -58.0371,-145.53289 -0.741,0.86788 -56.9629,144.54764 -56.9629,145.57337 0,0.3737 25.875,0.67945 57.5,0.67945 31.625,0 57.5,-0.32397 57.5,-0.71993 z m 113,-45.28007 0,-137 17.5,0 17.5,0 0,137 0,137 -17.5,0 -17.5,0 z M 107.58807,300.3504 c -2.46648,-0.99329 -5.30236,-5.80048 -5.30236,-8.98821 0,-5.78305 7.13424,-11.89388 14,-11.99169 7.00011,-0.0997 9.00813,-3.00018 4.91252,-7.09579 -1.71106,-1.71106 -3.0184,-2.01598 -7.25,-1.69097 -2.83939,0.21808 -5.82684,0.59495 -6.63878,0.83748 -0.92135,0.27522 -1.5988,-0.3552 -1.80227,-1.67715 -0.27164,-1.7649 0.42362,-2.30688 4.16908,-3.25 5.93128,-1.49352 8.96579,-1.42766 13.06108,0.28346 5.18943,2.16828 5.96798,4.53079 6.53706,19.83661 l 0.51131,13.75194 -2.75,-0.002 c -2.06865,-10e-4 -2.75,-0.49001 -2.75,-1.97181 0,-1.86823 -0.18778,-1.84244 -3.63955,0.5 -3.77087,2.55898 -8.90172,3.1319 -13.05809,1.45807 z m 13.44764,-6.23665 c 1.66289,-1.55217 2.25,-3.22892 2.25,-6.42587 l 0,-4.32569 -4.42327,0 c -7.59562,0 -13.03089,6.52335 -9.32673,11.19384 2.65855,3.3521 7.6402,3.16051 11.5,-0.44228 z m 24.50623,5.66045 c -5.32559,-2.71845 -7.76068,-7.73112 -7.72984,-15.91201 0.0176,-4.65484 0.59878,-8.06241 1.73491,-10.17116 3.87378,-7.19006 12.98967,-10.15526 19.9887,-6.50188 l 3.75,1.95744 0,-9.3922 0,-9.3922 3,0 3,0 0.0136,22.75 c 0.008,12.5125 0.285,23.7625 0.61664,25 0.53089,1.98102 0.2304,2.25 -2.51366,2.25 -2.71555,0 -3.11658,-0.34575 -3.11658,-2.68709 l 0,-2.68709 -2.95325,2.82939 c -3.7228,3.56667 -10.89541,4.45552 -15.79052,1.9568 z m 14.82069,-6.33509 c 2.67401,-2.67401 2.92308,-3.51954 2.92308,-9.92327 0,-6.07202 -0.34327,-7.40815 -2.58889,-10.07692 -5.2914,-6.28847 -15.28631,-2.58933 -16.94886,6.27281 -2.37883,12.68027 8.59499,21.74707 16.61467,13.72738 z m 26.22386,5.84291 c -10.2732,-5.08517 -11.19063,-23.87764 -1.50246,-30.77622 10.22721,-7.28242 23.20168,-0.67456 23.20168,11.81655 l 0,4.03984 -12,0 c -11.77889,0 -11.99993,0.0415 -11.99626,2.25 0.007,4.15579 3.59318,8.56437 7.91319,9.72763 2.20447,0.5936 5.0375,0.86971 6.2956,0.61357 1.25811,-0.25614 3.55849,-0.73593 5.11197,-1.0662 2.49673,-0.53081 2.78684,-0.33977 2.5,1.64626 -0.60051,4.1578 -12.50297,5.2238 -19.52372,1.74857 z m 15.87202,-21.91983 c -0.52423,-4.00552 -4.54817,-7.4 -8.77223,-7.4 -2.85213,0 -4.28451,0.70569 -6.52727,3.21578 -1.58032,1.76867 -2.8733,4.12556 -2.8733,5.23752 0,1.90401 0.53869,2.00501 9.25,1.73423 9.22323,-0.2867 9.24905,-0.29476 8.9228,-2.78753 z m 105.0657,23.3339 c -2.7479,-1.10707 -3.754,-5.2216 -4.2385,-17.3339 -0.4811,-12.02711 -0.5851,-12.51209 -2.75,-12.81955 -3.2951,-0.46799 -3.0731,-4.18045 0.25,-4.18045 2.1741,0 2.5,-0.44111 2.5,-3.38337 0,-2.66335 0.4788,-3.51169 2.25,-3.98634 3.6023,-0.96538 3.75,-0.83266 3.75,3.36971 l 0,4 4.5,0 c 3.8333,0 4.5,0.2963 4.5,2 0,1.7037 -0.6667,2 -4.5,2 l -4.5,0 0,11.06574 c 0,12.54903 0.7856,14.93426 4.9186,14.93426 1.9788,0 3.0031,0.59276 3.356,1.9421 0.2793,1.06815 0.2568,2.19315 -0.05,2.5 -0.6797,0.67966 -8.2336,0.59781 -9.9861,-0.1082 z m -261.22434,-3.5839 c 0.008,-1.7875 0.67921,-12.25 1.49206,-23.25 0.81285,-11 1.48148,-20.3375 1.48585,-20.75 0.004,-0.4125 1.75882,-0.75 3.89879,-0.75 l 3.89086,0 4.97219,14.25 c 2.7347,7.8375 5.51799,16.05 6.18509,18.25 0.6671,2.2 1.41712,4.6342 1.66671,5.40933 0.24959,0.77514 2.63386,-4.84986 5.29838,-12.5 9.23895,-26.52612 8.6602,-25.40933 13.16776,-25.40933 3.08888,0 3.92815,0.37754 3.92815,1.76707 0,2.81708 1.89721,33.11331 2.50381,39.98293 l 0.55189,6.25 -2.91135,0 c -2.84171,0 -2.92546,-0.14951 -3.50091,-6.25 -0.32425,-3.4375 -0.88828,-12.73854 -1.25339,-20.66899 l -0.66383,-14.41899 -5.44617,15.41899 c -2.99539,8.48045 -6.23636,17.66899 -7.20217,20.41899 -1.42795,4.06588 -2.23818,5.05767 -4.33692,5.3087 -2.50954,0.30016 -2.74902,-0.2016 -8.66093,-18.14649 -3.34402,-10.15035 -6.08003,-19.20333 -6.08003,-20.11772 0,-0.91439 -0.3836,-1.42545 -0.85244,-1.13569 -0.46884,0.28976 -1.17444,8.68425 -1.56799,18.65441 -0.39355,9.97017 -0.9581,18.75965 -1.25455,19.53218 -0.29645,0.77254 -1.61585,1.40461 -2.93201,1.40461 -2.03604,0 -2.3909,-0.4848 -2.37885,-3.25 z m 191.50304,2 c -1.2554,-3.7363 -9.5172,-31.64818 -9.5172,-32.15308 0,-0.32831 1.3197,-0.59692 2.9326,-0.59692 1.9215,0 3.118,0.60337 3.4702,1.75 0.2957,0.9625 1.9165,7.12799 3.6018,13.70109 2.9111,11.35366 3.9954,14.49611 3.9954,11.57876 0,-0.71691 1.8194,-7.09191 4.043,-14.16667 3.9011,-12.41167 4.1401,-12.86318 6.8105,-12.86318 2.6919,0 2.8751,0.36845 6.707,13.49199 3.6203,12.39871 5.3975,16.22143 5.4666,11.75801 0.015,-0.9625 1.4852,-6.925 3.2673,-13.25 l 3.2403,-11.5 3.3356,-0.32103 c 1.8345,-0.17657 3.1139,0.0484 2.8431,0.5 -0.2709,0.45156 -2.8199,8.15997 -5.6645,17.12979 l -5.1721,16.30877 -3.0653,-0.30877 c -3.0081,-0.303 -3.1417,-0.55425 -7.1621,-13.46974 l -4.0968,-13.16097 -4.3134,13.41097 c -4.2676,13.26833 -4.3453,13.41098 -7.3077,13.41098 -1.6469,0 -3.1833,-0.5625 -3.4143,-1.25 z m 47.4828,-15.75 0,-17 3,0 3,0 0,17 0,17 -3,0 -3,0 z m 40,-8 0,-25 3,0 3,0 0,10.58889 0,10.5889 2.976,-2.50418 c 7.3392,-6.1755 16.6822,-4.00258 19.9574,4.64149 0.5866,1.5483 1.0666,8.1858 1.0666,14.75 l 0,11.9349 -2.9184,0 -2.9185,0 -0.3315,-12.58894 c -0.326,-12.37592 -0.3791,-12.62974 -3.1374,-15 -3.7147,-3.19215 -6.9553,-3.04253 -10.9284,0.50454 l -3.2658,2.9156 -0.3337,12.0844 -0.3338,12.0844 -2.9162,0 -2.9163,0 z m -39.8,-16.2 c -2.8437,-2.8437 -0.062,-7.52575 3.752,-6.31523 3.3761,1.07153 2.1311,7.51523 -1.452,7.51523 -0.605,0 -1.64,-0.54 -2.3,-1.2 z"
       id="path3014"
       inkscape:connector-curvature="0"
       sodipodi:nodetypes="sssssssssscssssssssssssssssssssssssscsssssssssscsscsscsssssssccccccscscccccccccccccccccccccsssssssssssssssssssssssscssccccccccccssssssccccccccccsssssssssccssccsscsssscssccccccssscsssssssssscscssssssssssscsssssscssscssccccscscssssssscssscssssssssscssscssssscscscscsscssscccccccccccccccscscccsssccccccssss" />
  </g>
</svg>
