<?xml version="1.0" encoding="utf-8"?>
<!-- Generator: Adobe Illustrator 13.0.2, SVG Export Plug-In . SVG Version: 6.00 Build 14948)  -->
<!DOCTYPE svg PUBLIC "-//W3C//DTD SVG 1.1//EN" "http://www.w3.org/Graphics/SVG/1.1/DTD/svg11.dtd">
<svg version="1.1" id="Layer_1" xmlns="http://www.w3.org/2000/svg" xmlns:xlink="http://www.w3.org/1999/xlink" x="0px" y="0px"
	 width="612px" height="792px" viewBox="0 0 612 792" enable-background="new 0 0 612 792" xml:space="preserve">
<g>
	<polygon fill-rule="evenodd" clip-rule="evenodd" fill="#ACE1FA" points="0,0 612,0 612,792 0,792 0,0 	"/>
	<path fill-rule="evenodd" clip-rule="evenodd" fill="#D4EFFC" d="M551.854,433.633c22.86-4.479,31.581,5.185,31.937,23.502
		c-12.726,16.995-33.82,8.567-39.338-1.447c0,0,13.003,26.371-17.018,35.008c-20.336-6.678-23.575-27.823-12.007-36.869
		c-5.318,1.416-16.989,9.574-31.407-9.6c5.126-27.075,20.903-23.837,27.882-22.771c-9.584-8.622-5.352-22.203,1.087-31.748
		c9.445-0.502,25.043,3.443,25.118,16.429c7.133-8.042,24.011-11.112,37.571-2.678C570.237,411.276,577.443,423.869,551.854,433.633
		L551.854,433.633z M612,442.149v23.903c-16.255-2.434-14.393-11.76-19.477-15.85C597.928,444.159,605.598,441.688,612,442.149
		L612,442.149z M612,466.867v25.788c-4.34,1.055-9.294,0.413-14.149-3.227C594.592,477.445,597.926,469.213,612,466.867L612,466.867
		z M543.474,435.892c-0.366,2.397-2.147,4.228-4.363,4.772c1.001,1.229,1.499,2.863,1.24,4.554
		c-0.484,3.176-3.453,5.357-6.627,4.873c-3.176-0.484-5.358-3.454-4.873-6.629c0.039-0.26,0.097-0.514,0.169-0.759
		c-0.48,0.049-0.976,0.04-1.476-0.036c-3.175-0.484-5.357-3.453-4.872-6.629c0.484-3.175,3.453-5.356,6.629-4.871
		c1.207,0.184,2.271,0.728,3.1,1.505c1.032-2.349,3.544-3.813,6.201-3.408C541.776,429.749,543.959,432.718,543.474,435.892
		L543.474,435.892z M578.046,510.985c10.94-15.271,21.402-14.42,31.74-3.867c1.93,17.012-15.111,23.731-23.888,20.904
		c0,0,22.215,8.286,9.372,29.957c-15.628,7.328-29.223-3.293-27.436-14.999c-2.338,3.772-4.676,15.016-23.742,11.735
		c-11.964-18.726-0.914-25.55,3.772-28.784c-10.394,0.24-15.42-10.069-16.92-19.232c5.266-5.519,16.603-11.829,23.828-4.249
		c-0.262-8.664,7.945-19.8,20.569-22.349C576.472,487.699,587.665,491.104,578.046,510.985L578.046,510.985z M574.377,516.946
		c1.11,1.609,1.078,3.668,0.078,5.214c1.268,0.168,2.463,0.852,3.246,1.986c1.472,2.132,0.937,5.055-1.195,6.525
		s-5.054,0.936-6.525-1.196c-0.121-0.175-0.227-0.354-0.32-0.539c-0.255,0.296-0.551,0.563-0.886,0.795
		c-2.132,1.472-5.054,0.937-6.525-1.195c-1.472-2.131-0.936-5.054,1.195-6.525c0.811-0.56,1.736-0.829,2.653-0.83
		c-0.693-1.95-0.03-4.198,1.754-5.43C569.983,514.279,572.905,514.815,574.377,516.946L574.377,516.946z"/>
	<path fill-rule="evenodd" clip-rule="evenodd" fill="#E2F4FD" d="M491.437,738.383c14.571,14.239,25.583,11.354,34.628-1.871
		c-1.156-18.532-20.625-22.485-29.463-17.808c0,0,22.156-13.049,4.344-33.763c-18.074-4.87-30.584,9.042-26.463,21.204
		c-3.21-3.586-7.832-15.149-27.572-8.041c-9.235,22.259,3.855,27.457,9.471,30.024c-11.144,1.709-14.562,13.671-14.432,23.738
		c6.667,4.897,19.967,9.492,26.249,0.031c1.359,9.302,12.229,19.642,26.192,19.978C494.159,763.549,505.469,757.795,491.437,738.383
		L491.437,738.383z M486.392,732.711c0.882-1.928,0.457-4.121-0.902-5.582c1.322-0.419,2.47-1.375,3.091-2.735
		c1.169-2.555,0.044-5.574-2.51-6.742c-2.555-1.168-5.574-0.044-6.742,2.511c-0.096,0.209-0.176,0.422-0.24,0.637
		c-0.328-0.267-0.694-0.498-1.097-0.682c-2.555-1.168-5.573-0.044-6.742,2.512c-1.168,2.554-0.044,5.573,2.512,6.741
		c0.971,0.444,2.01,0.557,2.988,0.386c-0.371,2.213,0.763,4.488,2.901,5.466C482.204,736.39,485.225,735.266,486.392,732.711
		L486.392,732.711z M547.688,694.374c0.678,16.415,8.736,20.811,21.358,18.051c9.569-11.516,0.329-24.602-7.444-26.744
		c0,0,20.22,4.594,21.221-17.413c-7.915-12.853-22.95-11.606-27.257-2.188c0.099-3.88,3.78-13.224-11.735-19.968
		c-17.729,7.956-12.922,18.246-11.046,22.858c-7.485-5.159-16.106-0.03-21.598,5.951c1.205,6.561,6.469,16.612,15.389,14.534
		c-4.346,6.211-3.685,18.291,4.325,26.21C535.369,710.649,545.188,713.526,547.688,694.374L547.688,694.374z M547.864,688.256
		c1.584-0.645,2.547-2.166,2.557-3.775c1.008,0.484,2.21,0.559,3.327,0.104c2.099-0.854,3.108-3.248,2.255-5.346
		c-0.854-2.099-3.247-3.108-5.345-2.255c-0.173,0.07-0.337,0.15-0.493,0.24c-0.045-0.338-0.133-0.676-0.267-1.006
		c-0.854-2.099-3.247-3.108-5.346-2.255c-2.099,0.853-3.108,3.247-2.255,5.346c0.324,0.797,0.872,1.438,1.541,1.879
		c-1.441,1.094-2.034,3.056-1.32,4.812C543.371,688.099,545.766,689.109,547.864,688.256L547.864,688.256z M553.628,744.86
		c-11.628-9.247-10.541-17.478-1.795-25.224c13.514-0.849,18.145,12.878,15.563,19.698c0,0,7.427-17.218,24.033-6.214
		c5.167,12.635-3.761,22.95-12.936,21.074c2.887,1.997,11.674,4.289,8.325,19.219c-15.264,8.706-20.216-0.293-22.584-4.122
		c-0.224,8.219-8.566,11.779-15.863,12.601c-4.149-4.378-8.684-13.583-2.41-18.989c-6.854-0.138-15.322-7.062-16.836-17.135
		C535.172,745.18,538.307,736.474,553.628,744.86L553.628,744.86z M558.19,747.995c1.315-0.813,2.94-0.706,4.121,0.145
		c0.183-0.994,0.771-1.911,1.698-2.484c1.742-1.078,4.028-0.539,5.105,1.203c1.078,1.742,0.539,4.028-1.203,5.106
		c-0.143,0.088-0.289,0.165-0.438,0.231c0.223,0.213,0.422,0.457,0.592,0.731c1.078,1.742,0.539,4.029-1.204,5.106
		c-1.741,1.077-4.028,0.538-5.105-1.204c-0.409-0.662-0.585-1.403-0.551-2.127c-1.567,0.47-3.317-0.144-4.219-1.603
		C555.909,751.359,556.448,749.072,558.19,747.995L558.19,747.995z"/>
	<path fill-rule="evenodd" clip-rule="evenodd" fill="#E2F4FD" d="M460.182,180.754c0,0,4.316,7.854-4.304,13.641
		c6.638,10.932-0.578,15.168-2.925,19.965c2.309,3.476,1.732,9.086,0.933,11.678c0,0,12.514,8.782,2.31,16.172
		c0,0,7.081,2.195,7.473-3.581c0,0,8.498,1.623,6.085-4.866c10.973-1.625,6.314-15.287-6.896-13.308
		c3.426-5.493,27.244-0.802,21.06-13.881c0,0,5.703-4.131,0.071-8.746c0,0,0.961-4.343-3.365-7.173c0,0-1.841,8.199-10.45,8.944
		c0,0,3.019-3.756-0.044-6.375c0.38-0.611,3.083-4.398-1.799-6.81C468.998,182.248,464.031,179.356,460.182,180.754L460.182,180.754
		z M451.664,211.931c9.891-11.459,1.521-17.071-3.196-15.908c0,0-2.305-7.999-7.112-2.498c0,0-3.438-4.214-6.582,2.033
		c0,0-1.911,6.469-6.68,2.99l2.771,7.912c-1.659-0.182-3.637,0.918-5.119,1.252c-0.08,1.469-2.022,6.059-3.552,7.802l4.583,0.766
		C431.266,207.459,444.191,199.382,451.664,211.931L451.664,211.931z M412.961,205.857c0,0,5.306-4.367,11.408-0.186
		c1.11-0.418,2.638-1.115,3.848-0.8c0,0-4.128-5.686-4.475-11.683c0,0,3.689,3.463,6.77,2.927c4.425-0.77,4.3-11.286,10.945-5.474
		c0,0,5.676-6.154,8.587,3.037c0,0,12.381-3.549,7.366-14.516c0,0,5.571-8.691,0.121-9.485c0,0,0.883-7.483-5.274-4.863
		c0,0-4.206-3.555-6.69,1.963c0,0-3.554-4.087-6.035,1.431c0,0-6.397-3.295-5.554,4.963c0,0-6.673-1.758-7.847,2.69
		c0,0-5.586-4.175-4.934,3.586c0,0-9.796,8.86-1.966,9.896l-0.432,1.878c0,0-10.261,1.603-5.571,8.691
		C406.862,200.418,407.838,208.209,412.961,205.857L412.961,205.857z M452.258,228.577c0,0,9.987,6.262,0.675,12.228
		c0,0,0.772,10.061-5.102,7.415c0,0-3.676,7.18-10.23,1.138c0,0-6.149,2.208-6.241-2.812c-0.093-5.018-0.949-8.748-1.503-10.393
		c-0.952,1.87-4.385,14.645-10.153,2.936c0,0-9.789,3.102-7.309-2.406c0,0-3.486-5.985,1.104-8.336c0,0-4.478-3.784-2.293-7.656
		c0,0-6.443-3.341,0.938-7.968c2.577-9.436,12.18-6.458,10.688-3.137c-1.324,2.937-3.31,7.344-3.31,7.344l5.271,1.048
		c0.583,4.373-1.295,7.609-7.728,6.575c0,0,1.088,7.343,9.446,7.04c0,0,3.6,4.589,8.7,1.551
		C441.45,238.063,448.872,235.511,452.258,228.577L452.258,228.577z M437.275,232.402c1.104-1.171,1.449-2.654,0.038-4.11
		c-2.04,3.324-5.452,4.823-8.231,3.245c1.521-1.51,2.447-3.178,2.771-5.003c-2.107,1.343-7.762,5.95-11.909-0.154
		c0,0,7.708,1.387,6.735-6.863c2.704-2.707,11.944-18.552,22.22-7.706C455.681,220.761,449.634,237.825,437.275,232.402
		L437.275,232.402z M523.451,181.626c0,0-0.702,8.937,9.537,10.662c-1.55,12.694,6.771,13.586,10.884,16.991
		c-0.675,4.116,2.16,8.994,3.955,11.026c0,0-7.788,13.153,4.554,15.69c0,0-5.55,4.912-8.284-0.189c0,0-7.076,4.977-7.549-1.93
		c-10.672,3.036-12.049-11.332,0.807-14.965c-5.383-3.597-25.162,10.484-24.906-3.984c0,0-6.898-1.417-3.666-7.941
		c0,0-2.664-3.56,0.114-7.921c0,0,5.053,6.715,13.208,3.848c0,0-4.3-2.179-2.587-5.828c-0.598-0.397-4.618-2.737-1.165-6.944
		C516.033,186.617,519.366,181.94,523.451,181.626L523.451,181.626z M544.047,206.538c-13.731-6.374-8.414-14.933-3.634-15.815
		c0,0-1.191-8.238,5.453-5.206c0,0,1.396-5.254,6.834-0.854c0,0,4.406,5.108,7.315-0.024l0.734,8.35
		c1.438-0.848,3.693-0.66,5.18-0.968c0.678,1.308,4.34,4.691,6.449,5.65l-3.86,2.583
		C560.798,194.064,545.691,192.022,544.047,206.538L544.047,206.538z M576.819,185.068c0,0-6.633-1.795-10.474,4.529
		c-1.184,0.074-2.862,0.067-3.837,0.853c0,0,1.423-6.879-0.729-12.489c0,0-1.939,4.677-4.965,5.455
		c-4.348,1.119-8.562-8.516-12.229-0.483c0,0-7.704-3.274-6.574,6.301c0,0-12.745,1.861-12.688-10.199c0,0-8.655-5.625-4.016-8.592
		c0,0-3.884-6.457,2.806-6.603c0,0,2.37-4.971,6.906-0.964c0,0,1.553-5.187,6.088-1.181c0,0,4.475-5.636,7.105,2.239
		c0,0,5.356-4.352,8.257-0.78c0,0,3.373-6.104,5.972,1.237c0,0,12.575,4.042,5.868,8.211l1.166,1.535c0,0,10.01-2.764,8.654,5.625
		C580.138,177.602,582.456,185.105,576.819,185.068L576.819,185.068z M550.357,221.949c0,0-6.524,9.819,4.416,11.424
		c0,0,3.441,9.486,7.706,4.657c0,0,6.304,5.029,9.789-3.175c0,0,6.514-0.519,4.53-5.131c-1.981-4.612-2.737-8.365-2.908-10.089
		c1.637,1.313,10.027,11.541,10.463-1.504c0,0,10.197-1.204,5.669-5.203c0,0,0.715-6.892-4.436-7.142c0,0,2.524-5.292-1.062-7.924
		c0,0,4.496-5.698-4.136-6.875c-6.231-7.539-13.759-0.87-11.029,1.54c2.413,2.133,6.035,5.332,6.035,5.332l-4.371,3.123
		c1.269,4.227,4.312,6.403,9.749,2.813c0,0,2.031,7.14-5.711,10.303c0,0-1.393,5.663-7.289,4.995
		C564.111,226.148,556.297,226.875,550.357,221.949L550.357,221.949z M565.586,219.269c-1.491-0.612-2.412-1.82-1.728-3.731
		c3.229,2.191,6.956,2.151,8.839-0.432c-2.01-0.747-3.54-1.885-4.586-3.416c2.475,0.355,9.525,2.229,10.791-5.043
		c0,0-6.456,4.437-8.965-3.483c-3.577-1.354-18.521-11.991-23.422,2.125C544.021,216.236,556.558,229.299,565.586,219.269
		L565.586,219.269z M469.39,157.812c0,0-9.786-10.952,1.848-23.367c-14.621-15.013-4.658-24.437-2.677-32.96
		c-4.968-4.698-6.115-13.871-5.793-18.304c0,0-23.216-9.416-9.643-24.977c0,0-12.115-0.896-10.613,8.471
		c0,0-14.166,0.537-7.924,10.012c-16.927,6.636-4.456,26.737,15.911,18.712c-3.451,10.031-43.215,11.312-28.519,29.921
		c0,0-7.586,8.696,3.104,13.995c0,0,0.062,7.288,8.016,10.213c0,0-0.079-13.768,13.397-18.131c0,0-3.445,7.111,2.413,10.165
		c-0.382,1.115-3.302,8.157,5.38,10.213C454.762,158.672,463.755,161.462,469.39,157.812L469.39,157.812z M472.221,106.566
		c-11.574,21.94,3.856,27.82,10.965,24.224c0,0,6.625,11.924,12.279,1.373c0,0,7.035,5.464,9.759-5.671
		c0,0,0.672-11.035,9.562-7.234l-7.331-11.613c2.714-0.322,5.468-2.807,7.712-3.883c-0.412-2.377,1-10.423,2.798-13.769
		l-7.601,0.465C506.446,106.195,488.777,123.854,472.221,106.566L472.221,106.566z M535.554,100.34c0,0-6.866,8.924-18.152,4.495
		c-1.615,1.077-3.802,2.753-5.851,2.696c0,0,8.687,7.559,11.45,17.009c0,0-7.169-4.174-11.89-2.183
		c-6.779,2.858-2.708,19.604-15.463,12.771c0,0-6.795,11.918-14.831-1.688c0,0-18.463,10.229-6.417,25.896
		c0,0-5.697,15.929,3.297,15.191c0,0,1.346,12.273,10.215,5.825c0,0,8.025,4.124,9.962-5.601c0,0,7.177,5.219,9.11-4.506
		c0,0,11.43,2.906,7.04-9.975c0,0,11.305,0.354,11.54-7.181c0,0,10.458,4.608,6.556-7.542c0,0,12.381-17.758-0.501-16.529
		l-0.004-3.161c0,0,15.797-6.334,5.699-15.929C547.295,106.779,542.864,94.694,535.554,100.34L535.554,100.34z M465.146,80.204
		c0,0-18.254-6.323-5.583-19.277c0,0-4.933-15.784,5.422-13.725c0,0,3.224-12.814,15.914-5.578c0,0,9.009-5.79,11.003,2.188
		c1.994,7.982,4.736,13.625,6.229,16.043c0.826-3.334,1.61-25,15.133-8.427c0,0,14.487-8.555,12.557,1.155
		c0,0,7.772,8.274,1.306,13.715c0,0,8.547,4.392,6.481,11.384c0,0,11.522,2.966,1.437,13.069
		c-0.639,16.019-17.074,14.798-15.91,8.945c1.031-5.176,2.577-12.943,2.577-12.943l-8.802,0.266
		c-2.543-6.766-0.734-12.626,9.918-13.344c0,0-4.44-11.326-17.674-7.764c0,0-7.438-6.001-14.465,0.726
		C478.912,61.073,467.999,67.883,465.146,80.204L465.146,80.204z M487.661,68.576c-1.335,2.281-1.334,4.771,1.453,6.581
		c2.035-6.062,6.933-9.711,11.951-8.211c-1.875,2.967-2.74,5.971-2.585,9.007c2.874-2.921,10.204-12.366,19.076-4.141
		c0,0-12.821,0.623-8.229,13.441c-3.32,5.317-12.243,34.023-32.646,20.484C462.557,93.944,465.934,64.466,487.661,68.576
		L487.661,68.576z"/>
	<path fill-rule="evenodd" clip-rule="evenodd" fill="#C7EAFB" d="M308.638,365.065c0,0-11.592,13.129,2.366,27.853
		c-17.334,18.003-5.389,29.171-2.968,39.322c-5.89,5.638-7.193,16.584-6.778,21.867c0,0-27.62,11.389-11.326,29.849
		c0,0-14.442,1.154-12.717-10.028c0,0-16.899-0.542-9.519-11.883c-20.229-7.795-5.497-31.854,18.844-22.425
		c-4.181-11.939-51.607-13.191-34.214-35.482c0,0-9.106-10.319,3.607-16.708c0,0,0.026-8.693,9.488-12.237
		c0,0,0.001,16.422,16.099,21.527c0,0-4.15-8.454,2.812-12.137c-0.462-1.327-3.997-9.707,6.345-12.215
		C291.188,364.142,301.895,360.752,308.638,365.065L308.638,365.065z M311.533,428.161c-13.954-26.085,4.405-33.202,12.904-28.964
		c0,0,7.819-14.267,14.631-1.719c0,0,8.36-6.564,11.681,6.694c0,0,0.875,13.153,11.456,8.561l-8.668,13.899
		c3.24,0.364,6.541,3.309,9.225,4.58c-0.478,2.835,1.263,12.418,3.433,16.396l-9.066-0.502
		C352.344,428.364,331.155,407.432,311.533,428.161L311.533,428.161z M387.932,433.146c0,0-8.247-10.599-21.673-5.237
		c-1.938-1.272-4.552-3.256-6.994-3.174c0,0,10.305-9.074,13.533-20.361c0,0-8.519,5.025-14.162,2.685
		c-8.106-3.361-3.366-23.361-18.526-15.124c0,0-8.189-14.164-17.674,2.115c0,0-22.089-12.067-7.831-30.832
		c0,0-6.904-18.958,3.829-18.139c0,0,1.52-14.646,12.139-7.015c0,0,9.542-4.977,11.918,6.608c0,0,8.524-6.271,10.894,5.311
		c0,0,13.61-3.544,8.466,11.842c0,0,13.477-0.497,13.811,8.488c0,0,12.438-5.569,7.871,8.95c0,0,14.887,21.089-0.487,19.712
		l0.019,3.767c0,0,18.881,7.449,6.904,18.956C401.89,425.387,396.694,439.824,387.932,433.146L387.932,433.146z M303.276,459.646
		c0,0-21.725,7.666-6.522,23.026c0,0-5.778,18.854,6.555,16.323c0,0,3.935,15.265,19.02,6.55c0,0,10.781,6.842,13.104-2.691
		c2.325-9.527,5.555-16.273,7.314-19.172c1.016,3.973,2.093,29.801,18.105,9.944c0,0,17.337,10.104,14.964-1.46
		c0,0,9.21-9.92,1.466-16.367c0,0,10.157-5.298,7.649-13.617c0,0,13.716-3.612,1.623-15.596
		c-0.875-19.095-20.46-17.527-19.038-10.557c1.269,6.167,3.166,15.419,3.166,15.419l-10.499-0.258
		c-2.984,8.088-0.788,15.063,11.92,15.844c0,0-5.217,13.535-21.024,9.38c0,0-8.828,7.209-17.254-0.766
		C319.823,482.362,306.764,474.317,303.276,459.646L303.276,459.646z M330.208,473.354c-1.606-2.706-1.628-5.681,1.686-7.854
		c2.466,7.212,8.331,11.529,14.307,9.71c-2.255-3.531-3.307-7.107-3.143-10.726c3.443,3.463,12.253,14.668,22.774,4.805
		c0,0-15.292-0.655-9.906-15.971c-3.997-6.319-14.834-40.488-39.069-24.203C300.094,443.278,304.32,478.404,330.208,473.354
		L330.208,473.354z M187.621,339.646c0,0-2.487,17.34-22.748,16.248c-2.479,24.868-18.728,23.007-28.028,27.74
		c-0.475,8.136-7.969,16.225-12.262,19.332c0,0,9.221,28.415-15.398,27.97c0,0,8.48,11.742,15.876,3.186
		c0,0,11.363,12.52,15.221-0.45c19.05,10.358,27.826-16.448,4.869-28.879c11.803-4.555,43.49,30.763,49.197,3.064
		c0,0,13.759,0.25,10.389-13.574c0,0,6.603-5.648,3.173-15.153c0,0-12.507,10.641-26.833,1.684c0,0,9.133-2.313,7.428-10.006
		c1.309-0.502,9.978-3.242,5.194-12.743C199.629,352.337,195.276,341.994,187.621,339.646L187.621,339.646z M137.685,378.332
		c28.912-6.276,22.438-24.873,13.7-28.601c0,0,5.798-15.199-8.171-12.261c0,0-0.413-10.615-12.665-4.554
		c0,0-10.589,7.854-13.938-3.177l-4.975,15.607c-2.379-2.232-6.761-2.839-9.463-4.064c-1.852,2.203-10.282,7.087-14.715,8.013
		l6.256,6.579C111.084,347.375,140.764,349.949,137.685,378.332L137.685,378.332z M84.386,323.365c0,0,13.415-0.583,18.033,13.119
		c2.224,0.648,5.429,1.354,6.951,3.268c0,0,0.231-13.726,6.737-23.501c0,0,1.696,9.749,7.131,12.527
		c7.812,3.995,19.973-12.572,23.526,4.314c0,0,16.093-2.945,9.839,14.83c0,0,23.505,9.005,28.561-14.017
		c0,0,18.913-7.021,11.335-14.665c0,0,10.17-10.649-2.524-13.791c0,0-2.391-10.493-12.755-4.794c0,0-0.741-10.555-11.104-4.857
		c0,0-6.119-12.664-14.506,1.227c0,0-8.351-10.589-15.411-5.021c0,0-3.818-13.083-11.917-0.198c0,0-25.709,2.326-14.705,13.145
		l-2.88,2.427c0,0-17.903-9.555-18.91,7.022C81.253,307.707,73.622,321.022,84.386,323.365L84.386,323.365z M119.056,405.018
		c0,0,8.237,21.515-13.31,19.893c0,0-10.623,16.614-16.688,5.58c0,0-14.171,6.892-17.307-10.243c0,0-12.197-3.778-6.442-11.723
		c5.753-7.946,8.801-14.779,9.864-17.994c-3.683,1.804-24.059,17.713-19.308-7.347c0,0-18.928-6.661-8.582-12.348
		c0,0,1.586-13.446,11.516-11.718c0,0-2.549-11.173,5.415-14.655c0,0-6.133-12.791,10.828-11.339
		c15.109-11.708,26.609,4.23,20.372,7.658c-5.514,3.034-13.79,7.583-13.79,7.583l6.998,7.825
		c-4.229,7.517-10.962,10.364-19.794,1.19c0,0-6.928,12.745,6.481,22.091c0,0,0.23,11.395,11.761,12.644
		C91.033,407.137,105.622,411.866,119.056,405.018L119.056,405.018z M91.166,393.388c3.105-0.53,5.378-2.439,4.891-6.376
		c-7.094,2.797-14.186,1.125-16.668-4.607c4.151-0.563,7.556-2.08,10.208-4.551c-4.873-0.381-19.118,0.174-18.419-14.236
		c0,0,10.411,11.225,18.585-2.803c7.401-1.05,40.449-14.935,43.751,14.079C133.585,396.837,104.087,416.377,91.166,393.388
		L91.166,393.388z M300.9,317.38c0,0,23.349-16.695,6.48-45.348c34.305-22.368,19.342-44.602,19.212-61.703
		c11.484-6.831,17.599-23.831,18.881-32.421c0,0,48.299-8.016,29.077-43.498c0,0,23.485,3.478,16.612,20.695
		c0,0,26.783,7.088,10.824,22.483c29.436,19.9-2.949,52.891-38.351,28.869c2.288,20.605,77.562,40.069,41.572,69.262
		c0,0,10.741,19.829-11.911,25.356c0,0-3.238,13.871-19.655,16.043c0,0,6.044-26.22-17.784-40.309c0,0,3.523,15.034-8.954,18.35
		c0.252,2.29,2.804,16.968-14.629,17.172C328.425,325.28,310.083,326.751,300.9,317.38L300.9,317.38z M317.44,218.451
		c12.676,46.79-19.264,51.397-31.279,41.497c0,0-17.738,19.901-24.001-2.639c0,0-15.755,7.407-16.181-14.99
		c0,0,3.442-21.33-15.135-17.889l18.951-19.005c-5.038-1.775-9.225-7.692-13.043-10.706c1.803-4.356,2.554-20.304,0.557-27.452
		l14.294,4.139C252.337,203.093,278.467,244.329,317.44,218.451L317.44,218.451z M199.34,179.468c0,0,9.272,19.956,32.689,16.341
		c2.619,2.744,6.069,6.877,10.002,7.644c0,0-19.8,10.696-29.114,27.532c0,0,15.457-4.89,23.605,0.928
		c11.703,8.351-3.229,38.541,24.018,30.969c0,0,7.855,25.633,29.002,3.129c0,0,30.827,27.408,1.152,52.125
		c0,0,4.045,32.812-12.79,27.555c0,0-7.821,22.826-21.971,6.734c0,0-17.069,4.428-16.598-14.945c0,0-15.919,6.879-15.445-12.492
		c0,0-23.037,0.649-9.153-22.033c0,0-21.707-4.165-18.931-18.632c0,0-21.914,4.31-9.272-17.188c0,0-16.005-39.161,8.031-31.304
		l1.36-6.025c0,0-27.41-18.841-4.048-32.812C174.195,186.72,187.816,165.574,199.34,179.468L199.34,179.468z M342.214,171.212
		c0,0,37.514-4.244,18.898-34.369c0,0,16.161-27.985-4.464-28.492c0,0-0.66-25.814-27.956-17.448c0,0-14.7-14.897-21.918-0.54
		c-7.219,14.367-14.862,23.953-18.742,27.926c-0.15-6.711,7.63-48.361-25.25-22.546c0,0-23.961-22.515-24.438-3.174
		c0,0-18.363,12.45-8.36,25.593c0,0-18.176,4.715-17.233,18.933c0,0-23.24,0.724-8.333,24.305
		c-5.638,30.818,26.223,35.525,26.509,23.867c0.25-10.311,0.625-25.783,0.625-25.783l16.67,4.274
		c7.746-11.813,6.805-23.761-13.2-29.69c0,0,13.316-19.695,37.025-7.237c0,0,16.752-8.259,27.271,7.576
		C324.154,128.84,342.047,146.497,342.214,171.212L342.214,171.212z M304.259,139.402c1.569,4.92,0.501,9.669-5.588,11.926
		c-1.286-12.43-9.062-21.484-19.274-20.773c2.306,6.461,2.67,12.558,1.074,18.283c-4.23-6.802-14.163-27.948-34.601-16.061
		c0,0,24.181,6.676,9.938,29.152c4.054,11.561,8.782,70.117,53.48,53.034C341.269,198.52,347.449,140.865,304.259,139.402
		L304.259,139.402z"/>
	<path fill-rule="evenodd" clip-rule="evenodd" fill="#8ED8F8" d="M346.956,60.526c1.376,0.217,2.669-0.718,2.889-2.093
		c0.219-1.376-0.72-2.669-2.094-2.887c-1.375-0.221-2.668,0.716-2.888,2.092C344.646,59.012,345.583,60.305,346.956,60.526
		L346.956,60.526z M347.537,61.501c2.373,0.379,4.606-1.239,4.984-3.614c0.378-2.375-1.241-4.606-3.611-4.985
		c-2.376-0.377-4.608,1.24-4.987,3.614C343.544,58.89,345.16,61.122,347.537,61.501L347.537,61.501z M328.739,57.113
		c3.988,5.093,10.464,10.519,20.543,5.842c-11.048-0.821-7.161-15.929,4.231-9.539C347.286,42.236,334.889,48.339,328.739,57.113
		L328.739,57.113z M421.85,46.687c1.312,1.634,1.049,4.023-0.585,5.334c-1.634,1.313-4.024,1.051-5.336-0.584
		c-1.311-1.634-1.049-4.023,0.585-5.336C418.146,44.788,420.537,45.051,421.85,46.687L421.85,46.687z M423.559,46.715
		c2.265,2.822,1.813,6.95-1.009,9.213c-2.822,2.265-6.948,1.813-9.214-1.008c-2.265-2.823-1.813-6.948,1.01-9.213
		C417.167,43.443,421.293,43.893,423.559,46.715L423.559,46.715z M403.81,25.408c9.634,1.417,21.553,5.84,22.951,22.509
		c-9.311-13.836-26.168,2.507-9.319,12.64C398.183,60.748,396.919,39.988,403.81,25.408L403.81,25.408z M380.132,96.669
		c-2.062-0.376-3.428-2.356-3.052-4.416c0.375-2.063,2.354-3.43,4.418-3.053c2.06,0.379,3.427,2.356,3.05,4.417
		C384.171,95.678,382.193,97.047,380.132,96.669L380.132,96.669z M378.819,97.764c-3.559-0.649-5.917-4.065-5.267-7.624
		c0.651-3.56,4.065-5.919,7.625-5.269c3.561,0.649,5.92,4.065,5.269,7.625C385.796,96.056,382.38,98.415,378.819,97.764
		L378.819,97.764z M407.698,100.943c-8.213,5.236-20.117,9.696-32.086-1.99c16.095,4.364,18.141-19.026-1.23-15.655
		C388.817,70.545,403.362,85.414,407.698,100.943L407.698,100.943z M440.576,150.745c-0.546-8.64-1.608-17.239-3.173-25.752
		c-1.998-8.131-4.465-16.14-7.416-23.977c-3.281-7.379-6.984-14.566-11.122-21.502c-4.362-6.425-9.087-12.598-14.187-18.453
		c-15.075-15.337-32.974-27.068-53.511-33.667c-28.341-7.224-57.622-4.438-81.52,13.504c-17.376,15.026-31.498,43.065-16.404,64.298
		c5.638,7.935,14.197,11.854,25.222,12.435c-8.683-1.852-15.912-4.528-20.763-12.752c-6.178-10.474-4.93-25.103,1.447-36.292
		c17.536-30.769,56.772-35.81,88.292-28.042c18.39,5.745,34.832,15.724,49.183,28.484c3.741,3.726,7.224,7.536,10.496,11.47
		c-12.146-10.679-28.238-16.265-44.432-15.54c-14.652,1.557-27.995,8.006-36.135,20.668c-4.197,7.643-5.994,16.405-3.054,24.476
		c3.242,8.905,12.054,13.823,20.673,10.22c-12.099,1.764-19.653-7.776-17.723-19.778c2.908-17.603,20.535-26.864,36.782-28.725
		C410.012,69.364,431.67,112.269,440.576,150.745L440.576,150.745z"/>
	<path fill-rule="evenodd" clip-rule="evenodd" fill="#8ED8F8" d="M133.353,113.224c1.083-2.055,0.303-4.598-1.75-5.684
		c-2.054-1.085-4.599-0.301-5.682,1.751c-1.089,2.051-0.305,4.596,1.748,5.682C129.72,116.057,132.265,115.273,133.353,113.224
		L133.353,113.224z M111.075,0h32.448c3.056,8.296,14.198,13.478,27.797,2.005C161.26,32.5,127.817,23.326,108.516,4.609
		C109.299,3.084,110.15,1.539,111.075,0L111.075,0z M146.684,0h19.609c-1.202,2.446-3.314,4.448-6.079,5.451
		C154.919,7.369,149.107,4.944,146.684,0L146.684,0z M135.205,112.832c1.875-3.541,0.522-7.936-3.022-9.81
		c-3.543-1.874-7.937-0.52-9.811,3.018c-1.873,3.546-0.522,7.939,3.021,9.815C128.936,117.729,133.327,116.378,135.205,112.832
		L135.205,112.832z M118.167,140.137c10.183-3.554,22.229-10.854,20.271-29.277c-7.24,16.994-28.992,2.731-12.778-11.809
		C104.667,102.866,107.628,125.712,118.167,140.137L118.167,140.137z M208.239,80.311c-1.705,3.053-5.562,4.143-8.611,2.442
		c-3.054-1.703-4.146-5.562-2.442-8.615c1.707-3.048,5.562-4.141,8.611-2.438C208.849,73.403,209.944,77.261,208.239,80.311
		L208.239,80.311z M209.261,82.971c-2.939,5.267-9.599,7.152-14.864,4.211c-5.268-2.942-7.155-9.6-4.213-14.868
		c2.941-5.269,9.601-7.155,14.869-4.212C210.318,71.043,212.204,77.703,209.261,82.971L209.261,82.971z M229.814,39.106
		c3.845,15.777,4.479,36.964-20.401,49.566c15.545-23.053-20.268-38.863-25.368-6.479C171.684,52.551,202.973,37.596,229.814,39.106
		L229.814,39.106z M326.096,14.01c-13.929-3.786-28.071-6.734-42.347-8.845c-13.907-1.222-27.874-1.637-41.83-1.196
		c-13.411,1.208-26.745,3.188-39.917,5.986c-12.487,3.429-24.77,7.563-36.753,12.463c-32.314,15.539-60.456,37.476-81.917,66.336
		c-26.646,40.842-38.002,88.551-22.542,135.917c14.366,35.506,51.02,72.875,92.648,60.477c15.555-4.629,26.345-16.029,33.192-33.115
		c-7.594,12.706-15.706,22.674-31.294,25.906c-19.854,4.116-42.268-5.723-56.496-21.807
		c-39.125-44.226-25.974-108.859,3.242-154.423c18.959-25.93,43.553-46.511,71.41-62.295c7.892-3.9,15.778-7.345,23.748-10.394
		c-23.388,13.424-40.859,35.815-48.427,61.761c-5.425,23.961-2.425,48.487,13.179,68.145c9.805,10.734,22.665,18.284,36.984,17.986
		c15.798-0.327,28.299-11.588,27.25-27.129c-3.726,20.043-22.845,26.833-40.747,17.33c-26.215-14.058-31.348-46.859-25.544-73.501
		C181.221,18.467,260.583,7.368,326.096,14.01L326.096,14.01z"/>
	<path fill-rule="evenodd" clip-rule="evenodd" fill="#00AEEF" d="M387.726,67.436c1.218-0.251,2.005-1.438,1.756-2.657
		c-0.25-1.218-1.439-2.004-2.656-1.754c-1.218,0.248-2.004,1.437-1.755,2.655C385.319,66.896,386.509,67.682,387.726,67.436
		L387.726,67.436z M388.518,68.068c2.102-0.428,3.459-2.482,3.029-4.585c-0.43-2.103-2.483-3.459-4.584-3.031
		c-2.104,0.431-3.46,2.483-3.031,4.586C384.361,67.14,386.413,68.497,388.518,68.068L388.518,68.068z M371.433,70.306
		c4.933,3.003,12.047,5.502,19-1.572c-9.489,2.785-10.987-11.06,0.539-9.299C382.256,52.05,373.814,61.043,371.433,70.306
		L371.433,70.306z M445.954,32.347c1.61,0.953,2.141,3.032,1.188,4.64c-0.953,1.611-3.033,2.142-4.643,1.188
		c-1.607-0.953-2.14-3.032-1.188-4.642C442.264,31.924,444.345,31.392,445.954,32.347L445.954,32.347z M447.392,31.833
		c2.778,1.646,3.698,5.237,2.052,8.014c-1.647,2.779-5.236,3.698-8.016,2.052c-2.779-1.648-3.698-5.236-2.051-8.015
		C441.023,31.107,444.612,30.187,447.392,31.833L447.392,31.833z M424.197,20.234c8.495-1.842,19.843-1.891,26.248,11.598
		c-12.126-8.637-21.077,10.315-3.816,13.489C430.597,51.529,423.021,34.58,424.197,20.234L424.197,20.234z M426.799,87.213
		c-1.842,0.333-3.604-0.892-3.938-2.73c-0.334-1.842,0.891-3.606,2.732-3.939c1.841-0.331,3.604,0.892,3.936,2.732
		C429.862,85.116,428.64,86.881,426.799,87.213L426.799,87.213z M426.046,88.54c-3.177,0.575-6.221-1.538-6.795-4.715
		c-0.574-3.179,1.537-6.223,4.716-6.798s6.223,1.538,6.798,4.717C431.338,84.921,429.226,87.966,426.046,88.54L426.046,88.54z
		 M451.175,82.125c-5.218,6.955-13.764,14.42-27.435,8.417c14.818-1.41,9.181-21.595-5.945-12.694
		C425.85,62.657,442.673,70.512,451.175,82.125L451.175,82.125z M494.289,113.408c-3.17-7.047-6.759-13.898-10.741-20.52
		c-4.223-6.167-8.8-12.083-13.728-17.705c-5.06-5.135-10.412-9.977-16.047-14.472c-5.664-3.999-11.55-7.672-17.65-10.961
		c-17.413-8.08-36.053-12.259-55.285-11.32c-25.949,2.866-49.54,14.392-63.871,36.891c-9.799,18.013-12.79,45.876,6.491,58.876
		c7.203,4.858,15.586,5.445,24.98,2.467c-7.837,1.18-14.718,1.214-21.354-4.133c-8.453-6.811-12.005-19.425-10.191-30.778
		c4.986-31.217,36.187-47.754,64.962-51.165c17.17-0.976,34.043,2.197,50.042,8.35c4.296,1.938,8.402,4.027,12.373,6.287
		c-13.504-5.108-28.704-4.72-42.007,0.973c-11.753,5.903-20.875,15.483-23.699,28.62c-1.105,7.704,0.146,15.59,5.137,21.41
		c5.507,6.422,14.414,7.763,20.484,2.045c-9.556,5.274-18.864-0.324-21.021-10.958c-3.1-15.621,8.72-28.896,21.711-35.554
		C443.188,55.012,474.761,84.058,494.289,113.408L494.289,113.408z"/>
	<path fill-rule="evenodd" clip-rule="evenodd" fill="#44C8F5" d="M495.869,602.838c0,0-4.916,8.269,4.121,14.79
		c-7.518,11.484,0.068,16.293,2.412,21.524c-2.604,3.644-2.189,9.684-1.426,12.493c0,0-13.743,8.965-3.065,17.264
		c0,0-7.677,2.098-7.887-4.113c0,0-9.175,1.433-6.35-5.441c-11.713-2.142-6.218-16.63,7.88-14.025
		c-3.475-6.017-29.197-1.852-22.086-15.657c0,0-5.968-4.639,0.241-9.385c0,0-0.874-4.694,3.871-7.573c0,0,1.677,8.863,10.886,9.975
		c0,0-3.103-4.139,0.278-6.837c-0.385-0.669-3.147-4.83,2.177-7.24C486.357,604.12,491.791,601.198,495.869,602.838L495.869,602.838
		z M503.873,636.594c-10.193-12.653-1.012-18.368,4.008-16.948c0,0,2.763-8.498,7.72-2.421c0,0,3.842-4.396,6.987,2.42
		c0,0,1.815,7.01,7.057,3.45l-3.26,8.387c1.786-0.135,3.868,1.117,5.446,1.53c0.032,1.578,1.949,6.572,3.526,8.498l-4.944,0.654
		C525.918,632.537,512.347,623.403,503.873,636.594L503.873,636.594z M545.612,631.485c0,0-5.532-4.878-12.231-0.614
		c-1.176-0.489-2.789-1.293-4.099-0.999c0,0,4.636-5.948,5.226-12.37c0,0-4.084,3.582-7.369,2.895
		c-4.718-0.986-4.201-12.264-11.542-6.271c0,0-5.865-6.808-9.322,2.945c0,0-13.152-4.257-7.373-15.84c0,0-5.661-9.526,0.215-10.18
		c0,0-0.675-8.059,5.835-5.024c0,0,4.641-3.66,7.105,2.35c0,0,3.961-4.255,6.422,1.754c0,0,6.983-3.302,5.777,5.526
		c0,0,7.223-1.644,8.32,3.172c0,0,6.144-4.275,5.161,4.026c0,0,10.187,9.861,1.749,10.688l0.395,2.03c0,0,10.949,2.093,5.661,9.526
		C552.353,625.873,551.022,634.194,545.612,631.485L545.612,631.485z M502.631,654.429c0,0-10.942,6.354-1.169,13.092
		c0,0-1.194,10.765,5.203,8.141c0,0,3.682,7.836,10.934,1.593c0,0,6.517,2.592,6.797-2.79c0.282-5.379,1.337-9.349,1.99-11.093
		c0.953,2.04,4.172,15.869,10.786,3.519c0,0,10.388,3.684,7.927-2.315c0,0,3.958-6.294-0.88-8.983c0,0,4.941-3.896,2.738-8.129
		c0,0,7.033-3.35-0.716-8.582c-2.422-10.217-12.831-7.371-11.353-3.754c1.314,3.198,3.283,7.998,3.283,7.998l-5.692,0.932
		c-0.785,4.67,1.112,8.21,8.05,7.334c0,0-1.434,7.838-10.389,7.209c0,0-4.028,4.791-9.39,1.348
		C513.88,664.998,506.011,661.99,502.631,654.429L502.631,654.429z M518.564,659.077c-1.144-1.297-1.459-2.899,0.108-4.411
		c2.067,3.641,5.673,5.372,8.712,3.78c-1.577-1.676-2.51-3.498-2.791-5.467c2.212,1.517,8.109,6.665,12.781,0.268
		c0,0-8.32,1.207-6.977-7.608c-2.802-3.002-12.139-20.336-23.556-9.073C499.242,645.92,505.108,664.445,518.564,659.077
		L518.564,659.077z M427.965,601.473c0,0,0.428,9.611-10.618,11.091c1.2,13.673-7.758,14.328-12.294,17.831
		c0.574,4.44-2.645,9.569-4.644,11.685c0,0,7.876,14.395-5.456,16.667c0,0,5.775,5.471,8.894,0.099c0,0,7.41,5.597,8.168-1.797
		c11.338,3.646,13.338-11.717-0.32-16.082c5.905-3.663,26.611,12.162,26.863-3.368c0,0,7.451-1.27,4.221-8.386
		c0,0,2.987-3.723,0.166-8.502c0,0-5.664,7.02-14.309,3.647c0,0,4.692-2.181,2.987-6.158c0.654-0.404,5.054-2.768,1.502-7.407
		C435.741,607.096,432.336,601.958,427.965,601.473L427.965,601.473z M404.965,627.448c14.963-6.339,9.57-15.714,4.475-16.834
		c0,0,1.577-8.794-5.662-5.783c0,0-1.307-5.687-7.3-1.165c0,0-4.913,5.32-7.846-0.291l-1.093,8.931
		c-1.511-0.962-3.938-0.843-5.521-1.228c-0.774,1.378-4.825,4.874-7.123,5.826l4.048,2.912
		C387.449,613.457,403.729,611.816,404.965,627.448L404.965,627.448z M370.59,603.224c0,0,7.18-1.684,11.071,5.24
		c1.266,0.122,3.067,0.176,4.084,1.054c0,0-1.276-7.432,1.237-13.371c0,0,1.91,5.088,5.127,6.033
		c4.624,1.357,9.495-8.824,13.137-0.074c0,0,8.385-3.231,6.823,6.999c0,0,13.604,2.461,13.983-10.479c0,0,9.489-5.72,4.62-9.071
		c0,0,4.401-6.785-2.771-7.186c0,0-2.361-5.418-7.373-1.285c0,0-1.478-5.62-6.487-1.488c0,0-4.595-6.209-7.704,2.144
		c0,0-5.588-4.862-8.829-1.137c0,0-3.396-6.672-6.451,1.109c0,0-13.638,3.88-6.595,8.595l-1.306,1.604c0,0-10.638-3.329-9.489,5.72
		C367.301,595.094,364.541,603.059,370.59,603.224L370.59,603.224z M397.636,643.751c0,0,6.641,10.771-5.153,12.095
		c0,0-4.037,10.051-8.437,4.715c0,0-6.944,5.166-10.386-3.762c0,0-6.969-0.794-4.673-5.669c2.294-4.875,3.24-8.874,3.486-10.718
		c-1.803,1.35-11.176,12.016-11.17-1.994c0,0-10.895-1.662-5.892-5.787c0,0-0.517-7.419,5.019-7.499c0,0-2.516-5.77,1.427-8.462
		c0,0-4.616-6.277,4.687-7.225c6.959-7.861,14.792-0.434,11.775,2.053c-2.666,2.2-6.668,5.501-6.668,5.501l4.575,3.509
		c-1.515,4.487-4.858,6.712-10.561,2.662c0,0-2.438,7.586,5.753,11.261c0,0,1.287,6.126,7.638,5.623
		C382.728,647.755,391.084,648.818,397.636,643.751L397.636,643.751z M381.396,640.321c1.621-0.603,2.653-1.864,1.988-3.94
		c-3.543,2.234-7.541,2.056-9.466-0.784c2.183-0.729,3.865-1.894,5.044-3.498c-2.669,0.292-10.3,2.045-11.393-5.803
		c0,0,6.764,4.995,9.743-3.41c3.887-1.322,20.305-12.188,25.049,3.133C404.642,637.853,390.716,651.41,381.396,640.321
		L381.396,640.321z M486.826,577.893c0,0,10.896-11.393-1.132-25.135c16.23-15.573,5.886-26.045,4.069-35.26
		c5.501-4.859,7.065-14.658,6.881-19.425c0,0,25.247-9.256,11.252-26.443c0,0,13.029-0.52,11.077,9.474
		c0,0,15.179,1.092,8.138,11.028c17.916,7.734,3.807,28.845-17.75,19.495c3.338,10.887,45.947,13.707,29.506,33.135
		c0,0,7.82,9.605-3.841,14.9c0,0-0.331,7.816-8.97,10.665c0,0,0.586-14.768-13.712-19.938c0,0,3.437,7.753-2.96,10.817
		c0.37,1.209,3.246,8.87-6.142,10.76C502.487,579.347,492.738,582.013,486.826,577.893L486.826,577.893z M485.654,522.814
		c11.617,23.958-5.149,29.705-12.645,25.588c0,0-7.541,12.551-13.223,1.026c0,0-7.746,5.605-10.263-6.438
		c0,0-0.319-11.862-9.994-8.109l8.287-12.191c-2.899-0.443-5.763-3.209-8.132-4.445c0.528-2.535-0.694-11.219-2.501-14.872
		l8.137,0.774C448.951,521.172,467.263,540.759,485.654,522.814L485.654,522.814z M417.939,513.832c0,0,7.041,9.823,19.309,5.482
		c1.694,1.214,3.979,3.092,6.179,3.104c0,0-9.594,7.794-12.902,17.831c0,0,7.843-4.217,12.835-1.909
		c7.168,3.312,2.191,21.129,16.122,14.262c0,0,6.856,13.032,15.972-1.271c0,0,19.435,11.645,5.942,28.014
		c0,0,5.532,17.294-4.089,16.176c0,0-1.891,13.117-11.17,5.877c0,0-8.76,4.132-10.483-6.371c0,0-7.888,5.338-9.61-5.165
		c0,0-12.366,2.702-7.188-10.956c0,0-12.14-0.032-12.118-8.123c0,0-11.386,4.562-6.758-8.33c0,0-12.636-19.5,1.138-17.713
		l0.119-3.391c0,0-16.716-7.37-5.534-17.295C405.109,520.312,410.302,507.51,417.939,513.832L417.939,513.832z M494.202,494.792
		c0,0,19.812-6.119,6.69-20.477c0,0,5.865-16.753-5.317-14.921c0,0-2.992-13.863-16.868-6.562c0,0-9.454-6.539-11.884,1.946
		c-2.43,8.49-5.576,14.443-7.265,16.983c-0.766-3.606-0.818-26.877-15.928-9.59c0,0-15.229-9.705-13.513,0.782
		c0,0-8.639,8.593-1.899,14.665c0,0-9.327,4.4-7.367,11.977c0,0-12.468,2.763-2.017,13.968
		c0.104,17.207,17.778,16.495,16.743,10.175c-0.918-5.59-2.295-13.979-2.295-13.979l9.434,0.604
		c2.974-7.166,1.246-13.518-10.155-14.675c0,0,5.176-11.988,19.243-7.686c0,0,8.197-6.167,15.491,1.304
		C480.13,473.769,491.589,481.472,494.202,494.792L494.202,494.792z M470.471,481.5c1.35,2.495,1.258,5.167-1.798,7.007
		c-1.963-6.577-7.083-10.67-12.522-9.243c1.904,3.251,2.723,6.505,2.446,9.757c-2.978-3.239-10.497-13.637-20.313-5.136
		c0,0,13.731,1.134,8.339,14.718c3.368,5.825,11.896,36.944,34.276,23.162C496.479,509.626,493.929,477.881,470.471,481.5
		L470.471,481.5z"/>
	<path fill-rule="evenodd" clip-rule="evenodd" fill="#0073AE" d="M561.523,687.769c3.152,10.232-0.669,18.578-10.455,22.907
		C547.802,700.376,551.474,691.938,561.523,687.769L561.523,687.769z"/>
	<path fill-rule="evenodd" clip-rule="evenodd" fill="#0073AE" d="M542.636,752.408c-1.472,6.446-3.94,11.845-7.157,16.286
		c5.929,3.501,10.633,15.148,1.744,23.306h-10.523c0.759-4.664-0.543-10.008,0.505-14.98c-17.705,12.968-45.539,9.945-64.981-2.688
		C496.837,781.13,519.388,781.6,542.636,752.408L542.636,752.408z"/>
	<path fill-rule="evenodd" clip-rule="evenodd" fill="#0073AE" d="M572.457,690.03c16.867,5.344,20.49-14.528,33.635-12.431
		C581.113,658.242,568.589,680.809,572.457,690.03L572.457,690.03z"/>
	<path fill-rule="evenodd" clip-rule="evenodd" fill="#0073AE" d="M405.623,557.485c4.695-13.867,25.892-4.881,32.385-15.396
		C443.817,562.694,420.788,578.585,405.623,557.485L405.623,557.485z"/>
	<path fill-rule="evenodd" clip-rule="evenodd" fill="#0073AE" d="M566.076,674.441c15.957-8.249,10.326-42.677,24.433-52.86
		C552.277,623.318,548.318,661.473,566.076,674.441L566.076,674.441z"/>
	<path fill-rule="evenodd" clip-rule="evenodd" fill="#0073AE" d="M412.327,572.938c23.483-2.704,41.892,23.177,54.9,19.422
		C439.044,618.742,409.978,592.22,412.327,572.938L412.327,572.938z"/>
	<path fill-rule="evenodd" clip-rule="evenodd" fill="#00A1E4" d="M530.474,727.797c2.477-14.304-3.663-19.604-15.08-19.576
		c-10.414,8.162-4.874,21.188,1.44,24.489c0,0-16.607-7.74-21.577,11.081c4.438,12.579,17.656,14.307,23.134,6.977
		c-0.81,3.332-5.732,10.716,6.411,19.436c16.798-3.564,14.564-13.35,13.806-17.683c5.502,5.853,13.905,3.03,19.764-1.111
		c0.184-5.892-2.487-15.556-10.579-15.425c4.912-4.554,6.594-15.11,1.154-23.444C544.15,716.038,536.206,711.721,530.474,727.797
		L530.474,727.797z M529.181,733.049c-1.489,0.261-2.604,1.396-2.914,2.784c-0.779-0.607-1.804-0.895-2.854-0.711
		c-1.972,0.346-3.291,2.226-2.945,4.196c0.346,1.972,2.225,3.29,4.196,2.944c0.161-0.027,0.318-0.066,0.471-0.115
		c-0.024,0.301-0.012,0.608,0.043,0.919c0.345,1.972,2.225,3.29,4.196,2.944s3.29-2.224,2.944-4.196
		c-0.131-0.749-0.484-1.405-0.98-1.91c1.449-0.676,2.327-2.261,2.038-3.91C533.031,734.022,531.151,732.703,529.181,733.049
		L529.181,733.049z M481.922,712.538c9.365-7.025,8.692-13.531,1.976-19.828c-10.625-0.97-14.578,9.739-12.697,15.169
		c0,0-5.466-13.728-18.792-5.429c-4.352,9.836,2.452,18.16,9.721,16.887c-2.318,1.509-9.291,3.119-6.986,14.953
		c11.83,7.197,15.931,0.22,17.881-2.744c-0.007,6.479,6.485,9.469,12.215,10.277c3.365-3.356,7.142-10.505,2.32-14.902
		c5.401,0.044,12.227-5.222,13.643-13.122C496.452,713.2,494.177,706.272,481.922,712.538L481.922,712.538z M478.259,714.905
		c-1.018-0.67-2.3-0.621-3.249,0.022c-0.122-0.787-0.564-1.522-1.282-1.995c-1.349-0.888-3.161-0.515-4.049,0.834
		s-0.514,3.161,0.834,4.049c0.11,0.073,0.225,0.137,0.341,0.192c-0.181,0.163-0.344,0.351-0.483,0.562
		c-0.888,1.349-0.514,3.162,0.834,4.05c1.348,0.887,3.161,0.514,4.049-0.835c0.338-0.512,0.493-1.093,0.481-1.663
		c1.225,0.404,2.615-0.04,3.358-1.168C479.98,717.606,479.607,715.793,478.259,714.905L478.259,714.905z M509.167,688.666
		c-0.735,10.561-6.006,13.246-14.085,11.238c-5.955-7.592,0.235-15.853,5.281-17.091c0,0-13.107,2.591-13.352-11.603
		c5.332-8.135,14.993-7.059,17.596-0.914c0.008-2.501-2.194-8.586,7.924-12.647c11.274,5.447,7.99,11.987,6.698,14.925
		c4.915-3.188,10.375,0.273,13.803,4.227c-0.896,4.203-4.469,10.582-10.177,9.082c2.687,4.079,2.04,11.848-3.263,16.803
		C516.806,699.374,510.429,701.048,509.167,688.666L509.167,688.666z M509.165,684.722c-1.009-0.443-1.602-1.441-1.578-2.478
		c-0.658,0.294-1.434,0.319-2.145,0.006c-1.337-0.588-1.943-2.147-1.355-3.483c0.588-1.337,2.147-1.943,3.484-1.355
		c0.109,0.048,0.213,0.103,0.312,0.164c0.035-0.217,0.098-0.434,0.19-0.644c0.587-1.336,2.147-1.943,3.484-1.354
		c1.335,0.587,1.942,2.147,1.354,3.483c-0.224,0.508-0.588,0.91-1.026,1.183c0.908,0.73,1.255,2.005,0.763,3.124
		C512.062,684.703,510.501,685.31,509.165,684.722L509.165,684.722z"/>
	<path fill-rule="evenodd" clip-rule="evenodd" fill="#FFFCD5" d="M201.925,631.768c-14.405,1.803-19.411-4.579-18.846-15.982
		c8.641-10.02,21.394-3.874,24.394,2.588c0,0-6.952-16.952,12.083-21.033c12.356,5.024,13.462,18.31,5.882,23.437
		c3.367-0.652,10.973-5.224,19.113,7.316c-4.349,16.612-14.019,13.922-18.312,12.96c5.588,5.771,2.375,14.033-2.038,19.69
		c-5.894-0.094-15.422-3.216-14.911-11.292c-4.78,4.693-15.404,5.877-23.473,0.052C189.536,644.877,185.597,636.738,201.925,631.768
		L201.925,631.768z M207.231,630.723c0.331-1.476,1.517-2.536,2.917-2.78c-0.57-0.807-0.809-1.844-0.576-2.884
		c0.438-1.953,2.377-3.183,4.33-2.745c1.953,0.438,3.182,2.377,2.745,4.33c-0.036,0.16-0.082,0.315-0.138,0.465
		c0.301-0.01,0.608,0.017,0.916,0.086c1.953,0.438,3.182,2.376,2.744,4.33c-0.438,1.952-2.376,3.182-4.33,2.744
		c-0.742-0.167-1.381-0.551-1.862-1.069c-0.743,1.416-2.367,2.219-4.001,1.853C208.023,634.614,206.793,632.675,207.231,630.723
		L207.231,630.723z M188.962,582.553c-7.458,9.024-13.925,8.047-19.899,1.043c-0.47-10.659,10.413-14.105,15.748-11.972
		c0,0-13.455-6.104-4.541-19.025c10.03-3.885,18.026,3.301,16.413,10.502c1.615-2.245,3.551-9.135,15.264-6.276
		c6.633,12.154-0.529,15.923-3.581,17.732c6.472,0.297,9.154,6.923,9.693,12.684c-3.511,3.204-10.829,6.641-14.996,1.618
		c-0.209,5.397-5.79,11.969-13.748,13.012C188.941,597.098,182.128,594.5,188.962,582.553L188.962,582.553z M191.498,579.005
		c-0.621-1.049-0.512-2.327,0.176-3.245c-0.781-0.158-1.495-0.634-1.933-1.374c-0.824-1.389-0.365-3.183,1.023-4.005
		c1.388-0.823,3.182-0.365,4.005,1.023c0.067,0.113,0.125,0.23,0.176,0.349c0.171-0.173,0.367-0.326,0.585-0.456
		c1.388-0.823,3.182-0.365,4.005,1.023c0.823,1.388,0.365,3.182-1.023,4.006c-0.527,0.312-1.115,0.44-1.685,0.402
		c0.347,1.241-0.162,2.61-1.324,3.3C194.115,580.852,192.322,580.394,191.498,579.005L191.498,579.005z M163.837,608.647
		c10.583-0.239,13.513-5.378,11.887-13.543c-7.303-6.304-15.846-0.509-17.32,4.474c0,0,3.204-12.972-10.963-13.882
		c-8.376,4.944-7.754,14.646-1.739,17.534c-2.499-0.11-8.474-2.596-13.006,7.32c4.912,11.519,11.6,8.545,14.594,7.392
		c-3.415,4.761-0.214,10.376,3.574,13.986c4.241-0.697,10.781-3.967,9.55-9.738c3.949,2.874,11.739,2.594,16.938-2.471
		C174.174,616.78,176.146,610.488,163.837,608.647L163.837,608.647z M159.897,608.46c-0.396-1.028-1.365-1.667-2.401-1.693
		c0.325-0.644,0.386-1.417,0.107-2.142c-0.524-1.363-2.054-2.042-3.416-1.518c-1.362,0.524-2.042,2.055-1.518,3.417
		c0.043,0.111,0.094,0.218,0.149,0.319c-0.218,0.025-0.437,0.078-0.651,0.16c-1.362,0.524-2.042,2.055-1.517,3.417
		c0.524,1.362,2.054,2.041,3.417,1.517c0.517-0.199,0.937-0.544,1.229-0.97c0.687,0.941,1.944,1.348,3.084,0.908
		C159.742,611.353,160.422,609.822,159.897,608.46L159.897,608.46z"/>
	<path fill-rule="evenodd" clip-rule="evenodd" fill="#F47C44" d="M588.14,771.643c14.405,1.803,19.411-4.579,18.847-15.982
		c-8.642-10.02-21.394-3.874-24.395,2.588c0,0,6.952-16.952-12.082-21.033c-12.356,5.024-13.462,18.31-5.882,23.437
		c-3.367-0.652-10.974-5.223-19.113,7.316c4.349,16.612,14.019,13.922,18.312,12.96c-3.11,3.212-3.492,7.195-2.46,11.072h19.187
		c0.2-0.824,0.282-1.713,0.222-2.674c1.119,1.099,2.56,2.005,4.212,2.674h14.34c1.695-0.628,3.357-1.492,4.922-2.622
		C600.528,784.752,604.468,776.613,588.14,771.643L588.14,771.643z M612,696.572v8.285c-1.979,4.479-6.746,6.642-6.746,6.642
		c1.825-0.729,4.299-0.806,6.746-0.164v17.616c-3.411,0.156-7.021-1.831-10.897-6.523c6.834,11.947,0.021,14.545-0.354,19.317
		c-7.957-1.043-13.538-7.614-13.747-13.012c-4.167,5.022-11.485,1.586-14.996-1.618c0.539-5.761,3.222-12.387,9.693-12.684
		c-3.053-1.809-10.215-5.578-3.581-17.732c11.713-2.857,13.649,4.031,15.265,6.276c-1.613-7.201,6.383-14.387,16.412-10.502
		C610.796,693.926,611.513,695.292,612,696.572L612,696.572z M582.833,770.598c-0.33-1.476-1.517-2.536-2.917-2.78
		c0.569-0.807,0.809-1.844,0.575-2.884c-0.438-1.953-2.377-3.183-4.329-2.745c-1.953,0.438-3.183,2.377-2.745,4.33
		c0.035,0.16,0.082,0.315,0.138,0.465c-0.301-0.01-0.608,0.017-0.916,0.086c-1.953,0.438-3.183,2.376-2.744,4.33
		c0.438,1.952,2.377,3.182,4.33,2.744c0.742-0.167,1.381-0.551,1.862-1.069c0.743,1.416,2.367,2.219,4.002,1.853
		C582.041,774.489,583.271,772.55,582.833,770.598L582.833,770.598z M598.566,718.88c0.621-1.049,0.512-2.327-0.176-3.245
		c0.781-0.158,1.495-0.634,1.934-1.374c0.823-1.388,0.364-3.183-1.023-4.005c-1.389-0.823-3.183-0.365-4.006,1.023
		c-0.067,0.113-0.125,0.23-0.176,0.349c-0.171-0.173-0.366-0.326-0.585-0.456c-1.389-0.823-3.182-0.365-4.006,1.023
		c-0.823,1.389-0.364,3.182,1.024,4.006c0.527,0.312,1.114,0.44,1.685,0.402c-0.348,1.241,0.161,2.61,1.323,3.3
		C595.949,720.727,597.743,720.269,598.566,718.88L598.566,718.88z"/>
	<path fill-rule="evenodd" clip-rule="evenodd" fill="#6DCFF6" d="M442.705,273.854c16.52-16.611,13.314-29.301-1.801-39.834
		c-21.32,1.14-26.064,23.486-20.773,33.696c0,0-14.781-25.608-38.778-5.337c-5.783,20.734,10.086,35.259,24.113,30.643
		c-4.157,3.654-17.5,8.853-9.526,31.623c25.5,10.846,31.609-4.154,34.619-10.584c1.853,12.832,15.571,16.883,27.149,16.834
		c5.698-7.617,11.117-22.862,0.303-30.182c10.709-1.469,22.708-13.862,23.235-29.915
		C471.669,270.979,465.168,257.917,442.705,273.854L442.705,273.854z M436.133,279.597c-2.21-1.034-4.734-0.568-6.429,0.981
		c-0.469-1.524-1.556-2.854-3.113-3.582c-2.927-1.37-6.409-0.107-7.778,2.817c-1.369,2.925-0.106,6.41,2.818,7.779
		c0.239,0.112,0.483,0.206,0.729,0.282c-0.31,0.374-0.58,0.794-0.795,1.254c-1.369,2.926-0.106,6.409,2.819,7.778
		c2.925,1.369,6.408,0.107,7.777-2.819c0.52-1.112,0.661-2.306,0.474-3.433c2.541,0.449,5.169-0.831,6.315-3.28
		C440.319,284.449,439.058,280.966,436.133,279.597L436.133,279.597z"/>
	<path fill-rule="evenodd" clip-rule="evenodd" fill="#FFFFFF" d="M384.553,38.989c-5.915-4.175-12.075-7.991-18.442-11.436
		c-6.345-2.962-12.857-5.554-19.511-7.741c-6.528-1.731-13.153-3.087-19.842-4.028c-6.474-0.526-12.973-0.686-19.462-0.432
		c-17.897,1.78-34.926,7.29-49.994,17.211c-19.568,14.678-33.106,35.217-33.947,60.195c0.679,19.201,11.543,43.104,33.292,44.403
		c8.126,0.487,15.168-3.035,21.327-9.914c-5.76,4.686-11.294,7.993-19.196,6.841c-10.064-1.466-18.94-9.95-22.887-19.973
		c-10.853-27.56,6.437-55.767,28.026-72.23c13.386-8.969,28.509-14.449,44.349-17.109c4.389-0.484,8.697-0.754,12.977-0.824
		c-13.327,2.314-25.404,9.87-33.423,20.801c-6.669,10.363-9.463,22.438-5.481,34.381c2.78,6.742,7.546,12.507,14.346,14.824
		c7.502,2.557,15.327-0.606,17.499-8.111c-5.195,8.808-15.372,8.728-22.179,1.176c-9.944-11.125-6.735-27.465,0.572-39.027
		C315.502,16.23,354.813,24.617,384.553,38.989L384.553,38.989z M300.076,0h14.682c0.439,4.18,4.774,7.947,12.721,5.03
		C318.782,16.058,306.884,9.821,300.076,0L300.076,0z M316.229,0h2.008c0.58,0.75,1.486,1.231,2.506,1.233
		c1.024,0.002,1.937-0.481,2.519-1.233h3.832c-0.358,2.684-2.659,4.752-5.439,4.749C318.876,4.745,316.586,2.678,316.229,0
		L316.229,0z M276.681,52.68c0.862-0.782,0.931-2.115,0.15-2.979c-0.782-0.864-2.116-0.931-2.979-0.15
		c-0.865,0.78-0.932,2.114-0.151,2.979C274.482,53.392,275.816,53.459,276.681,52.68L276.681,52.68z M277.621,52.813
		c1.491-1.347,1.607-3.651,0.258-5.143c-1.349-1.491-3.652-1.606-5.142-0.261c-1.492,1.35-1.608,3.653-0.261,5.145
		C273.825,54.045,276.127,54.162,277.621,52.813L277.621,52.813z M264.905,62.76c5.409,0.072,12.34-1.302,14.578-10.321
		c-6.329,6.768-14.134-3.687-3.997-7.759C264.937,42.875,262.412,54.152,264.905,62.76L264.905,62.76z M332.728,47.201
		c-1.327,1.146-3.333,0.998-4.478-0.327c-1.147-1.327-1-3.333,0.327-4.479c1.328-1.144,3.332-0.998,4.477,0.329
		C334.2,44.05,334.055,46.056,332.728,47.201L332.728,47.201z M332.753,48.63c-2.289,1.978-5.752,1.725-7.729-0.565
		c-1.978-2.291-1.725-5.752,0.566-7.731c2.29-1.979,5.752-1.725,7.73,0.566C335.298,43.189,335.044,46.652,332.753,48.63
		L332.753,48.63z M349.967,31.481c-0.895,8.096-4.231,18.192-18.12,19.862c11.282-8.198-2.885-21.796-10.846-7.407
		C320.261,27.844,337.575,26.164,349.967,31.481L349.967,31.481z"/>
	<path fill-rule="evenodd" clip-rule="evenodd" fill="#0099DA" d="M540.524,149.163c0,0-1.864,7.484,6.579,10.401
		c-3.115,10.552,3.818,12.49,6.825,15.963c-1.156,3.396,0.557,7.938,1.792,9.918c0,0-8.477,10.056,1.637,13.96
		c0,0-5.406,3.381-7.002-1.336c0,0-6.712,3.22-6.132-2.709c-9.487,1.062-8.617-11.325,2.808-12.583
		c-4.058-3.816-22.84,5.326-20.57-6.916c0,0-5.651-2.181-1.983-7.259c0,0-1.755-3.399,1.222-6.706c0,0,3.334,6.415,10.661,5.14
		c0,0-3.34-2.459-1.368-5.313c-0.45-0.422-3.53-2.978-0.003-6.058C533.521,152.345,537.014,148.85,540.524,149.163L540.524,149.163z
		 M554.466,173.225c-10.747-7.358-5.021-13.866-0.84-13.937c0,0,0.158-7.159,5.367-3.643c0,0,1.931-4.26,5.92,0.245
		c0,0,3.015,4.96,6.211,1.018l-0.562,7.189c1.341-0.516,3.228-0.036,4.533-0.087c0.39,1.206,3.017,4.597,4.671,5.71l-3.644,1.645
		C570.45,165.017,557.921,161.141,554.466,173.225L554.466,173.225z M585.322,159.657c0,0-5.373-2.464-9.53,2.357
		c-1.015-0.104-2.438-0.349-3.377,0.179c0,0,2.184-5.636,1.153-10.701c0,0-2.31,3.693-4.987,3.924
		c-3.848,0.333-6.058-8.441-10.309-2.146c0,0-6.073-3.871-6.473,4.414c0,0-11.079-0.229-9.32-10.455c0,0-6.547-6.002-2.188-7.861
		c0,0-2.379-6.031,3.318-5.205c0,0,2.717-3.882,5.997,0.162c0,0,2.054-4.181,5.334-0.139c0,0,4.596-4.148,5.711,2.908
		c0,0,5.163-2.932,7.117,0.51c0,0,3.729-4.701,4.893,1.897c0,0,10.097,5.215,3.814,7.8l0.771,1.468c0,0,8.886-0.925,6.545,6.002
		C589.198,153.792,590.101,160.488,585.322,159.657L585.322,159.657z M557.634,187.198c0,0-6.93,7.406,2.126,10.321
		c0,0,1.574,8.538,5.879,5.045c0,0,4.635,5.162,8.757-1.305c0,0,5.601,0.484,4.572-3.71c-1.027-4.195-1.136-7.487-1.036-8.974
		c1.203,1.347,6.871,11.215,9.093,0.208c0,0,8.823,0.425,5.548-3.611c0,0,1.585-5.747-2.751-6.689c0,0,2.894-4.133,0.225-6.875
		c0,0,4.624-4.197-2.533-6.42c-4.219-7.282-11.553-2.691-9.578-0.258c1.745,2.152,4.364,5.38,4.364,5.38l-4.152,2.03
		c0.477,3.767,2.75,6.045,7.874,3.771c0,0,0.71,6.347-6.309,7.932c0,0-1.985,4.608-6.895,3.204
		C568.709,192.713,561.975,192.22,557.634,187.198L557.634,187.198z M570.937,187.084c-1.178-0.731-1.788-1.887-0.937-3.412
		c2.429,2.318,5.599,2.813,7.562,0.888c-1.599-0.918-2.735-2.102-3.406-3.55c2.05,0.653,7.767,3.244,9.873-2.748
		c0,0-6.108,2.85-7.113-4.228c-2.844-1.656-14.016-12.803-20.177-1.52C553.066,181.451,561.853,194.314,570.937,187.084
		L570.937,187.084z M498.028,121.283c0,0-6.75-10.683,4.884-19.566c-10.276-14.814-0.485-21.397,2.406-28.349
		c-3.55-4.691-3.222-12.639-2.319-16.354c0,0-18.363-11.285-4.637-22.563c0,0-10.154-2.479-10.209,5.682
		c0,0-12.098-1.554-8.146,7.372c-15.305,3.229-7.575,22.056,10.848,18.137c-4.353,8.022-38.277,3.466-28.447,21.343
		c0,0-7.67,6.303,0.649,12.316c0,0-0.981,6.193,5.352,9.804c0,0,1.888-11.695,13.942-13.485c0,0-3.933,5.545,0.605,8.969
		c-0.482,0.892-3.959,6.453,3.115,9.43C485.493,119.937,492.729,123.581,498.028,121.283L498.028,121.283z M507.702,78.199
		c-12.935,16.975-0.675,24.155,5.867,22.112c0,0,3.931,11.059,10.226,2.907c0,0,5.194,5.635,9.086-3.427c0,0,2.136-9.269,9.14-4.782
		l-4.573-10.895c2.35,0.112,5.038-1.606,7.096-2.201c-0.013-2.075,2.328-8.703,4.328-11.287l-6.516-0.684
		C536.798,82.741,519.299,95.219,507.702,78.199L507.702,78.199z M562.329,81.902c0,0-7.093,6.599-16.042,1.239
		c-1.523,0.684-3.616,1.797-5.347,1.457c0,0,6.298,7.647,7.303,16.059c0,0-5.491-4.559-9.78-3.539
		c-6.157,1.463-5.079,16.251-14.933,8.642c0,0-7.458,9.149-12.346-3.537c0,0-17.119,6.06-9.121,21.064
		c0,0-7.095,12.708,0.643,13.358c0,0-0.599,10.605,7.842,6.392c0,0,6.225,4.639,9.248-3.339c0,0,5.349,5.447,8.371-2.53
		c0,0,9.286,4.088,7.389-7.465c0,0,9.542,1.904,10.812-4.456c0,0,8.22,5.395,6.633-5.47c0,0,13.026-13.312,1.921-14.098l0.445-2.683
		c0,0,14.304-3.134,7.096-12.708C571.379,89.033,569.334,78.15,562.329,81.902L562.329,81.902z M505.44,54.825
		c0,0-14.593-7.957-2.003-17.151c0,0-1.945-14.094,6.549-10.877c0,0,4.554-10.417,14.296-2.476c0,0,8.466-3.635,9.026,3.418
		c0.56,7.056,2.085,12.233,3.008,14.498c1.175-2.712,4.915-20.986,14.038-5.003c0,0,13.507-5.204,10.491,2.762
		c0,0,5.422,8.125-0.838,11.823c0,0,6.629,4.939,3.885,10.581c0,0,9.356,4.152-0.636,11.293
		c-2.815,13.502-16.589,10.134-14.771,5.333c1.609-4.246,4.023-10.617,4.023-10.617l-7.506-1.024
		c-1.199-6.102,1.168-10.818,10.31-9.916c0,0-2.161-10.241-13.896-9.096c0,0-5.461-6.148-12.378-1.437
		C519.836,40.544,509.609,44.774,505.44,54.825L505.44,54.825z M526.196,48.153c-1.457,1.746-1.81,3.859,0.299,5.791
		c2.588-4.855,7.261-7.256,11.308-5.271c-2.013,2.252-3.174,4.677-3.473,7.277c2.854-2.072,10.413-9.046,16.775-0.807
		c0,0-10.969-1.291-8.891,10.238c-3.572,4.041-15.218,27.134-30.609,12.75C501.293,66.117,508.342,41.582,526.196,48.153
		L526.196,48.153z M486.959,139.444c0,0,2.549,7.278-5.588,10.965c4.082,10.218-2.643,12.789-5.315,16.527
		c1.467,3.276,0.182,7.956-0.864,10.042c0,0,9.372,9.228-0.336,14.051c0,0,5.697,2.868,6.85-1.979c0,0,6.98,2.583,5.854-3.266
		c9.542,0.178,7.527-12.077-3.963-12.271c3.688-4.175,23.233,3.186,19.841-8.791c0,0,5.426-2.696,1.302-7.412
		c0,0,1.432-3.549-1.838-6.564c0,0-2.726,6.696-10.137,6.106c0,0,3.095-2.758,0.867-5.416c0.409-0.464,3.24-3.295-0.561-6.034
		C494.229,141.963,490.424,138.804,486.959,139.444L486.959,139.444z M475.307,164.691c10.02-8.32,3.714-14.27-0.455-13.952
		c0,0-0.82-7.115-5.68-3.128c0,0-2.32-4.064-5.875,0.791c0,0-2.539,5.218-6.092,1.589l1.228,7.106
		c-1.381-0.389-3.216,0.264-4.521,0.337c-0.275,1.235-2.575,4.854-4.12,6.116l3.779,1.3
		C458.632,158.002,470.746,152.982,475.307,164.691L475.307,164.691z M443.327,154.045c0,0,5.121-2.953,9.707,1.461
		c1.001-0.197,2.396-0.572,3.378-0.133c0,0-2.695-5.411-2.139-10.549c0,0,2.639,3.463,5.329,3.445
		c3.863-0.026,5.25-8.967,10.064-3.092c0,0,5.689-4.417,6.855,3.795c0,0,11.01-1.254,8.311-11.272c0,0,5.961-6.584,1.448-8.032
		c0,0,1.812-6.224-3.785-4.875c0,0-3.064-3.613-5.956,0.717c0,0-2.436-3.972-5.323,0.358c0,0-4.962-3.704-5.418,3.424
		c0,0-5.413-2.439-7.04,1.169c0,0-4.147-4.335-4.695,2.343c0,0-9.569,6.128-3.072,8.119l-0.633,1.533c0,0-8.936-0.096-5.961,6.584
		C438.924,148.565,438.646,155.314,443.327,154.045L443.327,154.045z M473.448,178.901c0,0,7.587,6.731-1.162,10.472
		c0,0-0.772,8.647-5.382,5.568c0,0-4.138,5.572-8.842-0.485c0,0-5.532,1-4.897-3.272c0.634-4.271,0.437-7.558,0.199-9.032
		c-1.073,1.452-5.799,11.805-9.032,1.05c0,0-8.747,1.243-5.86-3.079c0,0-2.108-5.573,2.119-6.917c0,0-3.263-3.846-0.859-6.822
		c0,0-4.993-3.749,1.927-6.629c3.525-7.641,11.252-3.751,9.515-1.145c-1.541,2.304-3.851,5.762-3.851,5.762l4.324,1.637
		c-0.125,3.794-2.179,6.273-7.489,4.482c0,0-0.119,6.385,7.016,7.314c0,0,2.404,4.405,7.163,2.551
		C462.932,185.417,469.592,184.304,473.448,178.901L473.448,178.901z M460.192,180.021c1.104-0.837,1.606-2.046,0.615-3.482
		c-2.202,2.532-5.311,3.319-7.445,1.585c1.506-1.066,2.528-2.35,3.062-3.853c-1.979,0.841-7.431,3.948-10.084-1.82
		c0,0,6.345,2.271,6.69-4.868c2.678-1.913,12.768-14.048,19.948-3.385C477.463,172.754,469.91,186.376,460.192,180.021
		L460.192,180.021z"/>
	<path fill-rule="evenodd" clip-rule="evenodd" fill="#005BAB" d="M452.7,627.044c-2.62-20.107,6.259-27.146,22.189-26.437
		c14.057,11.999,5.563,29.854-3.442,34.091c0,0,23.63-9.83,29.465,16.728c-6.93,17.295-25.479,18.934-32.693,8.382
		c0.935,4.699,7.373,15.29-10.084,26.75c-23.234-5.957-19.545-19.482-18.232-25.485c-8.021,7.846-19.584,3.415-27.518-2.708
		c0.089-8.233,4.383-21.563,15.667-20.907c-6.589-6.643-8.318-21.474-0.239-32.786C434.301,609.833,445.641,604.273,452.7,627.044
		L452.7,627.044z M454.197,634.449c2.062,0.451,3.553,2.101,3.903,4.057c1.123-0.803,2.57-1.144,4.024-0.825
		c2.731,0.597,4.462,3.298,3.864,6.027c-0.597,2.732-3.298,4.463-6.028,3.865c-0.224-0.049-0.44-0.113-0.65-0.189
		c0.017,0.421-0.019,0.85-0.113,1.28c-0.598,2.731-3.297,4.462-6.028,3.863c-2.731-0.597-4.462-3.297-3.863-6.028
		c0.227-1.038,0.759-1.933,1.479-2.609c-1.983-1.027-3.116-3.289-2.616-5.576C448.767,635.583,451.467,633.852,454.197,634.449
		L454.197,634.449z M521.35,608.59c-12.658-10.352-11.338-19.393-1.597-27.787c14.885-0.731,19.775,14.445,16.832,21.912
		c0,0,8.433-18.837,26.544-6.478c5.496,13.982-4.484,25.202-14.554,23c3.147,2.24,12.783,4.896,8.875,21.275
		c-16.931,9.353-22.245-0.625-24.794-4.875c-0.369,9.041-9.604,12.835-17.647,13.629c-4.5-4.881-9.353-15.079-2.366-20.935
		c-7.541-0.255-16.759-8.003-18.271-19.11C501.034,608.664,504.614,599.129,521.35,608.59L521.35,608.59z M526.323,612.107
		c1.46-0.875,3.247-0.731,4.533,0.223c0.217-1.092,0.877-2.093,1.906-2.71c1.934-1.16,4.442-0.532,5.602,1.4
		c1.16,1.934,0.532,4.442-1.401,5.603c-0.158,0.095-0.32,0.177-0.485,0.248c0.242,0.238,0.459,0.51,0.641,0.813
		c1.16,1.934,0.533,4.442-1.4,5.603c-1.934,1.159-4.442,0.532-5.603-1.401c-0.44-0.735-0.623-1.555-0.573-2.351
		c-1.732,0.494-3.649-0.207-4.619-1.826C523.763,615.776,524.391,613.268,526.323,612.107L526.323,612.107z M484.725,573.682
		c0.407,14.781,7.606,18.836,18.999,16.507c8.755-10.246,0.6-22.137-6.371-24.16c0,0,18.142,4.382,19.312-15.411
		c-6.965-11.665-20.511-10.728-24.502-2.305c0.136-3.491,3.564-11.854-10.317-18.114c-16.054,6.942-11.854,16.262-10.222,20.437
		c-6.674-4.736-14.495-0.225-19.511,5.091c1.004,5.919,5.618,15.03,13.671,13.27c-3.987,5.536-3.54,16.416,3.571,23.642
		C473.438,588.177,482.239,590.887,484.725,573.682L484.725,573.682z M484.957,568.177c1.435-0.561,2.319-1.918,2.349-3.366
		c0.9,0.449,1.981,0.529,2.992,0.135c1.899-0.742,2.838-2.885,2.096-4.783c-0.742-1.899-2.884-2.837-4.783-2.096
		c-0.155,0.062-0.305,0.132-0.446,0.211c-0.036-0.305-0.111-0.61-0.229-0.908c-0.741-1.899-2.884-2.838-4.783-2.095
		c-1.897,0.741-2.836,2.883-2.094,4.782c0.282,0.722,0.767,1.306,1.363,1.71c-1.311,0.967-1.869,2.726-1.247,4.315
		C480.917,567.98,483.059,568.919,484.957,568.177L484.957,568.177z"/>
	<path fill-rule="evenodd" clip-rule="evenodd" fill="#FFF799" d="M461.184,625.585c-1.94-14.887,4.633-20.097,16.428-19.572
		c10.407,8.883,4.119,22.103-2.548,25.239c0,0,17.494-7.277,21.813,12.385c-5.13,12.804-18.863,14.017-24.205,6.205
		c0.692,3.479,5.459,11.32-7.466,19.804c-17.201-4.41-14.47-14.424-13.498-18.868c-5.938,5.81-14.499,2.529-20.372-2.004
		c0.065-6.096,3.244-15.965,11.599-15.479c-4.878-4.918-6.158-15.898-0.177-24.273C447.562,612.843,455.957,608.727,461.184,625.585
		L461.184,625.585z M462.292,631.067c1.526,0.334,2.63,1.556,2.89,3.003c0.832-0.594,1.902-0.846,2.979-0.61
		c2.022,0.442,3.304,2.441,2.86,4.463c-0.441,2.021-2.44,3.303-4.463,2.86c-0.165-0.035-0.326-0.083-0.481-0.14
		c0.013,0.312-0.014,0.63-0.083,0.947c-0.442,2.022-2.441,3.304-4.464,2.861s-3.304-2.441-2.86-4.464
		c0.168-0.769,0.562-1.431,1.096-1.932c-1.469-0.76-2.307-2.436-1.937-4.128C458.271,631.907,460.271,630.625,462.292,631.067
		L462.292,631.067z M512.008,611.922c-9.371-7.664-8.394-14.357-1.182-20.572c11.02-0.541,14.641,10.695,12.462,16.223
		c0,0,6.243-13.945,19.651-4.795c4.069,10.352-3.319,18.658-10.774,17.027c2.33,1.659,9.464,3.625,6.57,15.752
		c-12.534,6.924-16.47-0.463-18.356-3.609c-0.273,6.693-7.11,9.503-13.064,10.09c-3.333-3.613-6.925-11.163-1.753-15.499
		c-5.583-0.188-12.407-5.925-13.527-14.148C496.967,611.977,499.618,604.918,512.008,611.922L512.008,611.922z M515.691,614.526
		c1.08-0.647,2.402-0.542,3.355,0.165c0.16-0.809,0.648-1.55,1.411-2.007c1.432-0.858,3.289-0.394,4.147,1.037
		c0.858,1.432,0.394,3.289-1.038,4.147c-0.117,0.071-0.237,0.132-0.359,0.185c0.18,0.176,0.34,0.377,0.475,0.602
		c0.859,1.432,0.395,3.289-1.037,4.148c-1.432,0.858-3.288,0.394-4.147-1.038c-0.326-0.544-0.462-1.15-0.425-1.739
		c-1.282,0.365-2.701-0.154-3.42-1.353C513.795,617.243,514.26,615.386,515.691,614.526L515.691,614.526z M484.893,586.078
		c0.302,10.942,5.632,13.945,14.066,12.221c6.481-7.586,0.443-16.389-4.717-17.888c0,0,13.431,3.245,14.298-11.409
		c-5.157-8.636-15.187-7.942-18.142-1.706c0.102-2.585,2.64-8.776-7.638-13.411c-11.886,5.14-8.775,12.04-7.567,15.13
		c-4.941-3.506-10.731-0.166-14.445,3.77c0.743,4.382,4.159,11.127,10.121,9.824c-2.952,4.099-2.62,12.153,2.644,17.503
		C476.536,596.81,483.053,598.816,484.893,586.078L484.893,586.078z M485.065,582.002c1.062-0.415,1.717-1.42,1.738-2.492
		c0.667,0.333,1.467,0.393,2.216,0.1c1.406-0.549,2.1-2.135,1.551-3.54c-0.549-1.406-2.135-2.102-3.541-1.552
		c-0.115,0.045-0.226,0.097-0.33,0.155c-0.027-0.226-0.083-0.451-0.169-0.673c-0.55-1.405-2.136-2.101-3.542-1.551
		c-1.405,0.55-2.1,2.135-1.551,3.542c0.21,0.533,0.568,0.966,1.01,1.266c-0.97,0.715-1.383,2.018-0.923,3.194
		C482.073,581.857,483.659,582.552,485.065,582.002L485.065,582.002z"/>
	<path fill-rule="evenodd" clip-rule="evenodd" fill="#0073AE" d="M501.38,657.133c11.145,9.517,0.277,35.819,9.592,46.529
		C480.924,695.182,484.865,664.137,501.38,657.133L501.38,657.133z"/>
	<path fill-rule="evenodd" clip-rule="evenodd" fill="#00A1E4" d="M480.236,363.798c2.604,1.268,4.058,3.948,3.893,6.669
		c1.757-0.706,3.796-0.693,5.631,0.201c3.449,1.68,4.883,5.839,3.203,9.286c-1.679,3.448-5.838,4.882-9.286,3.202
		c-0.282-0.136-0.551-0.292-0.806-0.461c-0.114,0.565-0.3,1.127-0.564,1.669c-1.68,3.448-5.838,4.882-9.286,3.202
		c-3.448-1.679-4.882-5.837-3.202-9.286c0.639-1.311,1.637-2.331,2.816-3c-2.312-2.011-3.09-5.393-1.685-8.279
		C472.63,363.554,476.789,362.119,480.236,363.798L480.236,363.798z M480.635,353.442c3.008-27.653,17.12-34.165,38.13-28.069
		c14.859,20.541-2.236,41.599-15.612,44.335c0,0,34.681-5.465,33.872,31.826c-14.83,20.815-40.088,17.002-46.295,0.604
		c-0.273,6.566,4.886,22.768-22.093,32.399c-29.048-15.453-19.757-32.292-16.064-39.87c-13.231,7.866-27.213-1.778-35.81-12.506
		c2.78-10.947,12.814-27.33,27.646-22.806c-6.637-10.986-4.146-31.318,10.282-43.786
		C461.672,324.548,478.586,320.803,480.635,353.442L480.635,353.442z"/>
	<path fill-rule="evenodd" clip-rule="evenodd" fill="#44C8F5" d="M194.396,692.775c-4.548-33.18-21.75-40.543-46.831-32.503
		c-17.194,25.219,4.086,49.989,20.276,52.834c0,0-41.921-5.414-39.697,39.438c18.546,24.555,48.816,19.118,55.736-0.826
		c0.548,7.893-5.117,27.564,27.674,38.252c34.441-19.572,22.694-39.525,17.997-48.522c16.188,9.023,32.691-3.053,42.677-16.252
		c-3.713-13.082-16.339-32.462-34.037-26.521c7.619-13.444,3.94-37.83-13.843-52.351
		C216.249,657.366,195.767,653.426,194.396,692.775L194.396,692.775z M195.222,705.226c-3.09,1.613-4.751,4.888-4.46,8.156
		c-2.138-0.79-4.592-0.706-6.771,0.432c-4.094,2.137-5.68,7.19-3.543,11.282c2.137,4.094,7.19,5.681,11.283,3.543
		c0.335-0.174,0.653-0.37,0.954-0.583c0.157,0.677,0.399,1.347,0.735,1.99c2.138,4.094,7.19,5.681,11.284,3.542
		c4.092-2.137,5.679-7.189,3.542-11.283c-0.812-1.556-2.048-2.751-3.49-3.516c2.714-2.497,3.538-6.595,1.75-10.021
		C204.368,704.676,199.314,703.089,195.222,705.226L195.222,705.226z M76.991,693.149c15.68-21.988,9.655-35.823-9.511-44.974
		c-24.037,5.292-25.247,31.599-17.317,42.221c0,0-21.609-26.36-45.108,1.193c-2.694,24.667,18.078,38.216,33.169,30.338
		c-4.043,4.935-18.248,13.348-4.913,37.755c31.037,7.558,35.178-10.647,37.396-18.526c4.511,14.248,20.874,16.288,34.035,14.062
		c5.054-9.73,8.362-28.087-5.311-34.387c11.906-3.677,23.233-20.022,20.826-38.38C109.398,684.453,99.557,670.812,76.991,693.149
		L76.991,693.149z M70.591,700.913c-2.706-0.762-5.491,0.241-7.128,2.32c-0.819-1.646-2.304-2.954-4.212-3.492
		c-3.585-1.009-7.311,1.08-8.319,4.663c-1.01,3.584,1.079,7.311,4.663,8.319c0.294,0.083,0.588,0.144,0.882,0.185
		c-0.283,0.484-0.51,1.012-0.668,1.575c-1.01,3.585,1.079,7.311,4.663,8.319c3.584,1.01,7.31-1.079,8.319-4.663
		c0.384-1.362,0.32-2.747-0.104-3.994c2.975,0.035,5.724-1.913,6.568-4.914C76.263,705.648,74.175,701.922,70.591,700.913
		L70.591,700.913z M120.212,621.63c5.762,23.732-3.951,33.317-23.117,34.549c-18.396-12.53-10.559-35.018-0.329-41.266
		c0,0-27.009,14.854-37.46-16.18c6.038-21.611,28.032-25.995,38.047-14.303c-1.732-5.505-10.824-17.345,8.583-33.344
		c28.594,4.099,25.943,20.773,25.154,28.133c8.581-10.441,23.001-6.646,33.3-0.352c0.968,9.868-2.432,26.389-16.028,27.077
		c8.756,7.093,12.763,24.624,4.566,39.224C144.487,639.834,131.637,647.971,120.212,621.63L120.212,621.63z M117.452,612.959
		c-2.528-0.271-4.528-2.05-5.202-4.345c-1.241,1.106-2.929,1.703-4.711,1.512c-3.349-0.358-5.773-3.365-5.414-6.712
		c0.358-3.349,3.365-5.772,6.713-5.414c0.274,0.029,0.542,0.077,0.802,0.142c-0.074-0.501-0.087-1.021-0.031-1.547
		c0.358-3.349,3.365-5.772,6.714-5.413c3.347,0.357,5.771,3.364,5.413,6.713c-0.137,1.272-0.657,2.412-1.432,3.316
		c2.508,0.972,4.161,3.532,3.86,6.335C123.807,610.894,120.799,613.318,117.452,612.959L117.452,612.959z"/>
	<path fill-rule="evenodd" clip-rule="evenodd" fill="#00A1E4" d="M153.466,706.938c1.643-15.098,9.347-18.652,20.817-15.325
		c8.112,11.215-1.221,22.711-8.523,24.205c0,0,18.934-2.983,18.492,17.376c-8.096,11.364-21.886,9.282-25.275,0.329
		c-0.149,3.585,2.667,12.43-12.061,17.688c-15.859-8.437-10.786-17.63-8.771-21.767c-7.224,4.294-14.857-0.972-19.55-6.828
		c1.518-5.977,6.996-14.921,15.093-12.451c-3.624-5.998-2.264-17.098,5.613-23.905C143.113,691.162,152.348,689.118,153.466,706.938
		L153.466,706.938z M153.249,712.591c1.421,0.692,2.215,2.156,2.125,3.642c0.959-0.386,2.073-0.379,3.075,0.109
		c1.883,0.917,2.666,3.188,1.749,5.069c-0.917,1.883-3.188,2.666-5.07,1.749c-0.154-0.075-0.301-0.16-0.44-0.253
		c-0.062,0.31-0.164,0.615-0.308,0.911c-0.917,1.883-3.187,2.666-5.07,1.749c-1.882-0.917-2.666-3.188-1.748-5.07
		c0.349-0.716,0.894-1.272,1.538-1.638c-1.262-1.098-1.687-2.944-0.919-4.52C149.096,712.458,151.367,711.674,153.249,712.591
		L153.249,712.591z M206.688,705.623c-7.385-9.769-4.829-16.115,3.743-20.505c10.962,2.095,11.843,14.004,8.383,18.919
		c0,0,9.462-12.222,20.462-0.028c1.533,11.146-7.712,17.55-14.652,14.17c1.895,2.187,8.44,5.82,2.704,17.052
		c-13.974,3.817-16.08-4.382-17.185-7.926c-1.865,6.516-9.256,7.646-15.25,6.805c-2.414-4.347-4.145-12.625,1.973-15.654
		c-5.443-1.517-10.785-8.782-9.925-17.134C191.889,702.091,196.178,695.784,206.688,705.623L206.688,705.623z M209.688,709.062
		c1.217-0.379,2.492,0.041,3.26,0.962c0.351-0.756,1.007-1.368,1.865-1.636c1.612-0.503,3.328,0.397,3.83,2.009
		c0.503,1.611-0.396,3.327-2.009,3.83c-0.132,0.041-0.265,0.072-0.397,0.095c0.134,0.216,0.244,0.452,0.323,0.705
		c0.503,1.612-0.396,3.327-2.008,3.83s-3.327-0.396-3.83-2.009c-0.191-0.612-0.18-1.241-0.003-1.812
		c-1.348,0.054-2.619-0.795-3.039-2.145C207.176,711.28,208.076,709.564,209.688,709.062L209.688,709.062z M186.194,673.751
		c-2.312,10.83,2.211,15.053,10.915,15.368c8.18-5.912,4.344-16.006-0.373-18.709c0,0,12.43,6.393,16.776-7.808
		c-3.01-9.72-13.035-11.429-17.427-6.002c0.715-2.518,4.687-7.999-4.312-15.006c-12.909,2.219-11.498,9.744-11.047,13.069
		c-4.021-4.624-10.51-2.722-15.099,0.262c-0.314,4.485,1.436,11.932,7.607,12.071c-3.879,3.325-5.474,11.323-1.574,17.837
		C175.42,682.31,181.348,685.835,186.194,673.751L186.194,673.751z M187.335,669.786c1.143-0.155,2.027-0.986,2.303-2.036
		c0.577,0.486,1.349,0.735,2.154,0.627c1.514-0.205,2.574-1.599,2.37-3.111c-0.205-1.514-1.599-2.574-3.111-2.369
		c-0.125,0.017-0.245,0.042-0.362,0.074c0.027-0.228,0.026-0.464-0.006-0.701c-0.205-1.514-1.598-2.575-3.111-2.369
		c-1.513,0.204-2.574,1.598-2.369,3.111c0.078,0.574,0.328,1.085,0.691,1.485c-1.125,0.472-1.841,1.653-1.669,2.92
		C184.429,668.93,185.822,669.991,187.335,669.786L187.335,669.786z"/>
	<path fill-rule="evenodd" clip-rule="evenodd" fill="#E2F4FD" d="M149.952,655.545c-14.192-3.055-19.737,2.865-20.17,14.274
		c7.732,10.736,20.973,5.729,24.527-0.446c0,0-8.407,16.28,10.197,22.009c12.749-3.925,15.011-17.063,7.908-22.833
		c3.297,0.944,10.475,6.162,19.68-5.618c-2.88-16.929-12.748-15.094-17.109-14.511c6.071-5.261,3.591-13.771-0.31-19.793
		c-5.879-0.422-15.644,1.855-15.84,9.946c-4.352-5.094-14.831-7.201-23.378-2.104C138.757,641.403,134.122,649.166,149.952,655.545
		L149.952,655.545z M155.147,657.05c0.201,1.498,1.289,2.659,2.664,3.024c-0.638,0.754-0.967,1.767-0.826,2.822
		c0.265,1.984,2.09,3.379,4.073,3.113c1.984-0.266,3.378-2.09,3.113-4.073c-0.021-0.163-0.054-0.321-0.096-0.476
		c0.299,0.036,0.607,0.037,0.919-0.005c1.984-0.266,3.378-2.09,3.112-4.074c-0.265-1.983-2.089-3.378-4.073-3.112
		c-0.754,0.102-1.424,0.428-1.949,0.902c-0.616-1.475-2.164-2.417-3.825-2.194C156.276,653.242,154.882,655.066,155.147,657.05
		L155.147,657.05z M132.738,703.438c-6.64-9.642-13.168-9.233-19.732-2.777c-1.399,10.577,9.141,14.961,14.642,13.301
		c0,0-13.937,4.906-6.186,18.557c9.652,4.747,18.245-1.713,17.268-9.027c1.413,2.378,2.74,9.409,14.657,7.586
		c7.671-11.528,0.865-15.908-2.017-17.978c6.473,0.27,9.725-6.096,10.765-11.787c-3.217-3.499-10.208-7.562-14.797-2.923
		c0.263-5.396-4.722-12.429-12.558-14.163C133.989,688.947,126.975,690.939,132.738,703.438L132.738,703.438z M134.955,707.194
		c-0.71,0.99-0.714,2.273-0.109,3.248c-0.792,0.09-1.545,0.502-2.046,1.199c-0.942,1.312-0.642,3.139,0.669,4.08
		s3.138,0.642,4.079-0.67c0.078-0.107,0.146-0.218,0.206-0.332c0.155,0.188,0.336,0.357,0.543,0.506
		c1.311,0.941,3.138,0.642,4.08-0.67c0.941-1.311,0.642-3.138-0.67-4.079c-0.498-0.357-1.072-0.537-1.643-0.548
		c0.455-1.207,0.067-2.615-1.031-3.403C137.723,705.584,135.896,705.884,134.955,707.194L134.955,707.194z M109.99,675.248
		c10.522,1.163,12.991,6.538,10.658,14.53c-7.827,5.642-15.831-0.878-16.863-5.971c0,0,2.057,13.202-12.134,12.871
		c-7.913-5.658-6.445-15.268-0.2-17.619c-2.499-0.108-8.668,1.845-12.316-8.429c5.899-11.045,12.302-7.499,15.184-6.089
		c-2.985-5.04,0.694-10.354,4.783-13.62c4.164,1.065,10.393,4.895,8.662,10.536c4.185-2.519,11.921-1.559,16.657,3.941
		C120.999,668.05,122.413,674.489,109.99,675.248L109.99,675.248z M106.049,675.091c-0.484,0.99-1.505,1.541-2.54,1.477
		c0.267,0.669,0.261,1.445-0.081,2.144c-0.642,1.312-2.225,1.854-3.536,1.213c-1.311-0.642-1.854-2.226-1.213-3.537
		c0.053-0.106,0.112-0.209,0.176-0.306c-0.215-0.044-0.428-0.115-0.634-0.216c-1.312-0.642-1.854-2.226-1.213-3.536
		c0.641-1.312,2.225-1.854,3.536-1.213c0.498,0.244,0.886,0.624,1.14,1.074c0.767-0.879,2.055-1.173,3.152-0.636
		C106.147,672.195,106.69,673.779,106.049,675.091L106.049,675.091z"/>
	<path fill-rule="evenodd" clip-rule="evenodd" fill="#6DCFF6" d="M545.365,314.706c15.703-15.072,27.439-11.885,36.975,2.33
		c-1.41,19.786-22.247,23.825-31.644,18.742c0,0,23.545,14.152,4.318,36.11c-19.355,5.03-32.587-9.951-28.068-22.905
		c-3.463,3.801-8.511,16.11-29.532,8.328c-9.654-23.867,4.38-29.296,10.403-31.985c-11.889-1.933-15.427-14.743-15.19-25.498
		c7.17-5.168,21.421-9.95,28.042,0.217c1.541-9.924,13.252-20.866,28.172-21.092C548.514,287.848,560.541,294.102,545.365,314.706
		L545.365,314.706z M539.922,320.717c0.925,2.07,0.449,4.407-1.017,5.956c1.408,0.46,2.625,1.492,3.276,2.951
		c1.224,2.741-0.006,5.956-2.746,7.179c-2.74,1.224-5.955-0.006-7.179-2.747c-0.101-0.224-0.184-0.452-0.251-0.682
		c-0.353,0.282-0.747,0.526-1.178,0.718c-2.74,1.224-5.955-0.006-7.179-2.747s0.007-5.955,2.747-7.178
		c1.041-0.465,2.152-0.576,3.196-0.384c-0.375-2.368,0.857-4.787,3.151-5.812C535.484,316.747,538.699,317.977,539.922,320.717
		L539.922,320.717z"/>
	<path fill-rule="evenodd" clip-rule="evenodd" fill="#00C0F3" d="M581.306,385.242c-12.646-17.715-24.77-16.751-36.768-4.544
		c-2.271,19.706,17.461,27.526,27.635,24.268c0,0-25.755,9.558-10.918,34.69c18.093,8.521,33.865-3.757,31.817-17.323
		c2.304,3.731,4.599,13.754,18.928,14.291v-63.979c-1.308,0.642-2.556,1.543-3.713,2.754c0.319-10.038-9.168-22.956-23.789-25.935
		C583.176,358.265,570.2,362.188,581.306,385.242L581.306,385.242z M585.545,392.156c-1.291,1.863-1.257,4.248-0.102,6.041
		c-1.469,0.192-2.855,0.981-3.765,2.295c-1.71,2.468-1.096,5.854,1.371,7.562s5.854,1.095,7.563-1.372
		c0.14-0.202,0.264-0.411,0.372-0.624c0.294,0.342,0.637,0.654,1.024,0.923c2.468,1.709,5.854,1.095,7.563-1.373
		c1.708-2.467,1.094-5.854-1.373-7.562c-0.938-0.649-2.01-0.965-3.071-0.969c0.807-2.257,0.043-4.863-2.022-6.294
		C590.64,389.074,587.253,389.689,585.545,392.156L585.545,392.156z"/>
	<path fill-rule="evenodd" clip-rule="evenodd" fill="#00A1E4" d="M566.152,295.211c-0.374,1.644-1.701,2.824-3.266,3.09
		c0.634,0.903,0.896,2.061,0.633,3.219c-0.496,2.178-2.664,3.542-4.841,3.046c-2.178-0.495-3.541-2.663-3.045-4.84
		c0.04-0.178,0.093-0.351,0.155-0.518c-0.336,0.01-0.68-0.021-1.021-0.099c-2.178-0.496-3.541-2.663-3.046-4.841
		c0.496-2.177,2.663-3.541,4.841-3.045c0.828,0.188,1.538,0.619,2.073,1.2c0.834-1.577,2.649-2.466,4.472-2.052
		C565.283,290.867,566.648,293.035,566.152,295.211L566.152,295.211z M572.077,294.065c16.076-1.957,21.637,5.181,20.964,17.9
		c-9.678,11.145-23.881,4.242-27.203-2.979c0,0,7.691,18.938-13.558,23.418c-13.766-5.651-14.949-20.476-6.474-26.167
		c-3.759,0.715-12.261,5.786-21.295-8.233c4.914-18.515,15.69-15.478,20.477-14.389c-6.213-6.459-2.597-15.663,2.347-21.958
		c6.574,0.126,17.191,3.645,16.592,12.653c5.35-5.218,17.206-6.499,26.186,0.03C585.946,279.487,590.31,288.581,572.077,294.065
		L572.077,294.065z"/>
	<path d="M383.503,611.878c12.311-15.622,35.224-30.261,54.258-36.923c15.571-5.449,32.841-8.482,50.56-7.156l0.001,0.001
		l0.013,0.002c3.964,0.51,7.788,1.205,11.456,2.086c3.682,0.885,7.273,1.967,10.763,3.248c17.181,6.309,31.655,17.394,41.492,33.788
		c1.743,2.903,3.006,6.045,4.204,9.157c1.232,3.199,2.242,6.433,3.013,9.678c4.716,19.861,0.346,42.377-14.332,56.945
		c-1.977,1.962-4.107,3.785-6.367,5.434c-11.299,8.241-25.312,11.679-38.727,5.754c-0.833-0.442-1.639-0.916-2.409-1.422
		c-0.76-0.499-1.477-1.024-2.142-1.575c-3.123-2.584-5.342-6.159-5.893-10.894c-0.061-2.127,0.22-4.136,0.956-5.931
		c0.757-1.848,2.001-3.485,3.856-4.813l-5.24-6.008c-2.146,1.537-3.601,3.466-4.501,5.663c-0.91,2.222-1.249,4.706-1.161,7.329
		l0.013,0.18c0.852,7.597,4.912,13.754,10.721,18.562c1.075,0.89,2.202,1.718,3.368,2.483c14.132,9.281,33.002,6.449,46.409-3.33
		c2.294-1.674,4.492-3.559,6.565-5.617c15.467-15.352,19.828-38.923,14.824-59.993c-0.857-3.611-1.972-7.188-3.328-10.706
		c-1.424-3.697-3.015-7.499-5.059-10.896c-11.718-19.479-28.49-32.574-48.278-39.84c-3.71-1.362-7.546-2.517-11.493-3.465
		c-3.96-0.951-7.97-1.687-12.017-2.207l-0.013-0.002l-0.108-0.007c-14.28-1.082-27.827,0.464-40.496,4.367
		c-23.273,7.17-43.447,22.354-57.869,41.87c-0.585,0.791-1.09,1.483-1.518,2.08c-0.586,0.818-1.087,1.525-1.492,2.107
		L383.503,611.878L383.503,611.878z"/>
	<path fill-rule="evenodd" clip-rule="evenodd" fill="#EF4223" d="M430.589,536.625c-94.529,29.887-27.13-55.01-4.69-42.516
		c0,0,34.992-30.032,62.457-38.777c-11.459,10.111-56.47,48.166-67.089,62.64c14.838-6.742,32.796-11.134,40.933,3.71
		c23.411,42.703-52.196,58.32-68.311,81.284c-6.186,8.815-22.585,27.946-48.919,40.383c-45.352,21.416-81.398,7.409-128.354,51.769
		c3.615-8.561,7.693-13.426,7.312-21.174c-2.995,3.642-6.431,5.195-11.163,3.098c19.26-29.2,46.47-35.129,65.235-66.016
		c-28.906,14.935-69.665-32.385-52.354-42.35c0,0-33.589-45.097-14.458-47.208c0,0-17.201-21.043-4.638-25.731
		c0,0-13.014-22.605,2.259-20.375c0,0-12.935-26.891,9.235-19.305c0,0-20.605-31.377,8.28-18.754c0,0-21.993-38.208,10.884-16.439
		c0,0-10.792-40.84,13.229-10.157c0,0-10.951-47.744,15.976-5.383c0,0-13.293-54.023,20.204-9.085c0,0-10.964-52.187,21.07,5.674
		c-5.789-17.063-1.076-35.016,14.356,0.639c15.432,35.655,40.948,66.72,44.158,87.762c2.913,19.092-19.42,55.335,13.153,57.795
		C396.476,549.399,416.816,546.499,430.589,536.625L430.589,536.625z"/>
	<path fill-rule="evenodd" clip-rule="evenodd" fill="#FFCB05" d="M415.599,497.997c2.766-1.592,5.595-1.864,6.318-0.606
		c0.724,1.257-0.932,3.567-3.697,5.159s-5.595,1.863-6.318,0.606C411.178,501.898,412.833,499.589,415.599,497.997L415.599,497.997z
		"/>
	<path fill-rule="evenodd" clip-rule="evenodd" fill="#F99D1C" d="M362.253,557.819c-25.913-5.549-26.67-25.289-27.936-44.112
		c0,0-0.348,5.287-4.246,11.77c0,0,1.681-16.227-6.017-29.599c0,0,2.352,16.774-2.839,24.523c0,0-4.038-22.196-12.404-31.857
		c0,0,6.896,23.877,2.833,31.432c0,0-9.802-22.92-18.5-29.195c0,0,11.145,21.627,10.859,33.594
		c-6.566-10.349-12.799-21.479-22.784-29.272c0,0,12.15,20.655,15.374,33.733c0,0-16.829-21.419-26.103-25.86
		c0,0,16.249,22.338,20.43,34.018c0,0-17.364-15.438-31.14-20.225c0,0,21.467,16.336,25.625,25.485c0,0-19.085-14.122-27.961-14.815
		c0,0,22.056,16.453,27.415,24.064c0,0-23.095-12.14-29.925-10.751c0,0,22.396,10.585,26.664,16.866c0,0-18.062-5.32-25.894-3.746
		c0,0,18.697,4.499,24.735,12.043c0,0-19.699-4.768-24.523-2.838c7.454,1.537,14.944,3.983,22.168,7.585
		c0,0-7.93-0.522-19.584,2.796c0,0,18.957,0.532,23.982,4.846c0,0-17.791,0.756-25.258,2.512c0,0,23.903,1.023,29.561,3.489
		c0,0-20.318,1.522-26.686,5.188c0,0,22.916-1.428,27.296,0.29c0,0-21.406,5.902-27.817,10.229c0,0,23.358-5.814,29.581-4.946
		c-5.966,10.14-8.197,26.55-17.813,37.171c11.458-5.944,19.654-24.092,26.89-31.336c6.652-6.659,9.524,0.174,6.001,7.104
		c0,0,8.059-4.78,9.669-11.925c0,0,0.434,7.382-2.216,12.722c0,0,7.021-6.092,9.38-16.845c0,0,2.026,11.591-4.098,22.706
		c0,0,9.206-7.851,9.652-23.855c0,0,2.429,10.992-0.912,21.366c0,0,9.226-16.409,10.032-26.757c0,0,2.154,11.478-0.146,18.524
		c0,0,8.699-15.816,8.671-24.702c0,0,2.129,4.902,1.33,10.043C355.648,579.11,348.103,569.57,362.253,557.819L362.253,557.819z"/>
	<path fill-rule="evenodd" clip-rule="evenodd" fill="#FFF9AE" d="M292.803,677.019c10.557-12.641,19.648-11.218,28.002-1.319
		c0.582,14.998-14.753,19.766-22.243,16.725c0,0,18.884,8.688,6.248,26.8c-14.139,5.392-25.334-4.776-23.012-14.896
		c-2.289,3.146-5.063,12.824-21.52,8.718c-9.243-17.148,0.861-22.397,5.167-24.92c-9.101-0.466-12.826-9.807-13.542-17.915
		c4.962-4.482,15.283-9.263,21.108-2.167c0.335-7.591,8.233-16.794,19.436-18.203C292.939,656.558,302.504,660.262,292.803,677.019
		L292.803,677.019z M289.208,681.992c0.867,1.479,0.704,3.276-0.27,4.562c1.097,0.229,2.098,0.905,2.709,1.948
		c1.148,1.959,0.49,4.479-1.469,5.627c-1.959,1.148-4.479,0.49-5.627-1.469c-0.094-0.161-0.176-0.325-0.246-0.492
		c-0.242,0.241-0.518,0.457-0.826,0.637c-1.959,1.148-4.48,0.49-5.628-1.47c-1.147-1.958-0.489-4.479,1.47-5.626
		c0.744-0.437,1.571-0.612,2.372-0.555c-0.479-1.749,0.248-3.671,1.888-4.633C285.54,679.375,288.061,680.033,289.208,681.992
		L289.208,681.992z M400.401,668.792c-6.842-11.384-3.356-17.935,6.392-21.684c11.581,3.52,11.162,16.463,6.866,21.365
		c0,0,11.608-12.092,22.068,2.32c0.372,12.197-10.332,18.04-17.428,13.598c1.792,2.575,8.433,7.245,0.956,18.698
		c-15.507,2.512-16.837-6.573-17.621-10.521c-2.76,6.812-10.86,7.182-17.227,5.585c-2.104-4.965-3.02-14.091,3.926-16.654
		c-5.695-2.261-10.62-10.71-8.733-19.617C384.848,663.282,390.197,656.973,400.401,668.792L400.401,668.792z M403.24,672.844
		c1.355-0.27,2.683,0.33,3.405,1.412c0.465-0.775,1.243-1.359,2.199-1.55c1.797-0.357,3.542,0.811,3.899,2.605
		c0.357,1.797-0.81,3.543-2.606,3.899c-0.147,0.029-0.294,0.048-0.439,0.057c0.12,0.249,0.212,0.516,0.268,0.798
		c0.357,1.796-0.811,3.543-2.606,3.899s-3.542-0.811-3.898-2.606c-0.136-0.682-0.051-1.359,0.204-1.954
		c-1.459-0.097-2.731-1.158-3.03-2.661C400.277,674.947,401.444,673.201,403.24,672.844L403.24,672.844z M295.667,742.238
		c0-12.011,5.753-15.464,15.055-13.828c7.337,8.122,0.982,17.959-4.631,19.758c0,0,14.63-3.965,16.024,12.078
		c-5.394,9.628-16.413,9.17-19.843,2.421c0.19,2.832,3.161,9.545-7.969,14.938c-13.189-5.276-9.988-12.938-8.757-16.363
		c-5.312,3.994-11.763,0.508-15.954-3.696c0.683-4.828,4.224-12.328,10.801-11.079c-3.361-4.405-3.242-13.248,2.37-19.273
		C286.178,730.722,293.263,728.324,295.667,742.238L295.667,742.238z M295.979,746.701c1.176,0.423,1.926,1.505,1.981,2.681
		c0.722-0.385,1.598-0.475,2.427-0.177c1.559,0.561,2.368,2.278,1.808,3.836c-0.56,1.56-2.278,2.369-3.836,1.809
		c-0.128-0.046-0.25-0.1-0.368-0.16c-0.022,0.248-0.076,0.497-0.164,0.742c-0.56,1.559-2.278,2.368-3.837,1.809
		c-1.558-0.561-2.368-2.278-1.808-3.836c0.213-0.593,0.594-1.077,1.069-1.42c-1.086-0.755-1.578-2.17-1.109-3.475
		C292.703,746.951,294.421,746.142,295.979,746.701L295.979,746.701z M409.613,731.612c-12.152-5.357-18.213-1.076-20.708,9.065
		c4.945,11.047,17.733,9.006,22.058,4.128c0,0-10.539,13.035,5.073,21.604c12.147-1.163,16.6-12.517,11.301-18.998
		c2.78,1.455,8.248,7.456,18.671-1.399c0.544-15.7-8.636-15.878-12.65-16.161c6.411-3.593,5.762-11.676,3.378-17.791
		c-5.19-1.464-14.359-1.227-16.029,5.986c-2.959-5.366-11.959-9.19-20.559-6.201C402.194,716.874,396.606,722.974,409.613,731.612
		L409.613,731.612z M413.99,733.921c-0.097,1.379,0.663,2.62,1.828,3.2c-0.711,0.559-1.192,1.404-1.261,2.377
		c-0.129,1.827,1.248,3.413,3.075,3.541c1.826,0.129,3.412-1.248,3.54-3.075c0.011-0.149,0.011-0.298,0.001-0.443
		c0.262,0.088,0.538,0.146,0.825,0.166c1.827,0.128,3.412-1.249,3.541-3.076c0.129-1.826-1.248-3.412-3.075-3.54
		c-0.694-0.049-1.354,0.12-1.912,0.448c-0.279-1.436-1.492-2.565-3.021-2.673C415.704,730.717,414.118,732.094,413.99,733.921
		L413.99,733.921z M345.095,590.219c-6.394-11.9-13.934-12.261-22.28-5.688c-2.947,11.954,8.586,18.319,15.106,17.113
		c0,0-16.608,3.86-9.449,20.5c10.469,6.669,21.146,0.35,20.951-8.164c1.319,2.906,1.948,11.141,15.85,10.561
		c10.261-12.25,3.011-18.137-0.033-20.876c7.39,1.13,11.927-5.759,13.843-12.155c-3.246-4.422-10.749-9.969-16.603-5.229
		c0.986-6.155-3.839-14.854-12.607-17.839C348.367,573.757,340.069,575.152,345.095,590.219L345.095,590.219z M347.16,594.809
		c-0.94,1.046-1.106,2.517-0.537,3.712c-0.919,0.003-1.835,0.38-2.498,1.117c-1.246,1.384-1.135,3.518,0.25,4.764
		s3.519,1.134,4.765-0.25c0.102-0.113,0.194-0.233,0.277-0.355c0.155,0.234,0.341,0.453,0.559,0.649
		c1.385,1.246,3.519,1.134,4.765-0.251c1.246-1.384,1.134-3.518-0.251-4.764c-0.525-0.474-1.161-0.752-1.814-0.838
		c0.674-1.326,0.408-2.99-0.75-4.034C350.54,593.312,348.407,593.425,347.16,594.809L347.16,594.809z M344.256,721.274
		c-16.195,4.657-23.084-1.762-24.486-14.94c8.107-13.044,23.838-8.29,28.44-1.417c0,0-11.021-18.193,10.075-26.295
		c15.074,3.54,18.73,18.577,10.959,25.819c3.745-1.353,11.646-7.963,23.237,4.955c-2.002,19.833-13.574,18.486-18.671,18.155
		c7.446,5.614,5.246,15.666,1.203,22.948c-6.776,0.952-18.264-0.915-19.131-10.27c-4.638,6.242-16.608,9.511-26.91,4.28
		C332.406,738.537,326.426,729.912,344.256,721.274L344.256,721.274z M350.154,719.121c0.114-1.751,1.283-3.181,2.847-3.712
		c-0.799-0.823-1.26-1.97-1.18-3.204c0.151-2.318,2.154-4.077,4.473-3.927c2.318,0.151,4.077,2.154,3.926,4.473
		c-0.012,0.19-0.037,0.376-0.074,0.558c0.344-0.065,0.701-0.09,1.065-0.066c2.319,0.15,4.077,2.154,3.927,4.473
		c-0.151,2.318-2.153,4.076-4.473,3.926c-0.881-0.058-1.683-0.383-2.328-0.892c-0.598,1.758-2.315,2.971-4.257,2.845
		C351.762,723.442,350.004,721.439,350.154,719.121L350.154,719.121z"/>
	<path d="M208.011,724.22l-0.002,0.002l0.001,0.001c-0.723,0.803-1.417,1.562-2.082,2.275c-0.731,0.786-1.44,1.536-2.124,2.248
		c-8.156,8.488-15.906,14.93-26.05,21.035c-4.98,2.998-10.093,5.641-15.32,7.916c-26.633,11.595-55.738,13.346-85.131,3.773
		c-7.759-3.046-15.25-6.816-22.214-11.407c-20.915-13.786-36.496-35.301-41.65-59.85c-0.925-4.405-1.556-8.779-1.886-13.104
		c-2.1-27.486,8.154-55.402,29.056-73.329c3.375-2.895,6.914-5.499,10.592-7.79c22.19-13.824,51.127-16.28,73.419-2.699
		c3.078,1.876,5.958,3.98,8.597,6.287c16.122,14.084,22.965,37.75,14.157,57.407c-1.109,2.474-2.43,4.862-3.946,7.125
		c-7.652,11.414-19.981,18.926-34.67,16.611c-1.063-0.167-2.069-0.524-3.054-0.857c-1.012-0.343-1.944-0.714-2.783-1.113
		c-5.976-2.847-9.693-8.509-8.414-15.13c0.675-3.491,2.84-6.637,6.407-7.601c2.609-0.705,5.018,0.331,7.602-0.114
		c0.839-0.146,1.638-0.414,2.462-0.814l-4.966-6.176c-3.119,1.518-6.448-0.092-9.672,0.779c-4.377,1.184-7.046,4.957-7.878,9.257
		c-2.122,10.97,6.361,21.061,15.753,25.535c1.241,0.591,2.475,1.093,3.695,1.505c1.225,0.415,2.482,0.77,3.763,1.055l0.008,0.001
		l0.172,0.032c15.88,2.946,29.182-5.358,37.276-17.433c1.549-2.312,2.924-4.807,4.104-7.44c10.305-22.999,0.141-50.198-18.46-66.448
		c-3.236-2.828-6.751-5.399-10.497-7.681c-16.272-9.914-50.367-15.498-78.207,1.846c-3.756,2.34-7.373,5.001-10.823,7.961
		C13.68,616.381,3.299,644.94,5.476,673.446c0.352,4.611,1.015,9.227,1.98,13.825c5.869,27.954,23.562,51.937,47.609,67.788
		c7.599,5.01,15.756,9.136,24.227,12.453l-0.001-0.003l0.204,0.076c30.483,9.95,60.5,8.218,87.816-3.675
		c5.269-2.294,10.459-4.979,15.549-8.043c10.691-6.434,17.868-12.434,26.424-21.338c0.75-0.78,1.466-1.536,2.146-2.269
		c0.745-0.801,1.451-1.57,2.114-2.307l0.011-0.011l0.001-0.002l-3.254-3.356l-2.285-2.375L208.011,724.22L208.011,724.22
		L208.011,724.22z"/>
	<path d="M532.732,584.646l0.005,0.002l0.075,0.038c0.191,0.094,0.575,0.276,1.164,0.555l0.011,0.011
		c0.258,0.122,0.64,0.298,1.17,0.537c1.983,0.896,4.013,1.715,6.079,2.453l0.199,0.071l0.01,0.003
		c2.393,0.699,4.79,1.245,7.182,1.634c2.368,0.386,4.72,0.614,7.047,0.685c13.798,0.416,27.701-5.049,36.717-15.503
		c1.137-1.318,2.187-2.675,3.145-4.066c4.949-7.188,7.589-15.468,7.654-24.84l-0.002-0.125l-0.002-0.033
		c-0.104-2.019-0.318-3.946-0.639-5.774c-0.333-1.893-0.791-3.771-1.374-5.625c-2.663-8.472-7.707-15.814-15.113-21.407
		c-4.716-3.562-10.109-5.964-15.925-6.997c-10.887-1.936-22.553,1.73-29.173,10.563c-0.97,1.293-1.823,2.658-2.548,4.076
		c-5.062,9.908-2.809,21.742,4.896,29.199c1.11,1.076,2.287,2.042,3.509,2.878c5.559,3.804,12.347,5.049,18.238,1.565l0.06-0.034
		l0.036-0.024c0.371-0.257,0.766-0.563,1.181-0.921c0.387-0.332,0.742-0.673,1.061-1.021c3.341-3.64,3.471-8.241,0.915-12.217
		c-1.123-1.746-2.58-3.175-4.284-4.118c-1.273-0.706-2.601-1.045-3.89-0.895c-0.814,0.096-1.641,0.379-2.447,0.89
		c-0.185,0.099-0.352,0.163-0.51,0.197c-0.147,0.031-0.287,0.04-0.428,0.03l3.522,6.402c0.498,0.037,0.938,0.016,1.349-0.072
		c0.887-0.188,1.516-0.782,2.368-0.998c-0.014,1.927-0.816,3.616-2.111,5.027c-0.29,0.315-0.593,0.609-0.906,0.878
		c-0.283,0.244-0.631,0.508-1.037,0.788l-0.036,0.024l0.001,0.001c-4.57,2.672-9.286,2.069-12.867-0.38
		c-0.559-0.382-1.074-0.803-1.538-1.252c-5.384-5.215-4.346-14.558-1.254-20.61c0.667-1.305,1.461-2.571,2.369-3.784
		c6.076-8.105,16.721-11.608,26.605-9.852c3.998,0.711,7.898,2.138,11.204,4.517c5.354,3.854,9.014,9.114,10.954,15.286
		c0.998,3.177,1.553,6.521,1.727,9.844c-0.073,8.712-2.57,16.466-7.245,23.255c-0.927,1.346-1.936,2.649-3.023,3.911
		c-8.563,9.929-21.763,15.197-34.852,14.803c-2.156-0.065-4.328-0.276-6.507-0.631c-2.154-0.351-4.328-0.847-6.514-1.484
		l-0.011-0.003c-1.762-0.635-3.519-1.348-5.269-2.139c-0.208-0.095-0.564-0.261-1.041-0.485l0.002,0.007
		c-0.151-0.071-0.498-0.239-1.026-0.499l0.563,2.678L532.732,584.646L532.732,584.646z"/>
	<path d="M388.646,792h-9.413c0.73-0.984,1.437-1.99,2.117-3.019c2.26-3.412,4.234-7.047,5.903-10.854
		c1.668-3.804,3.042-7.806,4.102-11.955c6.139-24.068-2.47-50.971-19.207-68.821c-2.967-3.164-6.231-6.146-9.767-8.923
		c-27.383-21.51-65.458-22.983-96.562-9.723c-26.563,11.324-47.12,33.715-58.032,60.516c-1.73,4.248-3.237,8.627-4.522,13.13
		c-3.689,12.933-4.975,26.355-4.064,39.649h-5.741c-1.475-14.894-0.322-30.002,3.83-44.553c1.314-4.606,2.848-9.066,4.602-13.374
		c11.245-27.617,31.957-50.035,59.06-61.592c33.512-14.289,73.125-11.354,102.379,11.624c4.145,3.256,8.003,6.784,11.543,10.559
		c18.553,19.787,29.358,49.408,22.489,76.338c-1.087,4.259-2.507,8.389-4.237,12.337C391.806,786.351,390.308,789.246,388.646,792
		L388.646,792z M294.377,792h-5.188c-1.474-3.998-2.367-8.341-2.564-13.006l-0.003-0.146l0.002-0.067
		c0.036-1.34,0.143-2.695,0.324-4.059c0.182-1.37,0.428-2.672,0.741-3.895c1.655-6.476,5.296-12.075,11.47-15.764l0.066-0.039
		c2.794-1.385,5.791-2.101,8.64-2.114c2.66-0.014,5.293,0.598,7.661,1.856c3.092,1.644,5.659,4.163,7.359,7.592
		c1.058,2.133,1.668,4.566,1.692,7.279c0.05,0.542,0.143,0.987,0.288,1.364c0.083,0.217,0.188,0.402,0.316,0.573l-3.815,1.396
		c-0.944-1.246-1.643-2.448-2.128-3.708c-0.416-1.08-0.658-2.173-0.755-3.364l-0.007-0.162c-0.01-1.792-0.304-3.185-0.814-4.215
		c-0.259-0.523-0.69-0.929-1.229-1.215c-1.262-0.671-2.896-0.995-4.733-0.986c-2.428,0.013-5.027,0.645-7.498,1.869
		c-5.654,3.401-8.988,8.536-10.505,14.468c-0.307,1.199-0.536,2.385-0.69,3.55c-0.156,1.173-0.25,2.403-0.284,3.682v0.004
		C292.868,786.146,293.441,789.185,294.377,792L294.377,792z"/>
	<path d="M529.207,337.876l-0.005-0.001l0.001,0.001c-1.151-0.407-2.222-0.793-3.214-1.16c-1.117-0.412-2.19-0.817-3.22-1.215
		c-16.997-6.559-32.621-15.762-46.324-27.758c-27.371-23.962-45.346-58.561-46.521-94.969c-0.169-5.232-0.04-10.442,0.396-15.617
		c2.704-32.174,17.614-62.245,43.278-81.2c25.879-19.115,62.857-26.933,92.144-10.114c3.119,1.791,6.064,3.78,8.785,5.948
		c12.521,9.976,20.897,24.467,20.111,41.72c-0.229,5.009-1.282,9.47-3.354,14.072c-4.169,9.26-13.487,18.041-24.329,16.726
		c-2.296-0.278-4.389-1.071-6.171-2.516l-1.132,4.192c3.434,2.784,7.007,4.254,10.631,4.693
		c11.993,1.456,22.139-7.383,26.861-17.873c2.621-5.82,3.663-11.24,3.662-17.637c-0.002-19.126-10.278-35.709-25.254-47.641
		c-3.295-2.625-6.787-4.991-10.42-7.077c-30.896-17.744-69.289-10.801-96.796,9.519c-26.152,19.313-41.375,50.297-44.112,82.863
		c-0.441,5.251-0.57,10.618-0.394,16.083c1.273,39.506,21.355,76.64,51.035,102.624c14.784,12.943,31.472,22.895,49.819,29.976
		c1.141,0.439,2.247,0.858,3.317,1.253c1.186,0.438,2.302,0.842,3.342,1.209l0.032,0.013l0.005,0.002l-1.252-3.521l-0.896-2.583
		l-0.026-0.01L529.207,337.876L529.207,337.876z"/>
	<path fill-rule="evenodd" clip-rule="evenodd" fill="#007BC1" d="M535.155,426.262c0.315,1.521,1.799,2.501,3.32,2.189
		c1.521-0.313,2.501-1.8,2.188-3.319c-0.31-1.521-1.796-2.501-3.317-2.189C535.826,423.255,534.846,424.741,535.155,426.262
		L535.155,426.262z M534.367,427.251c0.537,2.625,3.104,4.317,5.73,3.778c2.625-0.54,4.316-3.106,3.779-5.729
		c-0.541-2.627-3.105-4.319-5.731-3.781C535.521,422.059,533.828,424.623,534.367,427.251L534.367,427.251z M531.551,405.916
		c-3.744,6.163-6.857,15.053,1.985,23.727c-3.488-11.848,13.801-13.734,11.615,0.663
		C554.364,419.412,543.122,408.88,531.551,405.916L531.551,405.916z M579.049,498.943c-1.188,2.013-3.785,2.678-5.795,1.488
		c-2.013-1.188-2.679-3.785-1.489-5.796c1.188-2.009,3.784-2.676,5.797-1.488C579.572,494.334,580.238,496.932,579.049,498.943
		L579.049,498.943z M579.691,500.738c-2.054,3.473-6.537,4.625-10.008,2.572c-3.473-2.055-4.625-6.536-2.572-10.01
		c2.055-3.473,6.535-4.624,10.009-2.57C580.591,492.784,581.744,497.266,579.691,500.738L579.691,500.738z M594.15,471.757
		c2.311,10.607,2.385,24.78-14.454,32.795c10.772-15.154-12.908-26.312-16.852-4.75C555.072,479.786,576.231,470.303,594.15,471.757
		L594.15,471.757z M510.501,475.085c-0.418-2.3,1.109-4.503,3.405-4.921c2.3-0.42,4.505,1.107,4.923,3.407
		c0.414,2.299-1.109,4.502-3.408,4.92C513.123,478.908,510.917,477.383,510.501,475.085L510.501,475.085z M508.843,474.146
		c-0.723-3.968,1.912-7.772,5.881-8.493s7.773,1.913,8.495,5.882c0.722,3.97-1.913,7.774-5.883,8.496
		C513.368,480.751,509.563,478.116,508.843,474.146L508.843,474.146z M516.884,505.522c-8.691-6.508-18.026-17.173-10.544-34.254
		c1.778,18.506,26.982,11.44,15.847-7.44C541.168,473.87,531.379,494.891,516.884,505.522L516.884,505.522z M477.864,559.407
		c8.798-3.968,17.35-8.459,25.614-13.439c7.697-5.281,15.082-11.005,22.097-17.166c6.407-6.325,12.447-13.016,18.055-20.06
		c4.987-7.078,9.568-14.434,13.669-22.057c10.071-21.758,15.269-45.043,14.074-69.061c-3.611-32.407-18.034-61.856-46.149-79.728
		c-22.509-12.217-57.312-15.919-73.525,8.177c-6.06,9.002-6.782,19.473-3.052,31.202c-1.482-9.786-1.534-18.379,5.137-26.674
		c8.497-10.565,24.247-15.016,38.429-12.765c38.994,6.191,59.685,45.139,63.978,81.074c1.239,21.442-2.703,42.52-10.369,62.509
		c-2.416,5.368-5.021,10.499-7.838,15.46c6.363-16.87,5.86-35.854-1.265-52.462c-7.387-14.672-19.362-26.054-35.772-29.565
		c-9.624-1.371-19.471,0.2-26.733,6.441c-8.015,6.885-9.679,18.011-2.53,25.586c-6.599-11.929,0.383-23.562,13.661-26.268
		c19.506-3.89,36.1,10.856,44.432,27.073C550.736,495.515,514.498,534.982,477.864,559.407L477.864,559.407z"/>
	<path fill-rule="evenodd" clip-rule="evenodd" fill="#FFFFFF" d="M475.957,222.507c-0.343,0.923-1.367,1.396-2.291,1.055
		c-0.924-0.342-1.396-1.369-1.053-2.291c0.34-0.924,1.366-1.396,2.29-1.054C475.825,220.559,476.297,221.584,475.957,222.507
		L475.957,222.507z M476.357,223.204c-0.589,1.594-2.36,2.409-3.955,1.819s-2.409-2.361-1.82-3.954
		c0.591-1.595,2.361-2.41,3.956-1.821C476.132,219.838,476.946,221.607,476.357,223.204L476.357,223.204z M480.169,210.098
		c1.756,4.223,2.854,10.095-3.521,14.685c3.323-7.094-7.335-9.935-7.346-0.699C464.572,216.371,472.63,210.846,480.169,210.098
		L480.169,210.098z M441.468,263.865c0.552,1.375,2.116,2.041,3.489,1.489c1.376-0.552,2.043-2.116,1.49-3.491
		c-0.553-1.374-2.115-2.041-3.491-1.489C441.581,260.924,440.915,262.489,441.468,263.865L441.468,263.865z M440.893,264.928
		c0.954,2.374,3.654,3.527,6.027,2.572c2.375-0.954,3.526-3.653,2.572-6.028c-0.955-2.375-3.652-3.526-6.027-2.572
		C441.092,259.855,439.938,262.554,440.893,264.928L440.893,264.928z M434.607,245.372c-2.466,6.428-3.872,15.307,5.916,21.947
		c-5.3-10.534,10.616-15.258,11.021-1.362C458.337,254.154,445.981,246.179,434.607,245.372L434.607,245.372z M486.731,255.481
		c0.482-1.402-0.264-2.929-1.663-3.412c-1.402-0.483-2.931,0.262-3.413,1.664c-0.48,1.401,0.264,2.929,1.664,3.411
		C484.721,257.627,486.25,256.883,486.731,255.481L486.731,255.481z M487.861,255.052c0.833-2.418-0.454-5.056-2.873-5.888
		c-2.419-0.833-5.057,0.453-5.89,2.873c-0.834,2.419,0.453,5.057,2.873,5.89C484.391,258.759,487.028,257.472,487.861,255.052
		L487.861,255.052z M479.81,273.952c6.073-3.246,12.949-9.037,9.896-20.463c-2.89,11.432-18.014,4.584-9.222-6.185
		C467.621,251.778,471.742,265.896,479.81,273.952L479.81,273.952z M499.104,311.477c-5.136-3.331-10.066-6.967-14.771-10.882
		c-4.318-4.05-8.399-8.347-12.206-12.882c-3.41-4.58-6.556-9.354-9.396-14.308c-2.447-4.916-4.613-9.966-6.454-15.139
		c-4.226-14.606-5.251-29.703-2.198-44.646c5.372-19.971,17.239-37.05,36.58-45.558c15.283-5.5,37.458-4.483,45.312,12.179
		c2.936,6.225,2.384,12.858-1.08,19.854c1.868-5.993,2.725-11.375-0.662-17.215c-4.312-7.439-13.761-11.74-22.867-11.689
		c-25.041,0.141-41.748,22.574-47.887,44.691c-2.834,13.324-2.384,26.917,0.505,40.184c1,3.597,2.141,7.063,3.431,10.444
		c-2.371-11.187-0.235-23.041,5.825-32.769c6.038-8.49,14.638-14.477,25.264-15.104c6.164,0.063,12.188,1.993,16.142,6.603
		c4.364,5.085,4.341,12.22-0.868,16.283c5.281-6.845,2.021-14.808-6.045-17.778c-11.855-4.309-23.674,3.344-30.452,12.711
		C459.546,264.431,478.48,292.65,499.104,311.477L499.104,311.477z"/>
	<path d="M492.931,103.71c0.305-0.079,97.468-24.372,69.423-103.71h-4.988c24.526,74.003-68.682,97.321-68.976,97.397
		L492.931,103.71L492.931,103.71z"/>
	<path d="M516.859,575.201c0.217,0.17,52.64,41.591,95.141,46.131v-6.181c-41.022-2.266-93.999-44.129-94.211-44.295
		L516.859,575.201L516.859,575.201z"/>
	<path fill-rule="evenodd" clip-rule="evenodd" fill="#EF4223" d="M480.947,258.573c39.231,20.031,15.924-22.116,5.174-18.287
		c0,0-13.131-15.727-24.525-21.574c4.28,5.271,21.213,25.249,24.805,32.371c-6.008-4.043-13.555-7.285-18.209-1.377
		c-13.392,16.996,18.595,29.386,23.972,40.631c2.063,4.316,7.847,13.903,18.476,21.285c18.302,12.711,35.126,9.217,52.448,32.101
		c-0.956-4.017-2.387-6.448-1.651-9.815c1.045,1.815,2.438,2.749,4.664,2.176c-6.298-14.208-17.787-18.802-23.744-33.714
		c11.571,8.665,32.904-9.081,26.049-14.718c0,0,18.027-17.298,9.798-19.626c0,0,9.081-7.96,3.92-10.936c0,0,7.361-8.951,0.505-9.094
		c0,0,7.641-10.835-2.631-9.137c0,0,11.331-12.238-2.253-8.826c0,0,12.44-15.13-3.563-8.002c0,0,7.725-17.105-5.052-5.421
		c0,0,8.301-20.119-6.606-3.531c0,0,9.788-22.699-8.188-5.463c0,0,8.633-22.065-9.649,0.941c3.788-7.053,3.04-15.266-6.338-0.773
		s-22.838,26.233-25.788,35.219c-2.677,8.153,4.451,25.673-10.004,24.362C494.959,266.673,486.258,263.91,480.947,258.573
		L480.947,258.573z"/>
	<path fill-rule="evenodd" clip-rule="evenodd" fill="#FFCB05" d="M490.35,242.746c-1.095-0.9-2.315-1.227-2.725-0.729
		c-0.409,0.498,0.146,1.631,1.242,2.532c1.095,0.9,2.315,1.227,2.725,0.729C492.001,244.78,491.444,243.646,490.35,242.746
		L490.35,242.746z"/>
	<path fill-rule="evenodd" clip-rule="evenodd" fill="#F7931E" d="M509.338,272.874c11.763-0.531,13.542-9.125,15.478-17.282
		c0,0-0.235,2.343,0.997,5.469c0,0,0.454-7.234,4.809-12.529c0,0-2.262,7.178-0.555,10.954c0,0,3.396-9.43,7.772-13.05
		c0,0-4.773,9.958-3.548,13.566c0,0,5.977-9.325,10.249-11.437c0,0-6.47,8.66-7.223,13.925c3.636-4.054,7.184-8.474,12.131-11.156
		c0,0-6.84,8.16-9.211,13.655c0,0,8.945-8.152,13.335-9.418c0,0-8.759,8.597-11.447,13.409c0,0,8.741-5.492,15.129-6.579
		c0,0-10.605,5.584-13.099,9.288c0,0,9.399-4.788,13.34-4.441c0,0-10.872,5.592-13.779,8.534c0,0,11.011-3.625,13.902-2.516
		c0,0-10.591,2.996-12.922,5.435c0,0,8.306-1.006,11.622,0.258c0,0-8.523,0.6-11.723,3.463c0,0,8.982-0.644,10.955,0.555
		c-3.38,0.126-6.842,0.649-10.271,1.698c0,0,3.514,0.353,8.377,2.662c0,0-8.346-1.157-10.865,0.364c0,0,7.741,1.637,10.885,2.954
		c0,0-10.55-1.305-13.21-0.64c0,0,8.792,2.158,11.313,4.231c0,0-9.938-2.307-11.982-1.875c0,0,8.947,4.157,11.439,6.523
		c0,0-9.81-4.262-12.6-4.338c1.87,4.881,1.644,12.236,5.079,17.596c-4.586-3.445-6.846-11.999-9.485-15.704
		c-2.426-3.406-4.186-0.623-3.15,2.673c0,0-3.181-2.687-3.362-5.935c0,0-0.731,3.203,0.037,5.737c0,0-2.63-3.185-2.874-8.069
		c0,0-1.738,4.931,0.13,10.25c0,0-3.459-4.115-2.48-11.162c0,0-1.87,4.639-1.167,9.43c0,0-2.84-7.867-2.434-12.461
		c0,0-1.786,4.872-1.295,8.128c0,0-2.651-7.569-1.987-11.461c0,0-1.293,1.992-1.32,4.304
		C510.671,282.688,514.678,279.061,509.338,272.874L509.338,272.874z"/>
</g>
</svg>
