<?xml version="1.0" encoding="UTF-8" ?>
<!DOCTYPE svg PUBLIC "-//W3C//DTD SVG 1.1//EN" "http://www.w3.org/Graphics/SVG/1.1/DTD/svg11.dtd">
<svg width="329pt" height="318pt" viewBox="0 0 329 318" version="1.1" xmlns="http://www.w3.org/2000/svg">
<g id="#ffffffff">
<path fill="#ffffff" opacity="1.00" d=" M 139.02 16.26 C 144.93 14.95 150.99 15.24 156.99 15.31 C 163.43 15.31 169.89 16.28 176.01 18.29 C 181.48 19.97 187.04 21.59 192.10 24.33 C 195.85 26.26 199.07 29.04 202.68 31.20 C 204.13 32.07 205.48 33.15 206.51 34.50 C 210.00 39.15 212.84 44.27 215.22 49.57 C 216.55 52.90 217.83 56.39 217.68 60.03 C 217.61 62.67 216.05 64.89 214.64 66.99 C 213.79 68.97 213.60 71.14 213.07 73.21 C 211.85 74.03 210.40 73.98 209.01 73.83 C 206.97 73.50 205.01 74.35 202.99 74.47 C 199.26 74.73 195.41 75.30 192.05 76.99 L 191.64 78.44 C 193.84 79.00 195.91 77.76 198.05 77.52 C 202.89 76.81 207.77 75.97 212.67 76.03 C 212.27 79.02 212.26 82.07 213.66 84.82 C 210.29 84.75 207.45 82.14 204.01 82.27 C 200.23 82.35 196.49 83.16 192.93 84.40 C 191.77 84.56 191.18 85.63 190.34 86.30 C 186.65 87.18 182.87 87.68 179.08 87.58 C 180.34 86.53 182.71 86.24 182.77 84.28 C 179.77 83.81 177.46 86.23 174.94 87.43 C 173.17 87.82 173.28 90.64 171.54 90.79 C 171.44 89.36 174.52 86.72 170.11 88.19 C 162.36 87.97 154.76 86.24 146.98 86.50 C 142.90 84.82 138.19 84.83 133.99 86.23 C 131.15 87.18 127.95 87.57 125.53 89.48 C 124.53 90.88 126.10 91.35 126.72 92.34 C 123.37 92.46 119.76 92.02 116.68 93.64 C 115.99 94.85 115.52 96.18 115.28 97.55 C 116.02 97.61 116.76 97.67 117.50 97.74 C 117.65 98.82 117.70 99.91 117.67 101.01 C 116.55 103.64 112.05 102.79 112.00 106.15 C 113.60 106.37 115.12 106.72 115.78 108.41 C 119.45 106.80 123.26 108.24 127.04 108.62 C 129.55 109.13 131.46 111.18 134.01 111.61 C 136.02 112.06 138.06 112.45 140.13 112.38 C 140.52 111.87 141.29 110.86 141.68 110.35 C 143.77 110.19 145.87 110.86 147.94 110.47 C 149.56 109.64 151.33 108.91 152.61 107.59 C 153.37 106.46 151.59 104.76 152.98 103.93 C 154.45 103.22 153.69 101.73 153.35 100.57 C 150.52 100.30 147.87 99.20 145.19 98.34 C 148.85 98.07 152.36 100.89 155.91 99.21 C 156.96 96.78 153.10 97.99 153.05 96.08 C 155.36 96.37 157.48 97.59 159.85 97.44 C 158.35 97.53 156.31 98.48 157.71 100.33 C 159.09 100.46 160.47 100.54 161.86 100.58 C 159.77 102.80 157.12 99.73 154.65 100.68 L 154.51 102.23 C 156.53 102.83 158.59 103.27 160.64 103.77 C 160.49 105.65 156.59 104.67 156.60 106.99 C 156.64 107.49 156.72 108.51 156.76 109.01 C 158.57 108.58 160.31 107.83 162.18 107.69 C 162.39 108.09 162.80 108.89 163.01 109.30 C 166.30 110.21 169.92 108.49 173.30 109.58 C 170.77 109.75 168.23 109.68 165.71 109.95 L 165.45 110.86 C 166.73 112.63 167.65 114.70 167.36 116.94 C 167.02 118.22 168.52 118.86 169.48 119.15 C 169.59 117.03 169.49 114.91 169.56 112.79 C 171.75 112.83 172.89 110.95 173.65 109.19 C 175.84 109.15 178.06 109.07 180.23 109.45 C 181.89 110.36 183.30 111.70 185.02 112.50 C 186.66 113.11 186.80 111.21 187.51 110.32 C 190.19 110.63 192.86 111.04 195.53 111.47 C 195.50 112.27 195.44 113.85 195.42 114.64 C 198.66 114.64 202.62 114.67 204.90 111.95 C 203.69 110.43 201.67 111.76 200.12 111.74 C 202.18 111.03 203.84 109.69 205.15 107.96 C 206.10 106.53 210.12 108.80 208.83 105.85 C 207.59 105.28 206.30 104.85 205.04 104.37 C 207.33 102.41 210.86 104.61 212.90 102.09 C 212.38 103.40 212.94 105.63 210.80 105.70 C 213.99 109.11 211.38 114.07 213.04 118.03 C 214.27 121.04 216.96 123.23 217.92 126.38 C 219.41 132.65 218.31 139.56 214.58 144.88 C 210.36 153.71 212.99 163.64 212.27 173.00 C 212.99 179.94 209.85 186.36 209.05 193.14 C 208.47 198.32 208.51 204.09 205.21 208.42 C 201.47 211.90 196.72 214.07 192.04 215.98 C 188.28 217.43 184.88 219.77 180.90 220.64 C 180.03 220.85 178.84 221.25 178.61 222.21 C 179.38 222.73 180.18 223.63 181.21 223.11 C 185.97 221.58 190.22 218.89 194.89 217.12 C 198.06 215.85 201.00 214.11 203.86 212.27 C 201.00 218.99 198.04 225.76 196.65 232.97 C 195.46 238.25 191.16 242.93 192.49 248.62 C 193.82 250.11 195.36 251.41 196.97 252.60 L 197.97 252.00 C 197.79 249.93 195.68 249.02 194.52 247.55 C 194.02 243.55 196.42 239.96 197.75 236.34 C 205.32 242.12 212.81 248.10 221.14 252.78 C 222.11 253.79 222.53 255.36 223.97 255.88 C 228.23 258.35 232.57 260.65 236.82 263.14 C 239.32 264.56 240.84 267.12 243.18 268.75 C 246.64 271.25 249.71 274.23 252.99 276.94 C 256.50 279.91 260.85 281.68 264.21 284.87 C 268.57 288.78 273.35 292.55 276.16 297.80 C 279.65 301.99 284.26 305.05 288.11 308.90 C 291.24 311.79 294.00 315.06 297.10 318.00 L 16.73 318.00 C 18.51 314.21 19.72 309.87 23.31 307.31 C 31.24 300.95 40.38 296.34 49.00 291.01 C 56.40 287.44 62.33 281.56 69.54 277.67 C 71.68 276.49 73.53 274.90 75.47 273.43 C 78.83 270.82 82.51 268.58 85.48 265.50 C 89.68 261.00 95.13 257.87 99.15 253.19 C 100.35 251.07 101.32 248.79 103.03 247.01 C 105.75 244.13 107.23 240.41 109.41 237.16 C 109.97 242.31 111.61 247.25 112.96 252.22 C 114.18 257.52 115.71 263.34 119.92 267.08 C 122.92 268.61 125.87 271.45 129.50 270.63 C 129.49 270.15 129.46 269.18 129.45 268.70 C 126.34 268.53 123.64 266.80 121.12 265.12 C 116.98 261.64 116.30 255.90 114.93 250.99 C 112.87 244.50 110.79 237.82 111.19 230.93 C 110.70 230.30 110.23 229.67 109.77 229.03 C 108.15 216.21 104.23 203.80 102.66 190.98 C 104.01 185.05 103.15 178.96 102.35 173.02 C 99.47 165.27 95.91 157.51 95.95 149.07 C 96.43 148.32 97.39 146.81 97.87 146.06 C 95.56 146.12 93.18 147.28 90.87 146.53 C 88.71 144.73 88.29 141.73 87.69 139.14 C 86.77 133.85 84.76 128.85 82.84 123.87 C 80.68 119.46 81.16 114.37 81.52 109.64 C 82.31 107.68 83.35 105.83 83.95 103.80 C 85.87 102.89 88.08 103.21 90.10 103.44 C 94.27 105.62 96.24 110.37 100.35 112.63 C 100.34 111.97 100.32 110.66 100.31 110.01 C 97.92 107.69 95.93 104.96 93.36 102.83 C 90.68 101.09 87.04 99.65 84.00 101.37 C 81.38 102.39 81.07 105.54 79.88 107.73 C 77.63 111.89 79.02 116.81 79.23 121.17 C 75.73 119.59 75.34 115.27 74.92 111.94 C 74.69 106.88 72.59 102.12 72.62 97.04 C 72.50 90.02 71.45 82.77 73.69 75.97 C 75.04 69.51 75.79 62.75 78.91 56.83 C 80.09 54.49 81.55 52.30 82.91 50.07 C 85.46 46.10 86.51 41.28 89.87 37.82 C 93.82 33.77 97.71 29.37 102.96 26.99 C 108.82 24.06 114.49 20.50 120.96 19.07 C 126.92 17.75 132.90 16.36 139.02 16.26 M 160.58 54.62 C 160.79 55.44 160.13 57.18 161.40 57.35 C 165.86 57.88 170.60 59.37 174.95 57.54 C 175.40 58.53 175.46 59.55 175.13 60.59 C 172.61 60.54 170.09 60.52 167.58 60.62 C 167.58 61.10 167.57 62.04 167.57 62.52 C 170.71 62.88 173.86 62.49 177.01 62.48 C 180.18 62.61 183.07 61.13 186.08 60.35 C 188.25 59.77 189.76 57.69 192.07 57.50 C 194.28 57.20 196.34 56.27 198.59 56.21 C 198.62 55.77 198.67 54.89 198.70 54.45 C 195.80 54.82 193.04 55.85 190.18 56.44 C 185.56 57.07 181.74 60.13 177.00 60.19 C 177.05 59.45 177.16 57.98 177.21 57.24 C 179.19 57.52 181.54 56.72 182.66 55.00 C 181.72 53.32 179.44 54.75 177.99 54.84 C 174.24 56.38 169.99 55.58 166.03 55.69 C 164.08 55.96 162.46 54.74 160.58 54.62 M 103.41 56.52 C 103.42 56.95 103.43 57.82 103.43 58.25 C 106.29 59.35 109.16 60.27 112.17 60.75 C 115.22 61.60 116.86 64.88 119.98 65.66 C 122.66 66.87 125.70 66.58 128.55 66.35 C 128.16 65.25 127.43 64.09 126.04 64.52 C 122.68 64.49 118.17 63.67 117.02 60.00 C 116.17 59.35 115.22 58.66 114.10 58.72 C 110.39 58.59 107.18 56.13 103.41 56.52 M 138.88 58.16 L 138.82 59.09 C 140.92 59.57 142.97 60.25 145.10 60.62 C 147.77 60.73 150.53 59.82 153.13 60.86 C 154.66 61.40 156.33 61.44 157.82 62.17 C 159.16 62.59 160.87 62.80 161.67 61.37 C 159.05 59.72 155.91 59.25 152.97 58.55 C 149.78 58.53 146.29 56.31 143.38 58.43 C 141.88 58.56 140.38 58.12 138.88 58.16 M 212.85 60.49 C 211.41 63.37 210.47 66.61 207.50 68.35 C 204.98 68.38 202.26 67.62 199.98 69.10 C 196.63 70.43 193.39 72.10 189.87 72.95 C 189.68 73.18 189.28 73.65 189.09 73.89 L 189.16 74.85 L 189.83 75.51 C 195.86 73.14 201.90 70.37 208.51 70.27 C 211.13 68.50 213.08 65.93 214.18 62.98 C 214.80 61.78 213.44 61.23 212.85 60.49 M 196.90 61.88 C 194.62 62.75 192.24 63.33 189.86 63.86 C 184.32 65.51 178.87 67.99 172.97 67.66 C 171.75 67.38 170.25 68.00 170.37 69.43 C 172.17 70.45 174.95 70.89 176.76 69.67 C 182.88 69.67 188.09 65.89 194.11 65.33 C 197.43 64.38 200.84 63.41 204.36 63.37 C 204.36 62.90 204.35 61.96 204.35 61.49 C 201.87 61.47 199.33 61.35 196.90 61.88 M 132.39 63.34 C 132.42 63.81 132.48 64.74 132.51 65.21 C 137.87 67.95 143.56 70.62 149.69 70.64 C 149.92 69.20 149.34 68.49 147.95 68.49 C 143.94 67.81 139.89 66.86 136.45 64.57 C 135.31 63.61 133.83 63.37 132.39 63.34 M 151.48 64.45 C 151.49 64.90 151.51 65.78 151.52 66.23 C 156.27 68.35 161.27 70.05 166.51 70.26 C 168.60 69.43 166.78 66.82 165.03 67.57 C 160.22 68.05 156.17 64.58 151.48 64.45 M 109.10 68.98 C 109.06 70.15 110.01 70.93 110.44 71.93 C 112.00 74.76 110.84 78.17 112.37 81.01 C 111.44 83.88 110.15 86.77 107.99 88.94 C 105.39 91.78 104.39 95.59 102.78 99.00 C 102.27 100.49 102.78 101.78 104.13 102.52 C 106.21 98.17 106.78 92.90 110.44 89.43 C 112.34 87.72 112.84 85.11 114.35 83.14 C 114.69 81.40 114.13 79.69 113.59 78.05 C 113.36 74.64 113.53 70.17 110.02 68.33 L 109.10 68.98 M 188.97 69.07 C 181.20 72.32 172.47 74.83 164.09 72.82 C 161.57 72.87 159.25 71.99 156.92 71.18 C 156.35 69.37 155.29 71.85 155.54 72.56 C 157.51 74.93 160.79 74.31 163.38 75.36 C 168.56 75.45 173.91 76.18 178.95 74.66 C 183.42 74.06 187.41 71.88 191.59 70.35 C 191.68 70.00 191.86 69.30 191.94 68.95 L 191.21 68.36 C 190.65 68.54 189.53 68.89 188.97 69.07 M 138.08 69.98 C 138.16 70.38 138.32 71.17 138.40 71.57 C 140.42 73.15 143.18 73.47 145.40 74.77 C 148.39 76.54 151.66 77.84 155.09 78.48 L 155.85 78.08 L 156.01 76.65 C 149.97 75.17 144.61 71.92 138.93 69.52 L 138.08 69.98 M 126.06 71.88 C 125.28 73.82 127.78 74.34 129.07 74.49 C 131.79 74.91 134.28 76.26 137.02 76.57 C 143.93 78.57 150.50 81.50 157.02 84.53 L 158.02 84.11 C 157.92 83.68 157.71 82.83 157.61 82.40 C 154.67 80.82 151.42 79.86 148.42 78.37 C 141.64 74.92 134.03 73.98 126.90 71.52 L 126.06 71.88 M 122.42 76.61 C 121.72 77.02 121.38 77.66 121.41 78.55 C 124.64 78.67 127.94 78.26 131.03 79.44 C 132.14 79.95 132.26 77.11 131.07 77.01 C 128.32 76.14 125.27 76.56 122.42 76.61 M 182.85 75.98 C 175.76 77.79 167.97 78.84 160.87 76.52 C 158.93 76.69 159.03 78.72 160.67 79.20 C 165.26 79.45 169.94 81.46 174.47 79.80 C 178.22 79.18 182.11 78.85 185.57 77.19 L 185.66 75.81 L 184.02 75.54 L 182.85 75.98 M 182.93 78.97 C 180.49 79.71 178.06 80.58 175.89 81.94 C 175.75 82.37 175.47 83.22 175.33 83.65 C 176.67 84.00 177.89 83.45 179.02 82.78 C 181.55 81.35 184.43 80.77 187.25 80.17 C 188.47 77.27 184.22 78.53 182.93 78.97 M 135.33 81.45 C 128.70 80.73 120.86 80.79 115.84 85.87 C 114.61 86.79 115.22 88.35 115.49 89.58 C 118.53 90.40 118.34 86.17 120.89 85.68 C 124.45 84.76 128.32 82.97 131.96 84.42 C 134.31 84.44 136.75 84.81 139.05 84.20 C 139.20 82.07 136.77 82.00 135.33 81.45 M 172.31 81.36 C 171.00 81.61 170.45 83.08 169.62 83.96 C 169.48 84.91 170.48 85.90 171.45 85.42 C 172.52 84.33 173.77 83.12 173.43 81.43 C 173.15 81.41 172.59 81.38 172.31 81.36 M 163.35 82.37 C 163.98 84.25 165.23 87.23 167.67 86.73 C 167.79 84.52 165.80 81.53 163.35 82.37 M 110.45 99.56 C 110.21 99.81 109.72 100.32 109.48 100.57 C 110.58 102.35 112.91 101.91 114.62 101.56 C 114.64 101.01 114.67 99.90 114.69 99.35 C 113.29 99.27 111.80 99.08 110.45 99.56 M 107.55 106.45 C 106.99 108.14 107.50 108.81 109.09 108.46 C 109.32 109.89 110.02 113.24 106.94 111.59 C 105.72 111.46 106.81 113.64 106.51 114.33 C 108.14 114.53 109.22 113.09 110.83 113.04 C 110.78 113.91 110.68 115.63 110.63 116.50 C 112.91 117.09 114.31 114.44 114.39 112.53 C 113.68 112.57 112.27 112.64 111.56 112.68 L 111.42 111.41 C 109.24 112.12 109.68 106.09 112.36 109.63 L 112.55 107.94 C 110.99 107.17 109.40 106.11 107.55 106.45 M 89.88 109.89 C 89.03 111.24 86.24 110.83 86.35 112.64 C 87.31 114.62 88.81 112.23 90.07 112.13 C 89.83 114.29 87.03 114.26 86.19 116.01 C 85.66 117.03 84.88 117.92 84.43 118.97 C 84.48 120.52 84.52 122.08 84.64 123.63 C 87.51 126.15 90.01 122.70 92.46 121.47 C 94.33 120.90 93.81 118.71 93.47 117.26 C 93.97 115.81 98.08 115.10 95.72 113.54 C 92.64 115.09 90.52 118.41 87.00 119.01 C 87.90 116.88 90.50 116.35 92.18 114.97 C 91.96 113.79 93.60 111.39 91.55 111.23 C 91.85 109.83 91.14 109.05 89.88 109.89 M 152.29 109.36 C 150.68 110.89 147.05 110.87 147.22 113.59 C 150.03 114.12 152.23 111.85 154.48 110.56 C 154.58 110.19 154.79 109.44 154.90 109.06 L 154.12 108.40 C 153.66 108.64 152.75 109.12 152.29 109.36 M 121.64 109.42 C 118.82 112.51 127.40 112.16 123.97 109.44 C 123.39 109.44 122.22 109.43 121.64 109.42 M 127.39 111.40 C 127.35 111.82 127.28 112.65 127.25 113.07 C 129.02 114.88 131.47 116.06 134.06 115.74 C 137.43 116.99 141.10 116.71 144.63 116.56 C 144.51 116.12 144.27 115.22 144.16 114.78 C 141.46 114.30 138.67 114.86 135.99 114.23 C 133.17 113.14 130.32 112.12 127.39 111.40 M 163.78 114.56 C 162.64 117.28 160.75 119.62 158.49 121.49 C 157.58 122.07 155.85 124.47 158.03 124.71 C 161.38 121.94 165.60 118.65 165.85 113.96 C 165.33 114.11 164.29 114.41 163.78 114.56 M 172.35 116.30 C 172.30 116.73 172.21 117.58 172.17 118.00 C 173.49 119.44 174.36 121.77 176.60 121.91 L 176.66 120.07 C 175.30 118.78 174.42 116.48 172.35 116.30 M 105.00 118.08 C 101.45 120.94 97.62 125.02 98.83 130.01 C 99.78 131.96 100.54 133.99 101.48 135.94 C 103.30 139.43 102.63 143.81 104.85 147.10 C 108.19 147.16 105.28 143.61 105.53 141.94 C 105.20 136.32 100.33 131.79 101.40 125.99 C 101.99 122.58 106.14 121.25 106.88 118.06 L 106.03 117.37 L 105.00 118.08 M 165.86 116.97 C 165.75 117.62 165.52 118.92 165.40 119.57 C 163.10 120.76 161.27 122.56 159.37 124.29 C 157.08 126.10 153.57 128.02 154.47 131.50 C 155.77 131.58 157.16 131.86 158.44 131.45 C 159.50 130.53 160.39 129.44 161.39 128.46 C 162.42 129.32 164.15 130.68 165.10 128.76 C 167.28 125.43 168.53 121.39 167.02 117.52 L 165.86 116.97 M 169.90 118.83 L 169.54 119.89 C 170.86 122.43 171.56 125.16 171.90 127.99 C 172.45 128.38 173.54 129.16 174.09 129.55 C 178.03 128.37 180.82 132.71 184.73 131.61 C 184.75 130.97 184.78 129.69 184.80 129.05 C 182.23 125.33 177.81 123.11 173.75 121.26 C 172.79 120.13 171.89 116.57 169.90 118.83 M 179.12 121.13 C 178.87 124.52 182.68 125.56 185.09 126.80 C 189.17 128.85 193.62 129.75 198.06 130.64 C 200.82 131.20 202.97 133.12 205.14 134.77 L 206.47 134.22 C 205.50 130.98 201.91 129.87 199.12 128.68 C 193.46 127.83 187.77 126.34 182.98 123.10 C 181.91 121.99 180.79 120.93 179.12 121.13 M 91.08 123.06 C 90.10 123.87 89.05 124.60 87.81 124.96 C 86.63 126.08 87.19 129.21 89.35 128.28 C 89.50 131.18 92.56 128.55 93.47 127.64 C 93.17 127.27 92.56 126.53 92.26 126.16 C 92.63 125.79 93.38 125.07 93.76 124.71 C 93.50 123.60 92.34 120.79 91.08 123.06 M 152.61 123.51 C 150.57 126.97 147.43 129.57 144.35 132.07 L 144.41 133.49 C 144.86 133.50 145.77 133.51 146.23 133.51 C 149.15 130.95 152.34 128.40 154.27 125.01 C 155.00 123.41 153.97 123.18 152.61 123.51 M 147.98 125.03 C 142.88 128.89 136.42 130.32 130.15 130.64 C 133.62 129.56 137.70 129.69 140.54 127.15 L 140.82 125.63 L 139.14 125.52 C 135.37 127.93 130.75 128.08 126.67 129.75 C 125.01 130.55 126.42 133.02 124.67 133.77 C 122.98 134.87 122.07 136.59 122.34 138.64 C 122.83 138.60 123.80 138.52 124.29 138.49 C 124.74 135.21 128.19 133.76 131.05 133.19 C 133.29 132.38 135.75 132.54 137.96 131.61 C 142.04 131.29 145.60 129.04 149.07 127.05 C 150.76 126.36 149.62 122.85 147.98 125.03 M 198.85 126.14 L 199.48 128.04 C 202.24 129.93 205.65 130.81 208.06 133.21 C 209.65 134.88 209.98 131.55 209.06 130.99 C 206.51 129.12 203.57 127.87 200.84 126.28 L 198.85 126.14 M 169.88 129.63 C 169.60 129.93 169.05 130.54 168.77 130.84 C 168.73 133.56 168.46 136.36 168.84 139.07 C 169.46 138.92 170.69 138.62 171.30 138.47 C 171.30 135.91 171.34 133.34 171.24 130.78 C 170.87 130.25 170.41 129.87 169.88 129.63 M 94.71 130.72 C 93.45 131.76 92.16 132.76 90.86 133.76 C 90.74 135.65 90.61 137.55 90.59 139.45 C 91.33 140.11 91.97 141.15 92.99 141.37 C 94.10 140.60 95.87 140.23 95.88 138.52 C 95.20 138.55 93.84 138.59 93.16 138.61 C 94.31 137.84 95.28 136.89 95.73 135.55 C 96.16 134.75 97.80 133.09 95.88 132.76 C 94.67 132.32 96.96 128.87 94.71 130.72 M 108.50 130.38 C 107.87 131.99 107.95 135.11 110.53 133.68 C 110.74 132.20 110.09 130.63 108.50 130.38 M 104.85 131.82 L 104.58 132.65 L 105.02 133.37 C 107.19 134.74 106.86 130.29 104.85 131.82 M 119.52 132.46 C 118.37 133.67 117.35 135.02 116.69 136.56 C 116.27 138.25 116.64 140.15 115.78 141.71 C 115.25 141.61 114.21 141.40 113.68 141.30 L 113.19 141.87 C 113.62 144.97 113.55 148.11 113.93 151.20 L 115.06 151.94 C 116.94 149.94 116.50 146.98 115.40 144.71 C 116.37 144.28 117.34 143.83 118.30 143.37 C 118.45 140.83 118.07 138.03 119.74 135.88 C 120.85 134.95 120.44 133.33 119.52 132.46 M 173.39 133.33 C 173.30 135.99 173.77 138.66 173.43 141.31 C 170.29 141.56 167.10 141.40 164.02 142.19 C 158.04 142.91 151.93 142.04 146.02 143.29 C 139.81 143.32 133.58 143.88 127.38 143.37 C 127.93 141.50 129.74 140.33 130.58 138.58 C 129.91 138.57 128.57 138.56 127.90 138.55 C 126.87 140.75 124.53 140.86 122.53 141.73 C 122.03 144.21 121.85 148.84 125.30 149.14 C 125.36 148.65 125.46 147.68 125.51 147.19 C 127.75 149.39 127.93 152.74 129.96 155.08 C 131.60 157.06 133.08 159.49 135.49 160.58 C 135.49 159.91 135.49 158.59 135.49 157.93 C 132.89 155.08 129.67 152.18 129.20 148.13 C 130.89 148.39 131.78 149.98 132.91 151.08 C 138.08 157.22 143.31 163.32 148.99 169.00 C 152.28 172.65 157.35 173.73 161.88 175.08 C 164.85 175.62 167.90 175.29 170.91 175.49 C 173.73 175.84 176.17 174.05 179.00 174.16 C 186.30 171.34 192.85 166.42 197.71 160.31 C 197.67 161.00 197.59 162.37 197.54 163.05 C 194.78 168.03 192.90 173.43 190.34 178.52 C 189.45 180.08 187.68 180.85 186.06 181.38 C 181.06 181.77 176.01 181.90 171.01 181.48 C 166.31 181.18 161.60 181.64 156.90 181.45 C 155.66 180.94 154.34 180.73 153.02 180.64 C 151.53 179.95 150.18 178.99 148.91 177.96 C 147.53 176.26 147.20 173.95 145.82 172.25 C 143.86 169.77 141.27 167.73 140.18 164.65 C 139.87 163.39 138.68 163.27 137.56 163.42 C 137.87 168.70 143.58 171.30 145.38 175.94 C 146.28 179.13 148.89 181.35 150.67 184.04 C 151.95 186.01 153.98 187.31 155.94 188.54 C 160.23 186.24 165.15 185.41 169.99 185.45 C 173.32 185.50 176.80 185.12 179.98 186.34 C 182.76 186.61 185.30 187.98 188.12 187.94 C 190.76 186.96 192.39 184.31 193.65 181.90 C 193.14 178.20 195.91 175.40 196.82 172.03 C 197.24 170.32 198.45 168.84 198.40 167.02 C 198.35 164.73 200.85 163.15 200.46 160.79 C 197.85 159.67 200.49 157.10 201.28 155.55 C 203.79 156.55 204.51 153.00 205.00 151.24 C 202.45 152.32 203.91 149.18 203.37 148.06 C 203.02 146.66 201.99 144.45 204.07 143.99 C 205.03 146.24 204.36 148.58 204.55 150.91 C 204.98 150.54 205.85 149.81 206.28 149.44 C 206.05 147.56 207.10 145.04 205.33 143.70 C 204.09 142.89 202.21 144.15 201.18 142.80 C 198.65 141.47 195.75 141.54 192.98 141.48 C 187.20 141.51 181.41 141.64 175.63 141.45 C 175.57 138.49 175.70 135.52 175.28 132.59 C 174.81 132.78 173.87 133.14 173.39 133.33 M 180.25 137.42 C 180.18 137.86 180.02 138.75 179.94 139.19 C 183.25 139.84 186.67 139.42 190.02 139.67 C 193.50 139.58 197.06 140.17 200.47 139.34 C 200.27 138.90 199.87 138.01 199.67 137.57 C 193.20 137.75 186.73 137.46 180.25 137.42 M 137.55 138.57 C 137.09 139.09 136.73 139.66 136.46 140.28 C 137.08 140.56 138.32 141.10 138.95 141.37 C 146.75 139.88 154.76 141.45 162.60 140.29 L 162.63 138.63 C 154.28 138.50 145.90 138.79 137.55 138.57 M 212.24 137.04 C 212.79 138.44 212.51 139.46 211.40 140.10 C 210.87 143.14 210.68 146.31 209.17 149.08 C 207.85 150.93 208.98 153.20 208.29 155.21 C 207.67 155.28 206.45 155.42 205.84 155.48 C 203.83 157.49 204.07 160.61 202.85 163.00 C 202.52 164.50 202.48 166.06 202.48 167.60 C 202.93 167.50 203.85 167.30 204.31 167.20 C 204.89 164.21 205.98 161.33 206.42 158.31 L 206.79 158.25 C 207.05 161.16 204.29 164.15 205.93 166.83 L 207.23 166.94 C 207.79 163.24 208.68 159.50 210.10 155.99 C 211.83 152.77 212.83 149.21 213.62 145.66 C 215.14 143.13 214.56 140.09 214.27 137.33 L 212.24 137.04 M 101.94 147.79 L 101.58 148.89 C 103.22 153.76 101.46 159.15 103.43 163.96 C 103.26 167.32 105.05 170.36 107.46 172.57 C 107.93 172.06 108.88 171.42 108.35 170.63 C 107.12 168.96 106.14 167.12 106.09 165.00 C 104.86 163.30 105.81 160.95 104.64 159.29 C 103.80 155.26 105.49 150.78 103.14 147.11 L 101.94 147.79 M 121.30 152.28 L 120.79 152.94 C 122.11 159.11 126.89 163.66 130.92 168.22 L 132.21 168.55 L 132.46 167.02 C 129.72 163.37 126.32 160.12 124.18 156.05 C 123.08 154.57 124.36 151.99 122.00 151.41 L 121.30 152.28 M 121.13 164.00 C 121.09 165.69 122.94 166.56 123.62 167.98 C 125.00 170.19 127.30 171.85 127.88 174.51 C 128.79 173.86 130.06 173.02 129.23 171.71 C 126.91 168.86 125.18 165.16 121.96 163.28 L 121.13 164.00 M 128.57 179.65 C 128.06 180.18 126.87 181.19 128.25 181.73 C 129.28 182.42 130.62 182.46 131.49 183.43 C 136.26 187.29 141.45 190.62 145.95 194.81 C 147.55 197.03 148.64 193.74 147.07 192.95 C 142.24 188.36 136.54 184.85 131.44 180.59 C 130.69 179.78 129.65 179.48 128.57 179.65 M 196.83 180.60 C 196.24 182.71 193.15 183.19 193.37 185.55 C 195.94 186.25 198.69 183.04 198.52 180.55 C 198.09 180.56 197.25 180.59 196.83 180.60 M 204.60 180.66 C 201.85 182.07 199.05 183.53 196.92 185.83 C 196.24 186.86 196.42 189.14 194.67 188.97 C 194.24 188.67 193.38 188.06 192.94 187.76 C 191.22 186.38 190.69 189.54 192.17 189.86 C 194.76 191.44 196.38 194.16 197.42 196.94 C 198.04 200.20 199.45 203.35 199.32 206.72 C 196.75 208.34 194.91 210.95 192.07 212.17 C 189.27 213.83 186.10 214.53 183.04 215.52 C 181.47 215.72 179.01 214.80 178.58 217.00 C 178.97 217.87 179.90 218.72 180.97 218.31 C 188.17 216.68 195.71 214.09 200.46 208.10 C 200.65 206.37 199.94 204.67 200.32 202.97 C 201.31 198.85 199.31 194.74 196.88 191.55 C 197.07 189.89 197.93 188.41 198.82 187.04 C 200.86 184.75 203.97 184.00 206.36 182.17 C 206.97 180.63 206.05 179.77 204.60 180.66 M 130.99 189.69 L 131.16 191.08 C 134.15 192.57 137.41 194.42 138.94 197.47 C 139.98 196.91 140.95 196.14 140.29 194.80 C 137.60 192.72 135.19 190.02 131.75 189.22 L 130.99 189.69 M 126.49 191.36 C 126.54 191.84 126.65 192.82 126.71 193.30 C 128.78 195.44 131.37 196.97 133.95 198.41 C 135.09 198.77 135.65 197.75 135.50 196.75 C 133.88 195.58 131.98 194.82 130.45 193.53 C 129.21 192.62 128.31 190.81 126.49 191.36 M 118.99 192.12 L 118.10 192.90 C 120.86 196.45 124.30 199.39 127.42 202.61 C 130.63 205.93 134.86 207.92 138.91 210.00 C 141.09 211.05 142.68 212.93 144.72 214.21 C 148.42 215.56 152.43 216.09 155.84 218.17 C 158.81 218.77 161.69 219.68 164.79 219.41 C 164.90 220.01 165.12 221.22 165.23 221.83 C 162.47 221.79 159.72 221.74 156.97 221.53 C 154.05 220.45 150.68 220.59 148.03 218.68 C 147.12 218.90 145.81 220.18 147.00 221.00 C 148.64 221.80 150.38 222.34 152.15 222.81 C 153.94 223.81 156.23 223.03 158.00 224.16 C 160.33 224.41 162.69 224.37 165.04 224.35 C 165.81 224.16 167.48 222.56 165.21 222.32 C 166.68 218.87 171.52 221.00 173.40 217.97 C 172.63 216.99 171.22 216.20 170.20 217.34 C 165.91 218.51 161.71 216.45 157.43 216.35 C 155.56 215.66 153.91 214.46 152.03 213.79 C 149.92 213.40 147.80 213.00 145.78 212.24 C 144.03 211.29 142.77 209.68 141.06 208.69 C 137.08 206.51 132.74 204.77 129.43 201.57 C 126.40 198.63 123.35 195.70 120.54 192.54 C 120.15 192.43 119.38 192.22 118.99 192.12 M 112.87 193.07 L 112.17 194.02 C 113.73 195.80 115.38 197.50 116.65 199.52 C 122.34 206.69 131.12 210.21 137.77 216.31 C 139.24 217.04 139.97 216.19 139.37 214.74 C 132.22 208.05 122.23 204.51 116.77 196.03 C 115.73 194.79 114.84 192.71 112.87 193.07 M 144.77 198.59 C 143.35 200.52 143.53 203.00 143.75 205.25 C 144.46 206.00 145.18 206.76 146.03 207.37 C 146.32 206.69 148.53 205.79 146.51 205.31 C 145.94 203.08 146.45 200.80 146.45 198.56 C 146.03 198.56 145.19 198.58 144.77 198.59 M 108.42 201.38 C 108.45 204.08 109.75 206.54 110.57 209.05 C 112.09 211.94 114.23 214.46 115.76 217.35 C 116.89 219.74 119.08 221.32 121.00 223.02 C 123.32 225.05 126.50 225.95 128.42 228.44 C 129.94 230.71 130.88 233.31 132.48 235.54 C 132.84 235.62 133.57 235.79 133.93 235.88 L 134.55 235.08 C 133.21 232.55 131.83 230.05 130.42 227.56 C 128.69 224.78 125.44 223.69 122.97 221.74 C 118.79 219.01 116.73 214.32 113.84 210.44 C 111.79 207.68 111.40 204.22 110.04 201.15 C 109.64 201.21 108.83 201.32 108.42 201.38 M 116.77 203.26 C 115.89 204.99 117.38 206.39 118.18 207.76 C 123.72 214.99 127.79 223.30 134.03 230.00 C 137.58 233.39 137.96 238.61 139.53 242.99 C 139.38 244.66 140.38 246.77 142.38 246.39 C 142.58 243.67 141.42 241.15 140.62 238.62 C 139.39 235.78 138.87 232.60 136.98 230.09 C 129.50 222.14 124.47 212.33 118.09 203.55 L 116.77 203.26 M 195.40 220.53 C 194.01 221.45 194.22 223.70 193.16 225.02 C 191.00 227.82 188.18 230.00 185.59 232.38 C 183.44 231.43 182.33 233.79 180.95 234.96 C 177.78 238.52 173.32 241.02 171.38 245.56 C 170.24 248.66 168.64 251.66 168.37 255.00 C 167.22 259.85 164.21 263.97 162.39 268.57 C 163.44 268.93 165.01 268.91 165.34 267.59 C 167.30 263.41 169.45 259.33 171.33 255.11 C 171.36 253.05 171.02 250.71 172.46 249.00 C 173.63 247.52 174.32 245.78 174.92 244.02 C 177.76 240.39 181.71 237.82 184.59 234.23 C 184.56 234.76 184.50 235.83 184.46 236.36 C 186.83 236.30 186.94 233.64 188.56 232.56 C 191.51 230.11 194.70 227.62 196.34 224.05 C 196.43 222.94 197.08 220.70 195.40 220.53 M 136.38 221.29 C 135.92 223.18 136.41 225.14 137.22 226.86 C 139.26 231.74 142.36 236.08 144.39 240.96 C 144.78 242.97 144.08 245.31 145.64 246.96 C 147.15 249.36 150.21 249.96 151.93 252.14 C 154.22 255.04 149.92 258.82 152.42 261.54 C 155.45 259.07 154.37 254.88 154.36 251.48 C 152.65 249.10 149.98 247.77 147.65 246.13 C 147.18 243.96 146.88 241.76 146.22 239.64 C 144.96 236.62 143.01 233.95 141.70 230.95 C 140.30 227.86 138.02 224.90 138.41 221.32 C 137.90 221.31 136.89 221.30 136.38 221.29 M 115.41 223.39 C 115.42 225.29 117.88 225.43 119.03 226.35 C 121.25 227.96 123.36 229.76 125.23 231.77 C 127.08 234.26 128.52 237.06 130.65 239.34 C 132.02 240.14 131.49 238.14 131.60 237.34 C 129.84 234.50 128.05 231.66 125.87 229.14 C 123.18 226.55 120.10 224.38 116.86 222.53 C 116.50 222.75 115.77 223.18 115.41 223.39 M 192.46 232.54 C 190.80 234.17 189.03 235.66 187.32 237.21 C 187.36 237.82 187.45 239.02 187.49 239.62 C 190.11 237.99 192.33 235.72 194.59 233.62 C 194.20 232.77 193.39 232.22 192.46 232.54 M 199.22 248.15 C 198.36 250.74 200.77 252.63 200.54 255.09 C 200.50 256.05 198.82 257.09 200.05 257.94 C 200.83 259.19 201.86 257.71 202.41 257.11 C 202.73 254.16 202.82 250.92 201.16 248.32 L 199.22 248.15 M 146.23 254.12 C 146.41 257.54 146.50 260.97 146.61 264.40 C 147.09 264.41 148.05 264.42 148.53 264.43 C 148.69 261.62 148.51 258.81 148.45 256.00 C 148.86 254.62 147.41 253.89 146.23 254.12 M 108.58 258.55 C 108.30 260.48 110.09 261.61 111.03 263.03 C 113.07 265.75 115.80 269.12 119.63 268.48 C 119.21 266.28 116.66 266.10 115.29 264.71 C 113.29 263.02 112.27 260.53 110.65 258.56 C 110.13 258.56 109.10 258.56 108.58 258.55 M 172.50 261.49 C 168.17 266.71 163.68 271.96 160.66 278.04 C 161.14 278.50 161.63 278.97 162.11 279.44 C 164.01 276.55 165.84 273.61 167.75 270.73 C 170.01 267.73 172.72 265.08 174.79 261.93 C 174.21 261.82 173.07 261.60 172.50 261.49 M 196.81 268.57 C 195.01 273.52 190.39 276.34 186.45 279.43 C 181.99 282.49 178.38 286.90 173.19 288.80 C 174.44 287.44 176.27 286.55 176.94 284.73 L 176.17 284.03 C 173.27 284.67 171.72 287.64 169.41 289.31 C 168.31 291.71 171.42 290.03 172.60 290.60 C 171.85 292.53 170.07 293.95 168.07 294.36 C 164.53 294.60 160.82 294.22 157.52 295.77 L 157.81 297.19 C 161.70 298.62 165.91 298.56 169.98 298.36 C 173.24 297.37 176.66 297.64 179.99 297.15 C 182.95 296.09 186.30 295.76 188.87 293.80 C 190.14 292.99 188.63 292.08 187.92 291.67 C 186.05 293.45 183.35 293.53 181.05 294.43 C 177.98 294.56 175.14 296.00 172.02 295.60 C 172.47 293.09 175.39 292.60 176.91 290.88 C 184.12 284.45 192.87 279.46 198.20 271.20 C 198.60 269.87 199.15 267.55 196.81 268.57 M 128.69 279.66 C 127.35 280.37 127.30 281.62 128.79 282.19 C 136.13 284.12 142.57 288.74 150.18 289.79 C 152.64 290.97 155.63 289.83 158.09 291.14 C 159.12 291.60 161.39 290.13 159.91 289.13 C 158.34 287.86 155.77 289.03 153.98 287.90 C 144.85 287.72 137.15 282.25 128.69 279.66 M 140.57 290.65 C 140.63 291.51 140.19 293.08 141.49 293.25 C 145.67 294.51 149.90 295.57 154.07 296.84 C 155.15 297.15 156.45 298.18 157.53 297.23 C 157.09 294.57 153.98 294.57 152.01 293.85 C 148.08 293.20 144.47 291.31 140.57 290.65 M 159.85 299.97 C 157.45 300.96 155.23 302.41 152.64 302.94 L 152.15 304.60 C 153.77 304.84 155.44 304.59 156.93 303.92 C 159.82 302.71 162.99 302.57 165.95 301.60 C 167.91 301.53 170.22 300.93 171.97 302.09 C 174.92 302.78 178.36 301.70 181.01 303.17 C 183.20 302.95 185.39 302.38 187.63 302.67 C 187.06 306.02 191.48 303.57 193.00 305.17 C 194.80 305.16 197.29 306.23 198.54 304.43 C 196.60 301.99 193.42 302.98 190.80 302.27 C 189.88 301.17 188.50 302.12 187.42 302.29 C 185.85 302.00 184.69 300.58 183.05 300.62 C 175.33 300.62 167.51 297.93 159.85 299.97 Z" />
<path fill="#ffffff" opacity="1.00" d=" M 195.90 85.87 C 199.82 84.87 204.05 84.97 208.05 85.57 C 209.30 86.24 210.66 86.62 212.10 86.50 C 212.14 82.93 215.07 86.70 215.57 87.97 C 215.88 90.76 215.80 93.59 215.49 96.37 C 215.53 97.32 214.93 98.23 214.01 98.52 C 212.34 99.08 210.97 100.28 209.30 100.81 C 208.72 98.02 205.73 99.10 204.01 97.57 C 202.95 97.33 201.83 97.17 201.08 96.30 C 204.37 96.65 207.47 98.59 210.72 98.35 C 210.96 95.59 207.51 95.55 205.62 95.23 C 204.18 94.41 202.10 94.82 201.10 93.33 C 204.05 93.14 206.71 95.72 209.67 94.41 C 209.40 93.96 208.87 93.08 208.61 92.64 C 205.97 92.15 201.88 91.94 201.25 88.70 C 198.21 88.82 195.16 88.77 192.12 88.73 C 191.44 85.82 194.42 86.70 195.90 85.87 Z" />
<path fill="#ffffff" opacity="1.00" d=" M 133.36 88.52 C 137.25 88.32 141.18 88.07 145.05 88.64 C 146.55 89.37 148.68 90.79 150.13 89.18 C 150.93 88.35 152.13 88.71 153.14 88.74 C 154.04 89.89 153.58 91.57 153.84 92.94 C 152.57 92.59 148.97 89.97 149.69 93.03 C 149.96 93.20 150.51 93.55 150.78 93.73 C 148.41 93.00 145.95 92.53 143.62 91.66 C 141.62 92.65 139.41 93.00 137.21 92.52 C 139.13 92.32 141.34 92.25 142.33 90.25 C 139.21 88.53 135.53 89.78 132.14 89.61 C 132.45 89.34 133.06 88.79 133.36 88.52 Z" />
<path fill="#ffffff" opacity="1.00" d=" M 177.80 89.85 C 181.47 89.46 185.18 89.60 188.87 89.27 C 187.65 90.38 185.52 90.02 184.01 90.74 C 181.39 92.38 178.31 91.27 175.46 91.23 C 174.96 90.01 177.14 90.38 177.80 89.85 Z" />
<path fill="#ffffff" opacity="1.00" d=" M 195.70 91.70 C 196.24 91.57 197.32 91.32 197.86 91.19 C 196.08 92.64 193.29 92.45 191.32 93.69 C 192.27 92.38 194.28 92.33 195.70 91.70 Z" />
<path fill="#ffffff" opacity="1.00" d=" M 154.84 93.25 C 156.39 93.28 157.94 93.37 159.47 93.65 C 159.43 94.15 159.35 95.16 159.30 95.66 C 157.79 94.95 155.77 94.82 154.84 93.25 Z" />
<path fill="#ffffff" opacity="1.00" d=" M 177.83 94.02 C 179.18 93.52 183.82 92.35 182.57 95.27 C 181.07 96.08 177.12 97.90 177.16 94.76 L 177.83 94.02 Z" />
<path fill="#ffffff" opacity="1.00" d=" M 135.53 100.64 C 137.14 100.62 139.26 100.00 140.41 101.51 C 141.34 104.53 137.15 104.93 135.43 103.57 C 133.97 103.11 134.35 101.15 135.53 100.64 Z" />
<path fill="#ffffff" opacity="1.00" d=" M 191.59 100.66 C 193.79 99.68 196.20 100.39 197.48 102.43 C 196.25 104.82 192.19 105.55 190.94 102.82 C 190.23 102.05 191.14 101.25 191.59 100.66 Z" />
<path fill="#ffffff" opacity="1.00" d=" M 177.24 102.34 C 178.53 102.21 179.87 102.41 180.08 103.96 C 181.23 104.26 181.75 105.02 181.62 106.26 C 183.05 108.02 186.77 108.11 186.83 110.89 C 185.39 110.66 184.45 109.45 183.27 108.71 C 181.35 107.18 178.89 106.65 176.51 106.33 C 176.05 104.37 180.57 106.64 179.49 103.88 L 179.16 102.76 C 178.68 102.65 177.72 102.44 177.24 102.34 Z" />
<path fill="#ffffff" opacity="1.00" d=" M 168.42 143.70 C 173.93 143.12 179.48 143.84 185.00 143.62 C 187.34 143.78 189.93 143.05 192.02 144.44 C 193.58 145.07 193.20 147.01 193.29 148.34 C 192.52 148.38 190.98 148.46 190.22 148.50 L 190.00 150.61 C 190.60 150.60 191.80 150.60 192.41 150.59 C 192.85 152.86 193.45 155.12 193.27 157.45 C 192.13 157.30 190.14 158.16 189.75 156.56 C 189.25 153.57 190.25 150.31 188.52 147.62 C 187.82 146.18 186.88 143.47 184.72 144.70 C 183.38 146.18 182.05 147.71 181.21 149.53 C 180.90 150.67 179.57 150.50 178.67 150.58 C 178.21 149.07 179.35 146.29 177.06 146.12 C 174.52 145.54 174.23 148.65 172.75 149.78 C 170.69 148.64 173.11 144.52 169.95 144.45 C 168.37 145.02 167.56 146.57 167.26 148.12 C 166.19 149.11 164.46 148.61 163.34 149.61 C 163.58 148.14 163.23 146.64 162.23 145.51 C 157.57 144.83 153.16 147.06 148.49 146.36 C 148.09 148.83 148.49 151.42 147.50 153.79 C 147.60 152.43 147.13 151.21 146.62 149.99 C 146.57 148.43 147.18 146.94 147.54 145.45 C 149.20 145.43 150.84 145.26 152.43 144.78 C 157.74 144.27 163.21 145.05 168.42 143.70 Z" />
<path fill="#ffffff" opacity="1.00" d=" M 158.53 147.54 C 160.78 147.27 161.42 150.25 161.46 151.97 C 162.45 154.36 162.33 156.98 162.30 159.52 C 161.61 160.92 159.90 160.18 158.70 160.26 C 157.14 157.40 157.16 154.06 157.44 150.91 C 157.63 149.74 157.58 148.42 158.53 147.54 Z" />
<path fill="#ffffff" opacity="1.00" d=" M 151.70 148.67 C 152.32 148.66 153.56 148.65 154.18 148.64 C 154.02 152.10 155.44 155.32 155.63 158.74 C 153.87 158.59 152.30 157.73 150.60 157.37 C 150.24 154.38 151.34 151.59 151.70 148.67 Z" />
<path fill="#ffffff" opacity="1.00" d=" M 183.60 149.39 L 183.86 148.65 C 186.01 146.95 186.30 150.13 186.77 151.45 C 187.77 153.22 187.70 155.33 187.54 157.31 C 186.11 158.38 184.38 158.89 182.60 158.58 C 182.30 155.48 182.60 152.34 183.60 149.39 Z" />
<path fill="#ffffff" opacity="1.00" d=" M 175.32 150.08 C 176.89 151.71 176.15 154.41 177.68 156.17 L 177.75 157.77 C 176.68 157.72 174.55 157.62 173.49 157.57 C 173.44 156.55 173.36 154.50 173.32 153.48 C 176.55 154.78 175.15 151.68 175.32 150.08 Z" />
<path fill="#ffffff" opacity="1.00" d=" M 167.58 151.05 C 172.05 151.09 170.62 156.91 170.73 159.82 L 169.05 160.45 L 167.56 159.67 C 167.28 156.80 167.36 153.92 167.58 151.05 Z" />
<path fill="#ffffff" opacity="1.00" d=" M 189.39 160.46 C 190.53 160.44 191.80 160.39 192.41 161.55 C 192.52 162.52 191.53 163.66 190.52 163.52 C 189.58 162.74 189.25 161.63 189.39 160.46 Z" />
<path fill="#ffffff" opacity="1.00" d=" M 178.71 161.72 C 179.70 161.52 180.64 162.52 181.58 162.80 C 181.71 164.85 181.61 166.99 180.61 168.84 C 180.10 168.79 179.09 168.68 178.58 168.63 C 179.75 164.81 176.85 167.20 176.31 168.33 C 176.92 169.59 177.67 170.90 177.55 172.38 C 176.16 172.47 174.76 172.51 173.37 172.50 C 174.98 169.67 176.06 166.61 175.31 163.32 L 175.64 163.28 C 175.79 163.99 176.10 165.42 176.25 166.13 C 178.55 165.40 176.48 162.38 178.71 161.72 Z" />
<path fill="#ffffff" opacity="1.00" d=" M 149.63 162.66 C 149.82 162.56 150.22 162.37 150.42 162.27 C 150.46 163.77 150.49 165.29 150.49 166.80 C 149.19 166.49 148.37 165.35 147.47 164.46 C 148.14 163.81 148.86 163.21 149.63 162.66 Z" />
<path fill="#ffffff" opacity="1.00" d=" M 171.63 162.71 C 171.78 162.64 172.09 162.50 172.24 162.43 C 174.29 164.88 173.52 168.54 171.58 170.77 C 173.05 166.80 169.84 169.04 169.41 170.33 C 169.50 170.95 169.68 172.19 169.77 172.80 C 169.15 172.75 167.91 172.63 167.29 172.57 C 167.69 170.80 169.10 169.24 168.32 167.33 C 168.36 169.67 170.29 167.44 170.72 166.69 C 170.94 165.36 169.92 163.39 171.63 162.71 Z" />
<path fill="#ffffff" opacity="1.00" d=" M 185.36 162.44 C 186.58 162.67 188.40 163.24 188.57 164.65 C 187.43 165.86 186.60 167.80 184.69 167.83 C 184.58 166.06 184.53 164.28 184.54 162.50 L 185.36 162.44 Z" />
<path fill="#ffffff" opacity="1.00" d=" M 154.50 163.64 C 155.87 163.58 157.26 163.57 158.64 163.61 C 158.36 165.10 157.69 166.54 156.75 167.73 C 154.95 167.57 154.52 165.11 154.50 163.64 Z" />
<path fill="#ffffff" opacity="1.00" d=" M 163.34 164.24 L 163.65 163.45 C 164.42 163.50 165.95 163.59 166.72 163.64 C 166.86 166.35 166.71 169.20 165.26 171.58 C 165.08 171.61 164.73 171.66 164.55 171.69 C 164.87 169.07 163.62 166.76 163.34 164.24 Z" />
<path fill="#ffffff" opacity="1.00" d=" M 160.37 165.46 C 160.63 165.42 161.15 165.35 161.41 165.31 C 161.79 167.57 163.09 169.90 162.23 172.22 C 160.74 172.83 159.47 172.54 158.41 171.33 C 158.84 169.34 159.08 167.09 160.37 165.46 Z" />
<path fill="#ffffff" opacity="1.00" d=" M 152.37 167.30 C 153.68 166.42 155.27 168.57 154.65 169.76 C 153.12 170.76 151.35 168.74 152.37 167.30 Z" />
</g>
<g id="#010101ff">
<path fill="#010101" opacity="1.00" d=" M 146.30 8.05 C 151.13 7.05 156.09 7.20 160.98 7.61 C 168.65 7.51 175.87 10.57 183.34 11.81 C 189.97 15.91 197.74 17.86 204.06 22.49 C 207.75 24.88 210.48 28.37 213.65 31.35 C 219.52 37.56 221.41 46.12 223.49 54.13 C 224.14 57.38 223.52 60.70 223.25 63.95 C 223.02 66.84 220.55 69.04 220.68 72.02 C 220.57 74.43 219.14 76.57 219.15 79.00 C 218.83 83.19 221.77 86.80 221.46 90.99 C 221.88 95.51 220.44 99.90 218.51 103.91 C 218.51 107.96 217.84 112.13 218.75 116.11 C 221.05 119.56 224.13 122.76 224.59 127.10 C 224.86 131.40 224.76 135.81 223.47 139.96 C 222.74 142.25 222.93 144.69 222.53 147.04 C 221.50 150.41 219.20 153.35 218.78 156.91 C 218.22 161.92 217.67 166.96 217.87 172.00 C 218.06 177.69 217.31 183.35 217.32 189.03 C 217.27 191.06 218.50 192.98 217.99 195.03 C 217.23 199.07 216.79 203.22 215.36 207.10 C 213.52 212.11 209.37 215.89 207.60 220.94 C 207.03 223.90 206.27 226.98 206.78 230.00 C 208.12 234.10 211.37 237.32 215.06 239.41 C 220.49 242.79 226.32 245.63 231.21 249.82 C 237.81 254.86 243.26 261.30 250.34 265.72 C 254.92 270.49 261.23 272.89 266.20 277.15 C 266.70 280.69 270.33 282.09 272.44 284.55 C 277.45 289.90 282.37 295.35 286.96 301.06 C 289.08 303.68 292.16 305.22 294.46 307.65 C 297.86 311.25 301.47 314.63 305.09 318.00 L 297.10 318.00 C 294.00 315.06 291.24 311.79 288.11 308.90 C 284.26 305.05 279.65 301.99 276.16 297.80 C 273.35 292.55 268.57 288.78 264.21 284.87 C 260.85 281.68 256.50 279.91 252.99 276.94 C 249.71 274.23 246.64 271.25 243.18 268.75 C 240.84 267.12 239.32 264.56 236.82 263.14 C 232.57 260.65 228.23 258.35 223.97 255.88 C 222.53 255.36 222.11 253.79 221.14 252.78 C 212.81 248.10 205.32 242.12 197.75 236.34 C 196.42 239.96 194.02 243.55 194.52 247.55 C 195.68 249.02 197.79 249.93 197.97 252.00 L 196.97 252.60 C 195.36 251.41 193.82 250.11 192.49 248.62 C 191.16 242.93 195.46 238.25 196.65 232.97 C 198.04 225.76 201.00 218.99 203.86 212.27 C 201.00 214.11 198.06 215.85 194.89 217.12 C 190.22 218.89 185.97 221.58 181.21 223.11 C 180.18 223.63 179.38 222.73 178.61 222.21 C 178.84 221.25 180.03 220.85 180.90 220.64 C 184.88 219.77 188.28 217.43 192.04 215.98 C 196.72 214.07 201.47 211.90 205.21 208.42 C 208.51 204.09 208.47 198.32 209.05 193.14 C 209.85 186.36 212.99 179.94 212.27 173.00 C 212.99 163.64 210.36 153.71 214.58 144.88 C 218.31 139.56 219.41 132.65 217.92 126.38 C 216.96 123.23 214.27 121.04 213.04 118.03 C 211.38 114.07 213.99 109.11 210.80 105.70 C 212.94 105.63 212.38 103.40 212.90 102.09 C 210.86 104.61 207.33 102.41 205.04 104.37 C 206.30 104.85 207.59 105.28 208.83 105.85 C 210.12 108.80 206.10 106.53 205.15 107.96 C 203.84 109.69 202.18 111.03 200.12 111.74 C 201.67 111.76 203.69 110.43 204.90 111.95 C 202.62 114.67 198.66 114.64 195.42 114.64 C 195.44 113.85 195.50 112.27 195.53 111.47 C 192.86 111.04 190.19 110.63 187.51 110.32 C 186.80 111.21 186.66 113.11 185.02 112.50 C 183.30 111.70 181.89 110.36 180.23 109.45 C 178.06 109.07 175.84 109.15 173.65 109.19 C 172.89 110.95 171.75 112.83 169.56 112.79 C 169.49 114.91 169.59 117.03 169.48 119.15 C 168.52 118.86 167.02 118.22 167.36 116.94 C 167.65 114.70 166.73 112.63 165.45 110.86 L 165.71 109.95 C 168.23 109.68 170.77 109.75 173.30 109.58 C 169.92 108.49 166.30 110.21 163.01 109.30 C 162.80 108.89 162.39 108.09 162.18 107.69 C 160.31 107.83 158.57 108.58 156.76 109.01 C 156.72 108.51 156.64 107.49 156.60 106.99 C 156.59 104.67 160.49 105.65 160.64 103.77 C 158.59 103.27 156.53 102.83 154.51 102.23 L 154.65 100.68 C 157.12 99.73 159.77 102.80 161.86 100.58 C 160.47 100.54 159.09 100.46 157.71 100.33 C 156.31 98.48 158.35 97.53 159.85 97.44 C 157.48 97.59 155.36 96.37 153.05 96.08 C 153.10 97.99 156.96 96.78 155.91 99.21 C 152.36 100.89 148.85 98.07 145.19 98.34 C 147.87 99.20 150.52 100.30 153.35 100.57 C 153.69 101.73 154.45 103.22 152.98 103.93 C 151.59 104.76 153.37 106.46 152.61 107.59 C 151.33 108.91 149.56 109.64 147.94 110.47 C 145.87 110.86 143.77 110.19 141.68 110.35 C 141.29 110.86 140.52 111.87 140.13 112.38 C 138.06 112.45 136.02 112.06 134.01 111.61 C 131.46 111.18 129.55 109.13 127.04 108.62 C 123.26 108.24 119.45 106.80 115.78 108.41 C 115.12 106.72 113.60 106.37 112.00 106.15 C 112.05 102.79 116.55 103.64 117.67 101.01 C 117.70 99.91 117.65 98.82 117.50 97.74 C 116.76 97.67 116.02 97.61 115.28 97.55 C 115.52 96.18 115.99 94.85 116.68 93.64 C 119.76 92.02 123.37 92.46 126.72 92.34 C 126.10 91.35 124.53 90.88 125.53 89.48 C 127.95 87.57 131.15 87.18 133.99 86.23 C 138.19 84.83 142.90 84.82 146.98 86.50 C 154.76 86.24 162.36 87.97 170.11 88.19 C 174.52 86.72 171.44 89.36 171.54 90.79 C 173.28 90.64 173.17 87.82 174.94 87.43 C 177.46 86.23 179.77 83.81 182.77 84.28 C 182.71 86.24 180.34 86.53 179.08 87.58 C 182.87 87.68 186.65 87.18 190.34 86.30 C 191.18 85.63 191.77 84.56 192.93 84.40 C 196.49 83.16 200.23 82.35 204.01 82.27 C 207.45 82.14 210.29 84.75 213.66 84.82 C 212.26 82.07 212.27 79.02 212.67 76.03 C 207.77 75.97 202.89 76.81 198.05 77.52 C 195.91 77.76 193.84 79.00 191.64 78.44 L 192.05 76.99 C 195.41 75.30 199.26 74.73 202.99 74.47 C 205.01 74.35 206.97 73.50 209.01 73.83 C 210.40 73.98 211.85 74.03 213.07 73.21 C 213.60 71.14 213.79 68.97 214.64 66.99 C 216.05 64.89 217.61 62.67 217.68 60.03 C 217.83 56.39 216.55 52.90 215.22 49.57 C 212.84 44.27 210.00 39.15 206.51 34.50 C 205.48 33.15 204.13 32.07 202.68 31.20 C 199.07 29.04 195.85 26.26 192.10 24.33 C 187.04 21.59 181.48 19.97 176.01 18.29 C 169.89 16.28 163.43 15.31 156.99 15.31 C 150.99 15.24 144.93 14.95 139.02 16.26 C 132.90 16.36 126.92 17.75 120.96 19.07 C 114.49 20.50 108.82 24.06 102.96 26.99 C 97.71 29.37 93.82 33.77 89.87 37.82 C 86.51 41.28 85.46 46.10 82.91 50.07 C 81.55 52.30 80.09 54.49 78.91 56.83 C 75.79 62.75 75.04 69.51 73.69 75.97 C 71.45 82.77 72.50 90.02 72.62 97.04 C 72.59 102.12 74.69 106.88 74.92 111.94 C 75.34 115.27 75.73 119.59 79.23 121.17 C 79.02 116.81 77.63 111.89 79.88 107.73 C 81.07 105.54 81.38 102.39 84.00 101.37 C 87.04 99.65 90.68 101.09 93.36 102.83 C 95.93 104.96 97.92 107.69 100.31 110.01 C 100.32 110.66 100.34 111.97 100.35 112.63 C 96.24 110.37 94.27 105.62 90.10 103.44 C 88.08 103.21 85.87 102.89 83.95 103.80 C 83.35 105.83 82.31 107.68 81.52 109.64 C 81.16 114.37 80.68 119.46 82.84 123.87 C 84.76 128.85 86.77 133.85 87.69 139.14 C 88.29 141.73 88.71 144.73 90.87 146.53 C 93.18 147.28 95.56 146.12 97.87 146.06 C 97.39 146.81 96.43 148.32 95.95 149.07 C 95.91 157.51 99.47 165.27 102.35 173.02 C 103.15 178.96 104.01 185.05 102.66 190.98 C 104.23 203.80 108.15 216.21 109.77 229.03 C 110.23 229.67 110.70 230.30 111.19 230.93 C 110.79 237.82 112.87 244.50 114.93 250.99 C 116.30 255.90 116.98 261.64 121.12 265.12 C 123.64 266.80 126.34 268.53 129.45 268.70 C 129.46 269.18 129.49 270.15 129.50 270.63 C 125.87 271.45 122.92 268.61 119.92 267.08 C 115.71 263.34 114.18 257.52 112.96 252.22 C 111.61 247.25 109.97 242.31 109.41 237.16 C 107.23 240.41 105.75 244.13 103.03 247.01 C 101.32 248.79 100.35 251.07 99.15 253.19 C 95.13 257.87 89.68 261.00 85.48 265.50 C 82.51 268.58 78.83 270.82 75.47 273.43 C 73.53 274.90 71.68 276.49 69.54 277.67 C 62.33 281.56 56.40 287.44 49.00 291.01 C 40.38 296.34 31.24 300.95 23.31 307.31 C 19.72 309.87 18.51 314.21 16.73 318.00 L 9.74 318.00 L 9.13 317.05 C 10.86 310.76 14.36 304.66 19.68 300.66 C 24.12 296.35 29.79 293.73 34.95 290.43 C 43.27 284.97 51.73 279.69 59.55 273.52 C 63.62 270.21 68.14 267.51 72.16 264.17 C 75.93 260.53 80.69 258.15 84.42 254.47 C 88.99 250.54 92.37 245.48 96.04 240.75 C 97.12 237.65 97.33 234.24 97.61 230.98 C 97.63 227.28 98.79 223.63 98.18 219.93 C 97.41 211.32 95.71 202.67 96.86 194.02 C 96.17 187.65 96.87 180.81 93.69 175.01 C 92.29 169.26 90.68 163.53 88.64 157.98 C 87.13 153.28 83.44 149.53 82.70 144.55 C 82.05 140.47 80.27 136.70 78.58 132.97 C 76.81 129.20 72.89 126.92 71.51 122.94 C 70.44 120.34 69.46 117.71 68.70 115.01 C 68.40 112.72 68.46 110.39 67.97 108.13 C 65.87 99.29 66.01 90.10 66.44 81.09 C 68.49 72.24 69.60 63.13 72.80 54.58 C 74.51 50.74 76.55 47.07 78.70 43.47 C 79.94 41.36 79.98 38.59 81.95 36.93 C 85.45 33.42 88.89 29.84 92.56 26.49 C 95.30 23.98 98.73 22.46 102.00 20.78 C 105.39 19.12 108.61 17.12 112.08 15.63 C 117.30 13.32 122.87 11.99 128.36 10.48 C 134.16 8.60 140.37 9.24 146.30 8.05 M 195.90 85.87 C 194.42 86.70 191.44 85.82 192.12 88.73 C 195.16 88.77 198.21 88.82 201.25 88.70 C 201.88 91.94 205.97 92.15 208.61 92.64 C 208.87 93.08 209.40 93.96 209.67 94.41 C 206.71 95.72 204.05 93.14 201.10 93.33 C 202.10 94.82 204.18 94.41 205.62 95.23 C 207.51 95.55 210.96 95.59 210.72 98.35 C 207.47 98.59 204.37 96.65 201.08 96.30 C 201.83 97.17 202.95 97.33 204.01 97.57 C 205.73 99.10 208.72 98.02 209.30 100.81 C 210.97 100.28 212.34 99.08 214.01 98.52 C 214.93 98.23 215.53 97.32 215.49 96.37 C 215.80 93.59 215.88 90.76 215.57 87.97 C 215.07 86.70 212.14 82.93 212.10 86.50 C 210.66 86.62 209.30 86.24 208.05 85.57 C 204.05 84.97 199.82 84.87 195.90 85.87 M 133.36 88.52 C 133.06 88.79 132.45 89.34 132.14 89.61 C 135.53 89.78 139.21 88.53 142.33 90.25 C 141.34 92.25 139.13 92.32 137.21 92.52 C 139.41 93.00 141.62 92.65 143.62 91.66 C 145.95 92.53 148.41 93.00 150.78 93.73 C 150.51 93.55 149.96 93.20 149.69 93.03 C 148.97 89.97 152.57 92.59 153.84 92.94 C 153.58 91.57 154.04 89.89 153.14 88.74 C 152.13 88.71 150.93 88.35 150.13 89.18 C 148.68 90.79 146.55 89.37 145.05 88.64 C 141.18 88.07 137.25 88.32 133.36 88.52 M 177.80 89.85 C 177.14 90.38 174.96 90.01 175.46 91.23 C 178.31 91.27 181.39 92.38 184.01 90.74 C 185.52 90.02 187.65 90.38 188.87 89.27 C 185.18 89.60 181.47 89.46 177.80 89.85 M 195.70 91.70 C 194.28 92.33 192.27 92.38 191.32 93.69 C 193.29 92.45 196.08 92.64 197.86 91.19 C 197.32 91.32 196.24 91.57 195.70 91.70 M 154.84 93.25 C 155.77 94.82 157.79 94.95 159.30 95.66 C 159.35 95.16 159.43 94.15 159.47 93.65 C 157.94 93.37 156.39 93.28 154.84 93.25 M 177.83 94.02 L 177.16 94.76 C 177.12 97.90 181.07 96.08 182.57 95.27 C 183.82 92.35 179.18 93.52 177.83 94.02 M 135.53 100.64 C 134.35 101.15 133.97 103.11 135.43 103.57 C 137.15 104.93 141.34 104.53 140.41 101.51 C 139.26 100.00 137.14 100.62 135.53 100.64 M 191.59 100.66 C 191.14 101.25 190.23 102.05 190.94 102.82 C 192.19 105.55 196.25 104.82 197.48 102.43 C 196.20 100.39 193.79 99.68 191.59 100.66 M 177.24 102.34 C 177.72 102.44 178.68 102.65 179.16 102.76 L 179.49 103.88 C 180.57 106.64 176.05 104.37 176.51 106.33 C 178.89 106.65 181.35 107.18 183.27 108.71 C 184.45 109.45 185.39 110.66 186.83 110.89 C 186.77 108.11 183.05 108.02 181.62 106.26 C 181.75 105.02 181.23 104.26 180.08 103.96 C 179.87 102.41 178.53 102.21 177.24 102.34 Z" />
<path fill="#010101" opacity="1.00" d=" M 160.58 54.62 C 162.46 54.74 164.08 55.96 166.03 55.69 C 169.99 55.58 174.24 56.38 177.99 54.84 C 179.44 54.75 181.72 53.32 182.66 55.00 C 181.54 56.72 179.19 57.52 177.21 57.24 C 177.16 57.98 177.05 59.45 177.00 60.19 C 181.74 60.13 185.56 57.07 190.18 56.44 C 193.04 55.85 195.80 54.82 198.70 54.45 C 198.67 54.89 198.62 55.77 198.59 56.21 C 196.34 56.27 194.28 57.20 192.07 57.50 C 189.76 57.69 188.25 59.77 186.08 60.35 C 183.07 61.13 180.18 62.61 177.01 62.48 C 173.86 62.49 170.71 62.88 167.57 62.52 C 167.57 62.04 167.58 61.10 167.58 60.62 C 170.09 60.52 172.61 60.54 175.13 60.59 C 175.46 59.55 175.40 58.53 174.95 57.54 C 170.60 59.37 165.86 57.88 161.40 57.35 C 160.13 57.18 160.79 55.44 160.58 54.62 Z" />
<path fill="#010101" opacity="1.00" d=" M 103.41 56.52 C 107.18 56.13 110.39 58.59 114.10 58.72 C 115.22 58.66 116.17 59.35 117.02 60.00 C 118.17 63.67 122.68 64.49 126.04 64.52 C 127.43 64.09 128.16 65.25 128.55 66.35 C 125.70 66.58 122.66 66.87 119.98 65.66 C 116.86 64.88 115.22 61.60 112.17 60.75 C 109.16 60.27 106.29 59.35 103.43 58.25 C 103.43 57.82 103.42 56.95 103.41 56.52 Z" />
<path fill="#010101" opacity="1.00" d=" M 138.88 58.16 C 140.38 58.12 141.88 58.56 143.38 58.43 C 146.29 56.31 149.78 58.53 152.97 58.55 C 155.91 59.25 159.05 59.72 161.67 61.37 C 160.87 62.80 159.16 62.59 157.82 62.17 C 156.33 61.44 154.66 61.40 153.13 60.86 C 150.53 59.82 147.77 60.73 145.10 60.62 C 142.97 60.25 140.92 59.57 138.82 59.09 L 138.88 58.16 Z" />
<path fill="#010101" opacity="1.00" d=" M 212.85 60.49 C 213.44 61.23 214.80 61.78 214.18 62.98 C 213.08 65.93 211.13 68.50 208.51 70.27 C 201.90 70.37 195.86 73.14 189.83 75.51 L 189.16 74.85 L 189.09 73.89 C 189.28 73.65 189.68 73.18 189.87 72.95 C 193.39 72.10 196.63 70.43 199.98 69.10 C 202.26 67.62 204.98 68.38 207.50 68.35 C 210.47 66.61 211.41 63.37 212.85 60.49 Z" />
<path fill="#010101" opacity="1.00" d=" M 196.90 61.88 C 199.33 61.35 201.87 61.47 204.35 61.49 C 204.35 61.96 204.36 62.90 204.36 63.37 C 200.84 63.41 197.43 64.38 194.11 65.33 C 188.09 65.89 182.88 69.67 176.76 69.67 C 174.95 70.89 172.17 70.45 170.37 69.43 C 170.25 68.00 171.75 67.38 172.97 67.66 C 178.87 67.99 184.32 65.51 189.86 63.86 C 192.24 63.33 194.62 62.75 196.90 61.88 Z" />
<path fill="#010101" opacity="1.00" d=" M 132.39 63.34 C 133.83 63.37 135.31 63.61 136.45 64.57 C 139.89 66.86 143.94 67.81 147.95 68.49 C 149.34 68.49 149.92 69.20 149.69 70.64 C 143.56 70.62 137.87 67.95 132.51 65.21 C 132.48 64.74 132.42 63.81 132.39 63.34 Z" />
<path fill="#010101" opacity="1.00" d=" M 151.48 64.45 C 156.17 64.58 160.22 68.05 165.03 67.57 C 166.78 66.82 168.60 69.43 166.51 70.26 C 161.27 70.05 156.27 68.35 151.52 66.23 C 151.51 65.78 151.49 64.90 151.48 64.45 Z" />
<path fill="#010101" opacity="1.00" d=" M 109.10 68.98 L 110.02 68.33 C 113.53 70.17 113.36 74.64 113.59 78.05 C 114.13 79.69 114.69 81.40 114.35 83.14 C 112.84 85.11 112.34 87.72 110.44 89.43 C 106.78 92.90 106.21 98.17 104.13 102.52 C 102.78 101.78 102.27 100.49 102.78 99.00 C 104.39 95.59 105.39 91.78 107.99 88.94 C 110.15 86.77 111.44 83.88 112.37 81.01 C 110.84 78.17 112.00 74.76 110.44 71.93 C 110.01 70.93 109.06 70.15 109.10 68.98 Z" />
<path fill="#010101" opacity="1.00" d=" M 188.97 69.07 C 189.53 68.89 190.65 68.54 191.21 68.36 L 191.94 68.95 C 191.86 69.30 191.68 70.00 191.59 70.35 C 187.41 71.88 183.42 74.06 178.95 74.66 C 173.91 76.18 168.56 75.45 163.38 75.36 C 160.79 74.31 157.51 74.93 155.54 72.56 C 155.29 71.85 156.35 69.37 156.92 71.18 C 159.25 71.99 161.57 72.87 164.09 72.82 C 172.47 74.83 181.20 72.32 188.97 69.07 Z" />
<path fill="#010101" opacity="1.00" d=" M 138.08 69.98 L 138.93 69.52 C 144.61 71.92 149.97 75.17 156.01 76.65 L 155.85 78.08 L 155.09 78.48 C 151.66 77.84 148.39 76.54 145.40 74.77 C 143.18 73.47 140.42 73.15 138.40 71.57 C 138.32 71.17 138.16 70.38 138.08 69.98 Z" />
<path fill="#010101" opacity="1.00" d=" M 126.06 71.88 L 126.90 71.52 C 134.03 73.98 141.64 74.92 148.42 78.37 C 151.42 79.86 154.67 80.82 157.61 82.40 C 157.71 82.83 157.92 83.68 158.02 84.11 L 157.02 84.53 C 150.50 81.50 143.93 78.57 137.02 76.57 C 134.28 76.26 131.79 74.91 129.07 74.49 C 127.78 74.34 125.28 73.82 126.06 71.88 Z" />
<path fill="#010101" opacity="1.00" d=" M 122.42 76.61 C 125.27 76.56 128.32 76.14 131.07 77.01 C 132.26 77.11 132.14 79.95 131.03 79.44 C 127.94 78.26 124.64 78.67 121.41 78.55 C 121.38 77.66 121.72 77.02 122.42 76.61 Z" />
<path fill="#010101" opacity="1.00" d=" M 182.85 75.98 L 184.02 75.54 L 185.66 75.81 L 185.57 77.19 C 182.11 78.85 178.22 79.18 174.47 79.80 C 169.94 81.46 165.26 79.45 160.67 79.20 C 159.03 78.72 158.93 76.69 160.87 76.52 C 167.97 78.84 175.76 77.79 182.85 75.98 Z" />
<path fill="#010101" opacity="1.00" d=" M 182.93 78.97 C 184.22 78.53 188.47 77.27 187.25 80.17 C 184.43 80.77 181.55 81.35 179.02 82.78 C 177.89 83.45 176.67 84.00 175.33 83.65 C 175.47 83.22 175.75 82.37 175.89 81.94 C 178.06 80.58 180.49 79.71 182.93 78.97 Z" />
<path fill="#010101" opacity="1.00" d=" M 135.33 81.45 C 136.77 82.00 139.20 82.07 139.05 84.20 C 136.75 84.81 134.31 84.44 131.96 84.42 C 128.32 82.97 124.45 84.76 120.89 85.68 C 118.34 86.17 118.53 90.40 115.49 89.58 C 115.22 88.35 114.61 86.79 115.84 85.87 C 120.86 80.79 128.70 80.73 135.33 81.45 Z" />
<path fill="#010101" opacity="1.00" d=" M 172.31 81.36 C 172.59 81.38 173.15 81.41 173.43 81.43 C 173.77 83.12 172.52 84.33 171.45 85.42 C 170.48 85.90 169.48 84.91 169.62 83.96 C 170.45 83.08 171.00 81.61 172.31 81.36 Z" />
<path fill="#010101" opacity="1.00" d=" M 163.35 82.37 C 165.80 81.53 167.79 84.52 167.67 86.73 C 165.23 87.23 163.98 84.25 163.35 82.37 Z" />
<path fill="#010101" opacity="1.00" d=" M 110.45 99.56 C 111.80 99.08 113.29 99.27 114.69 99.35 C 114.67 99.90 114.64 101.01 114.62 101.56 C 112.91 101.91 110.58 102.35 109.48 100.57 C 109.72 100.32 110.21 99.81 110.45 99.56 Z" />
<path fill="#010101" opacity="1.00" d=" M 107.55 106.45 C 109.40 106.11 110.99 107.17 112.55 107.94 L 112.36 109.63 C 109.68 106.09 109.24 112.12 111.42 111.41 L 111.56 112.68 C 112.27 112.64 113.68 112.57 114.39 112.53 C 114.31 114.44 112.91 117.09 110.63 116.50 C 110.68 115.63 110.78 113.91 110.83 113.04 C 109.22 113.09 108.14 114.53 106.51 114.33 C 106.81 113.64 105.72 111.46 106.94 111.59 C 110.02 113.24 109.32 109.89 109.09 108.46 C 107.50 108.81 106.99 108.14 107.55 106.45 Z" />
<path fill="#010101" opacity="1.00" d=" M 89.88 109.89 C 91.14 109.05 91.85 109.83 91.55 111.23 C 93.60 111.39 91.96 113.79 92.18 114.97 C 90.50 116.35 87.90 116.88 87.00 119.01 C 90.52 118.41 92.64 115.09 95.72 113.54 C 98.08 115.10 93.97 115.81 93.47 117.26 C 93.81 118.71 94.33 120.90 92.46 121.47 C 90.01 122.70 87.51 126.15 84.64 123.63 C 84.52 122.08 84.48 120.52 84.43 118.97 C 84.88 117.92 85.66 117.03 86.19 116.01 C 87.03 114.26 89.83 114.29 90.07 112.13 C 88.81 112.23 87.31 114.62 86.35 112.64 C 86.24 110.83 89.03 111.24 89.88 109.89 Z" />
<path fill="#010101" opacity="1.00" d=" M 152.29 109.36 C 152.75 109.12 153.66 108.64 154.12 108.40 L 154.90 109.06 C 154.79 109.44 154.58 110.19 154.48 110.56 C 152.23 111.85 150.03 114.12 147.22 113.59 C 147.05 110.87 150.68 110.89 152.29 109.36 Z" />
<path fill="#010101" opacity="1.00" d=" M 121.64 109.42 C 122.22 109.43 123.39 109.44 123.97 109.44 C 127.40 112.16 118.82 112.51 121.64 109.42 Z" />
<path fill="#010101" opacity="1.00" d=" M 127.39 111.40 C 130.32 112.12 133.17 113.14 135.99 114.23 C 138.67 114.86 141.46 114.30 144.16 114.78 C 144.27 115.22 144.51 116.12 144.63 116.56 C 141.10 116.71 137.43 116.99 134.06 115.74 C 131.47 116.06 129.02 114.88 127.25 113.07 C 127.28 112.65 127.35 111.82 127.39 111.40 Z" />
<path fill="#010101" opacity="1.00" d=" M 163.78 114.56 C 164.29 114.41 165.33 114.11 165.85 113.96 C 165.60 118.65 161.38 121.94 158.03 124.71 C 155.85 124.47 157.58 122.07 158.49 121.49 C 160.75 119.62 162.64 117.28 163.78 114.56 Z" />
<path fill="#010101" opacity="1.00" d=" M 172.35 116.30 C 174.42 116.48 175.30 118.78 176.66 120.07 L 176.60 121.91 C 174.36 121.77 173.49 119.44 172.17 118.00 C 172.21 117.58 172.30 116.73 172.35 116.30 Z" />
<path fill="#010101" opacity="1.00" d=" M 105.00 118.08 L 106.03 117.37 L 106.88 118.06 C 106.14 121.25 101.99 122.58 101.40 125.99 C 100.33 131.79 105.20 136.32 105.53 141.94 C 105.28 143.61 108.19 147.16 104.85 147.10 C 102.63 143.81 103.30 139.43 101.48 135.94 C 100.54 133.99 99.78 131.96 98.83 130.01 C 97.62 125.02 101.45 120.94 105.00 118.08 Z" />
<path fill="#010101" opacity="1.00" d=" M 165.86 116.97 L 167.02 117.52 C 168.53 121.39 167.28 125.43 165.10 128.76 C 164.15 130.68 162.42 129.32 161.39 128.46 C 160.39 129.44 159.50 130.53 158.44 131.45 C 157.16 131.86 155.77 131.58 154.47 131.50 C 153.57 128.02 157.08 126.10 159.37 124.29 C 161.27 122.56 163.10 120.76 165.40 119.57 C 165.52 118.92 165.75 117.62 165.86 116.97 Z" />
<path fill="#010101" opacity="1.00" d=" M 169.90 118.83 C 171.89 116.57 172.79 120.13 173.75 121.26 C 177.81 123.11 182.23 125.33 184.80 129.05 C 184.78 129.69 184.75 130.97 184.73 131.61 C 180.82 132.71 178.03 128.37 174.09 129.55 C 173.54 129.16 172.45 128.38 171.90 127.99 C 171.56 125.16 170.86 122.43 169.54 119.89 L 169.90 118.83 Z" />
<path fill="#010101" opacity="1.00" d=" M 179.12 121.13 C 180.79 120.93 181.91 121.99 182.98 123.10 C 187.77 126.34 193.46 127.83 199.12 128.68 C 201.91 129.87 205.50 130.98 206.47 134.22 L 205.14 134.77 C 202.97 133.12 200.82 131.20 198.06 130.64 C 193.62 129.75 189.17 128.85 185.09 126.80 C 182.68 125.56 178.87 124.52 179.12 121.13 Z" />
<path fill="#010101" opacity="1.00" d=" M 91.08 123.06 C 92.34 120.79 93.50 123.60 93.76 124.71 C 93.38 125.07 92.63 125.79 92.26 126.16 C 92.56 126.53 93.17 127.27 93.47 127.64 C 92.56 128.55 89.50 131.18 89.35 128.28 C 87.19 129.21 86.63 126.08 87.81 124.96 C 89.05 124.60 90.10 123.87 91.08 123.06 Z" />
<path fill="#010101" opacity="1.00" d=" M 152.61 123.51 C 153.97 123.18 155.00 123.41 154.27 125.01 C 152.34 128.40 149.15 130.95 146.23 133.51 C 145.77 133.51 144.86 133.50 144.41 133.49 L 144.35 132.07 C 147.43 129.57 150.57 126.97 152.61 123.51 Z" />
<path fill="#010101" opacity="1.00" d=" M 147.98 125.03 C 149.62 122.85 150.76 126.36 149.07 127.05 C 145.60 129.04 142.04 131.29 137.96 131.61 C 135.75 132.54 133.29 132.38 131.05 133.19 C 128.19 133.76 124.74 135.21 124.29 138.49 C 123.80 138.52 122.83 138.60 122.34 138.64 C 122.07 136.59 122.98 134.87 124.67 133.77 C 126.42 133.02 125.01 130.55 126.67 129.75 C 130.75 128.08 135.37 127.93 139.14 125.52 L 140.82 125.63 L 140.54 127.15 C 137.70 129.69 133.62 129.56 130.15 130.64 C 136.42 130.32 142.88 128.89 147.98 125.03 Z" />
<path fill="#010101" opacity="1.00" d=" M 198.85 126.14 L 200.84 126.28 C 203.57 127.87 206.51 129.12 209.06 130.99 C 209.98 131.55 209.65 134.88 208.06 133.21 C 205.65 130.81 202.24 129.93 199.48 128.04 L 198.85 126.14 Z" />
<path fill="#010101" opacity="1.00" d=" M 169.88 129.63 C 170.41 129.87 170.87 130.25 171.24 130.78 C 171.34 133.34 171.30 135.91 171.30 138.47 C 170.69 138.62 169.46 138.92 168.84 139.07 C 168.46 136.36 168.73 133.56 168.77 130.84 C 169.05 130.54 169.60 129.93 169.88 129.63 Z" />
<path fill="#010101" opacity="1.00" d=" M 94.71 130.72 C 96.96 128.87 94.67 132.32 95.88 132.76 C 97.80 133.09 96.16 134.75 95.73 135.55 C 95.28 136.89 94.31 137.84 93.16 138.61 C 93.84 138.59 95.20 138.55 95.88 138.52 C 95.87 140.23 94.10 140.60 92.99 141.37 C 91.97 141.15 91.33 140.11 90.59 139.45 C 90.61 137.55 90.74 135.65 90.86 133.76 C 92.16 132.76 93.45 131.76 94.71 130.72 Z" />
<path fill="#010101" opacity="1.00" d=" M 108.50 130.38 C 110.09 130.63 110.74 132.20 110.53 133.68 C 107.95 135.11 107.87 131.99 108.50 130.38 Z" />
<path fill="#010101" opacity="1.00" d=" M 104.85 131.82 C 106.86 130.29 107.19 134.74 105.02 133.37 L 104.58 132.65 L 104.85 131.82 Z" />
<path fill="#010101" opacity="1.00" d=" M 119.52 132.46 C 120.44 133.33 120.85 134.95 119.74 135.88 C 118.07 138.03 118.45 140.83 118.30 143.37 C 117.34 143.83 116.37 144.28 115.40 144.71 C 116.50 146.98 116.94 149.94 115.06 151.94 L 113.93 151.20 C 113.55 148.11 113.62 144.97 113.19 141.87 L 113.68 141.30 C 114.21 141.40 115.25 141.61 115.78 141.71 C 116.64 140.15 116.27 138.25 116.69 136.56 C 117.35 135.02 118.37 133.67 119.52 132.46 Z" />
<path fill="#010101" opacity="1.00" d=" M 173.39 133.33 C 173.87 133.14 174.81 132.78 175.28 132.59 C 175.70 135.52 175.57 138.49 175.63 141.45 C 181.41 141.64 187.20 141.51 192.98 141.48 C 195.75 141.54 198.65 141.47 201.18 142.80 C 202.21 144.15 204.09 142.89 205.33 143.70 C 207.10 145.04 206.05 147.56 206.28 149.44 C 205.85 149.81 204.98 150.54 204.55 150.91 C 204.36 148.58 205.03 146.24 204.07 143.99 C 201.99 144.45 203.02 146.66 203.37 148.06 C 203.91 149.18 202.45 152.32 205.00 151.24 C 204.51 153.00 203.79 156.55 201.28 155.55 C 200.49 157.10 197.85 159.67 200.46 160.79 C 200.85 163.15 198.35 164.73 198.40 167.02 C 198.45 168.84 197.24 170.32 196.82 172.03 C 195.91 175.40 193.14 178.20 193.65 181.90 C 192.39 184.31 190.76 186.96 188.12 187.94 C 185.30 187.98 182.76 186.61 179.98 186.34 C 176.80 185.12 173.32 185.50 169.99 185.45 C 165.15 185.41 160.23 186.24 155.94 188.54 C 153.98 187.31 151.95 186.01 150.67 184.04 C 148.89 181.35 146.28 179.13 145.38 175.94 C 143.58 171.30 137.87 168.70 137.56 163.42 C 138.68 163.27 139.87 163.39 140.18 164.65 C 141.27 167.73 143.86 169.77 145.82 172.25 C 147.20 173.95 147.53 176.26 148.91 177.96 C 150.18 178.99 151.53 179.95 153.02 180.64 C 154.34 180.73 155.66 180.94 156.90 181.45 C 161.60 181.64 166.31 181.18 171.01 181.48 C 176.01 181.90 181.06 181.77 186.06 181.38 C 187.68 180.85 189.45 180.08 190.34 178.52 C 192.90 173.43 194.78 168.03 197.54 163.05 C 197.59 162.37 197.67 161.00 197.71 160.31 C 192.85 166.42 186.30 171.34 179.00 174.16 C 176.17 174.05 173.73 175.84 170.91 175.49 C 167.90 175.29 164.85 175.62 161.88 175.08 C 157.35 173.73 152.28 172.65 148.99 169.00 C 143.31 163.32 138.08 157.22 132.91 151.08 C 131.78 149.98 130.89 148.39 129.20 148.13 C 129.67 152.18 132.89 155.08 135.49 157.93 C 135.49 158.59 135.49 159.91 135.49 160.58 C 133.08 159.49 131.60 157.06 129.96 155.08 C 127.93 152.74 127.75 149.39 125.51 147.19 C 125.46 147.68 125.36 148.65 125.30 149.14 C 121.85 148.84 122.03 144.21 122.53 141.73 C 124.53 140.86 126.87 140.75 127.90 138.55 C 128.57 138.56 129.91 138.57 130.58 138.58 C 129.74 140.33 127.93 141.50 127.38 143.37 C 133.58 143.88 139.81 143.32 146.02 143.29 C 151.93 142.04 158.04 142.91 164.02 142.19 C 167.10 141.40 170.29 141.56 173.43 141.31 C 173.77 138.66 173.30 135.99 173.39 133.33 M 168.42 143.70 C 163.21 145.05 157.74 144.27 152.43 144.78 C 150.84 145.26 149.20 145.43 147.54 145.45 C 147.18 146.94 146.57 148.43 146.62 149.99 C 147.13 151.21 147.60 152.43 147.50 153.79 C 148.49 151.42 148.09 148.83 148.49 146.36 C 153.16 147.06 157.57 144.83 162.23 145.51 C 163.23 146.64 163.58 148.14 163.34 149.61 C 164.46 148.61 166.19 149.11 167.26 148.12 C 167.56 146.57 168.37 145.02 169.95 144.45 C 173.11 144.52 170.69 148.64 172.75 149.78 C 174.23 148.65 174.52 145.54 177.06 146.12 C 179.35 146.29 178.21 149.07 178.67 150.58 C 179.57 150.50 180.90 150.67 181.21 149.53 C 182.05 147.71 183.38 146.18 184.72 144.70 C 186.88 143.47 187.82 146.18 188.52 147.62 C 190.25 150.31 189.25 153.57 189.75 156.56 C 190.14 158.16 192.13 157.30 193.27 157.45 C 193.45 155.12 192.85 152.86 192.41 150.59 C 191.80 150.60 190.60 150.60 190.00 150.61 L 190.22 148.50 C 190.98 148.46 192.52 148.38 193.29 148.34 C 193.20 147.01 193.58 145.07 192.02 144.44 C 189.93 143.05 187.34 143.78 185.00 143.62 C 179.48 143.84 173.93 143.12 168.42 143.70 M 158.53 147.54 C 157.58 148.42 157.63 149.74 157.44 150.91 C 157.16 154.06 157.14 157.40 158.70 160.26 C 159.90 160.18 161.61 160.92 162.30 159.52 C 162.33 156.98 162.45 154.36 161.46 151.97 C 161.42 150.25 160.78 147.27 158.53 147.54 M 151.70 148.67 C 151.34 151.59 150.24 154.38 150.60 157.37 C 152.30 157.73 153.87 158.59 155.63 158.74 C 155.44 155.32 154.02 152.10 154.18 148.64 C 153.56 148.65 152.32 148.66 151.70 148.67 M 183.60 149.39 C 182.60 152.34 182.30 155.48 182.60 158.58 C 184.38 158.89 186.11 158.38 187.54 157.31 C 187.70 155.33 187.77 153.22 186.77 151.45 C 186.30 150.13 186.01 146.95 183.86 148.65 L 183.60 149.39 M 175.32 150.08 C 175.15 151.68 176.55 154.78 173.32 153.48 C 173.36 154.50 173.44 156.55 173.49 157.57 C 174.55 157.62 176.68 157.72 177.75 157.77 L 177.68 156.17 C 176.15 154.41 176.89 151.71 175.32 150.08 M 167.58 151.05 C 167.36 153.92 167.28 156.80 167.56 159.67 L 169.05 160.45 L 170.73 159.82 C 170.62 156.91 172.05 151.09 167.58 151.05 M 189.39 160.46 C 189.25 161.63 189.58 162.74 190.52 163.52 C 191.53 163.66 192.52 162.52 192.41 161.55 C 191.80 160.39 190.53 160.44 189.39 160.46 M 178.71 161.72 C 176.48 162.38 178.55 165.40 176.25 166.13 C 176.10 165.42 175.79 163.99 175.64 163.28 L 175.31 163.32 C 176.06 166.61 174.98 169.67 173.37 172.50 C 174.76 172.51 176.16 172.47 177.55 172.38 C 177.67 170.90 176.92 169.59 176.31 168.33 C 176.85 167.20 179.75 164.81 178.58 168.63 C 179.09 168.68 180.10 168.79 180.61 168.84 C 181.61 166.99 181.71 164.85 181.58 162.80 C 180.64 162.52 179.70 161.52 178.71 161.72 M 149.63 162.66 C 148.86 163.21 148.14 163.81 147.47 164.46 C 148.37 165.35 149.19 166.49 150.49 166.80 C 150.49 165.29 150.46 163.77 150.42 162.27 C 150.22 162.37 149.82 162.56 149.63 162.66 M 171.63 162.71 C 169.92 163.39 170.94 165.36 170.72 166.69 C 170.29 167.44 168.36 169.67 168.32 167.33 C 169.10 169.24 167.69 170.80 167.29 172.57 C 167.91 172.63 169.15 172.75 169.77 172.80 C 169.68 172.19 169.50 170.95 169.41 170.33 C 169.84 169.04 173.05 166.80 171.58 170.77 C 173.52 168.54 174.29 164.88 172.24 162.43 C 172.09 162.50 171.78 162.64 171.63 162.71 M 185.36 162.44 L 184.54 162.50 C 184.53 164.28 184.58 166.06 184.69 167.83 C 186.60 167.80 187.43 165.86 188.57 164.65 C 188.40 163.24 186.58 162.67 185.36 162.44 M 154.50 163.64 C 154.52 165.11 154.95 167.57 156.75 167.73 C 157.69 166.54 158.36 165.10 158.64 163.61 C 157.26 163.57 155.87 163.58 154.50 163.64 M 163.34 164.24 C 163.62 166.76 164.87 169.07 164.55 171.69 C 164.73 171.66 165.08 171.61 165.26 171.58 C 166.71 169.20 166.86 166.35 166.72 163.64 C 165.95 163.59 164.42 163.50 163.65 163.45 L 163.34 164.24 M 160.37 165.46 C 159.08 167.09 158.84 169.34 158.41 171.33 C 159.47 172.54 160.74 172.83 162.23 172.22 C 163.09 169.90 161.79 167.57 161.41 165.31 C 161.15 165.35 160.63 165.42 160.37 165.46 M 152.37 167.30 C 151.35 168.74 153.12 170.76 154.65 169.76 C 155.27 168.57 153.68 166.42 152.37 167.30 Z" />
<path fill="#010101" opacity="1.00" d=" M 180.25 137.42 C 186.73 137.46 193.20 137.75 199.67 137.57 C 199.87 138.01 200.27 138.90 200.47 139.34 C 197.06 140.17 193.50 139.58 190.02 139.67 C 186.67 139.42 183.25 139.84 179.94 139.19 C 180.02 138.75 180.18 137.86 180.25 137.42 Z" />
<path fill="#010101" opacity="1.00" d=" M 137.55 138.57 C 145.90 138.79 154.28 138.50 162.63 138.63 L 162.60 140.29 C 154.76 141.45 146.75 139.88 138.95 141.37 C 138.32 141.10 137.08 140.56 136.46 140.28 C 136.73 139.66 137.09 139.09 137.55 138.57 Z" />
<path fill="#010101" opacity="1.00" d=" M 212.24 137.04 L 214.27 137.33 C 214.56 140.09 215.14 143.13 213.62 145.66 C 212.83 149.21 211.83 152.77 210.10 155.99 C 208.68 159.50 207.79 163.24 207.23 166.94 L 205.93 166.83 C 204.29 164.15 207.05 161.16 206.79 158.25 L 206.42 158.31 C 205.98 161.33 204.89 164.21 204.31 167.20 C 203.85 167.30 202.93 167.50 202.48 167.60 C 202.48 166.06 202.52 164.50 202.85 163.00 C 204.07 160.61 203.83 157.49 205.84 155.48 C 206.45 155.42 207.67 155.28 208.29 155.21 C 208.98 153.20 207.85 150.93 209.17 149.08 C 210.68 146.31 210.87 143.14 211.40 140.10 C 212.51 139.46 212.79 138.44 212.24 137.04 Z" />
<path fill="#010101" opacity="1.00" d=" M 101.94 147.79 L 103.14 147.11 C 105.49 150.78 103.80 155.26 104.64 159.29 C 105.81 160.95 104.86 163.30 106.09 165.00 C 106.14 167.12 107.12 168.96 108.35 170.63 C 108.88 171.42 107.93 172.06 107.46 172.57 C 105.05 170.36 103.26 167.32 103.43 163.96 C 101.46 159.15 103.22 153.76 101.58 148.89 L 101.94 147.79 Z" />
<path fill="#010101" opacity="1.00" d=" M 121.30 152.28 L 122.00 151.41 C 124.36 151.99 123.08 154.57 124.18 156.05 C 126.32 160.12 129.72 163.37 132.46 167.02 L 132.21 168.55 L 130.92 168.22 C 126.89 163.66 122.11 159.11 120.79 152.94 L 121.30 152.28 Z" />
<path fill="#010101" opacity="1.00" d=" M 121.13 164.00 L 121.96 163.28 C 125.18 165.16 126.91 168.86 129.23 171.71 C 130.06 173.02 128.79 173.86 127.88 174.51 C 127.30 171.85 125.00 170.19 123.62 167.98 C 122.94 166.56 121.09 165.69 121.13 164.00 Z" />
<path fill="#010101" opacity="1.00" d=" M 128.57 179.65 C 129.65 179.48 130.69 179.78 131.44 180.59 C 136.54 184.85 142.24 188.36 147.07 192.95 C 148.64 193.74 147.55 197.03 145.95 194.81 C 141.45 190.62 136.26 187.29 131.49 183.43 C 130.62 182.46 129.28 182.42 128.25 181.73 C 126.87 181.19 128.06 180.18 128.57 179.65 Z" />
<path fill="#010101" opacity="1.00" d=" M 196.83 180.60 C 197.25 180.59 198.09 180.56 198.52 180.55 C 198.69 183.04 195.94 186.25 193.37 185.55 C 193.15 183.19 196.24 182.71 196.83 180.60 Z" />
<path fill="#010101" opacity="1.00" d=" M 204.60 180.66 C 206.05 179.77 206.97 180.63 206.36 182.17 C 203.97 184.00 200.86 184.75 198.82 187.04 C 197.93 188.41 197.07 189.89 196.88 191.55 C 199.31 194.74 201.31 198.85 200.32 202.97 C 199.94 204.67 200.65 206.37 200.46 208.10 C 195.71 214.09 188.17 216.68 180.97 218.31 C 179.90 218.72 178.97 217.87 178.58 217.00 C 179.01 214.80 181.47 215.72 183.04 215.52 C 186.10 214.53 189.27 213.83 192.07 212.17 C 194.91 210.95 196.75 208.34 199.32 206.72 C 199.45 203.35 198.04 200.20 197.42 196.94 C 196.38 194.16 194.76 191.44 192.17 189.86 C 190.69 189.54 191.22 186.38 192.94 187.76 C 193.38 188.06 194.24 188.67 194.67 188.97 C 196.42 189.14 196.24 186.86 196.92 185.83 C 199.05 183.53 201.85 182.07 204.60 180.66 Z" />
<path fill="#010101" opacity="1.00" d=" M 130.99 189.69 L 131.75 189.22 C 135.19 190.02 137.60 192.72 140.29 194.80 C 140.95 196.14 139.98 196.91 138.94 197.47 C 137.41 194.42 134.15 192.57 131.16 191.08 L 130.99 189.69 Z" />
<path fill="#010101" opacity="1.00" d=" M 126.49 191.36 C 128.31 190.81 129.21 192.62 130.45 193.53 C 131.98 194.82 133.88 195.58 135.50 196.75 C 135.65 197.75 135.09 198.77 133.95 198.41 C 131.37 196.97 128.78 195.44 126.71 193.30 C 126.65 192.82 126.54 191.84 126.49 191.36 Z" />
<path fill="#010101" opacity="1.00" d=" M 118.99 192.12 C 119.38 192.22 120.15 192.43 120.54 192.54 C 123.35 195.70 126.40 198.63 129.43 201.57 C 132.74 204.77 137.08 206.51 141.06 208.69 C 142.77 209.68 144.03 211.29 145.78 212.24 C 147.80 213.00 149.92 213.40 152.03 213.79 C 153.91 214.46 155.56 215.66 157.43 216.35 C 161.71 216.45 165.91 218.51 170.20 217.34 C 171.22 216.20 172.63 216.99 173.40 217.97 C 171.52 221.00 166.68 218.87 165.21 222.32 C 167.48 222.56 165.81 224.16 165.04 224.35 C 162.69 224.37 160.33 224.41 158.00 224.16 C 156.23 223.03 153.94 223.81 152.15 222.81 C 150.38 222.34 148.64 221.80 147.00 221.00 C 145.81 220.18 147.12 218.90 148.03 218.68 C 150.68 220.59 154.05 220.45 156.97 221.53 C 159.72 221.74 162.47 221.79 165.23 221.83 C 165.12 221.22 164.90 220.01 164.79 219.41 C 161.69 219.68 158.81 218.77 155.84 218.17 C 152.43 216.09 148.42 215.56 144.72 214.21 C 142.68 212.93 141.09 211.05 138.91 210.00 C 134.86 207.92 130.63 205.93 127.42 202.61 C 124.30 199.39 120.86 196.45 118.10 192.90 L 118.99 192.12 Z" />
<path fill="#010101" opacity="1.00" d=" M 112.87 193.07 C 114.84 192.71 115.73 194.79 116.77 196.03 C 122.23 204.51 132.22 208.05 139.37 214.74 C 139.97 216.19 139.24 217.04 137.77 216.31 C 131.12 210.21 122.34 206.69 116.65 199.52 C 115.38 197.50 113.73 195.80 112.17 194.02 L 112.87 193.07 Z" />
<path fill="#010101" opacity="1.00" d=" M 144.77 198.59 C 145.19 198.58 146.03 198.56 146.45 198.56 C 146.45 200.80 145.94 203.08 146.51 205.31 C 148.53 205.79 146.32 206.69 146.03 207.37 C 145.18 206.76 144.46 206.00 143.75 205.25 C 143.53 203.00 143.35 200.52 144.77 198.59 Z" />
<path fill="#010101" opacity="1.00" d=" M 108.42 201.38 C 108.83 201.32 109.64 201.21 110.04 201.15 C 111.40 204.22 111.79 207.68 113.84 210.44 C 116.73 214.32 118.79 219.01 122.97 221.74 C 125.44 223.69 128.69 224.78 130.42 227.56 C 131.83 230.05 133.21 232.55 134.55 235.08 L 133.93 235.88 C 133.57 235.79 132.84 235.62 132.48 235.54 C 130.88 233.31 129.94 230.71 128.42 228.44 C 126.50 225.95 123.32 225.05 121.00 223.02 C 119.08 221.32 116.89 219.74 115.76 217.35 C 114.23 214.46 112.09 211.94 110.57 209.05 C 109.75 206.54 108.45 204.08 108.42 201.38 Z" />
<path fill="#010101" opacity="1.00" d=" M 116.77 203.26 L 118.09 203.55 C 124.47 212.33 129.50 222.14 136.98 230.09 C 138.87 232.60 139.39 235.78 140.62 238.62 C 141.42 241.15 142.58 243.67 142.38 246.39 C 140.38 246.77 139.38 244.66 139.53 242.99 C 137.96 238.61 137.58 233.39 134.03 230.00 C 127.79 223.30 123.72 214.99 118.18 207.76 C 117.38 206.39 115.89 204.99 116.77 203.26 Z" />
<path fill="#010101" opacity="1.00" d=" M 195.40 220.53 C 197.08 220.70 196.43 222.94 196.34 224.05 C 194.70 227.62 191.51 230.11 188.56 232.56 C 186.94 233.64 186.83 236.30 184.46 236.36 C 184.50 235.83 184.56 234.76 184.59 234.23 C 181.71 237.82 177.76 240.39 174.92 244.02 C 174.32 245.78 173.63 247.52 172.46 249.00 C 171.02 250.71 171.36 253.05 171.33 255.11 C 169.45 259.33 167.30 263.41 165.34 267.59 C 165.01 268.91 163.44 268.93 162.39 268.57 C 164.21 263.97 167.22 259.85 168.37 255.00 C 168.64 251.66 170.24 248.66 171.38 245.56 C 173.32 241.02 177.78 238.52 180.95 234.96 C 182.33 233.79 183.44 231.43 185.59 232.38 C 188.18 230.00 191.00 227.82 193.16 225.02 C 194.22 223.70 194.01 221.45 195.40 220.53 Z" />
<path fill="#010101" opacity="1.00" d=" M 136.38 221.29 C 136.89 221.30 137.90 221.31 138.41 221.32 C 138.02 224.90 140.30 227.86 141.70 230.95 C 143.01 233.95 144.96 236.62 146.22 239.64 C 146.88 241.76 147.18 243.96 147.65 246.13 C 149.98 247.77 152.65 249.10 154.36 251.48 C 154.37 254.88 155.45 259.07 152.42 261.54 C 149.92 258.82 154.22 255.04 151.93 252.14 C 150.21 249.96 147.15 249.36 145.64 246.96 C 144.08 245.31 144.78 242.97 144.39 240.96 C 142.36 236.08 139.26 231.74 137.22 226.86 C 136.41 225.14 135.92 223.18 136.38 221.29 Z" />
<path fill="#010101" opacity="1.00" d=" M 115.41 223.39 C 115.77 223.18 116.50 222.75 116.86 222.53 C 120.10 224.38 123.18 226.55 125.87 229.14 C 128.05 231.66 129.84 234.50 131.60 237.34 C 131.49 238.14 132.02 240.14 130.65 239.34 C 128.52 237.06 127.08 234.26 125.23 231.77 C 123.36 229.76 121.25 227.96 119.03 226.35 C 117.88 225.43 115.42 225.29 115.41 223.39 Z" />
<path fill="#010101" opacity="1.00" d=" M 192.46 232.54 C 193.39 232.22 194.20 232.77 194.59 233.62 C 192.33 235.72 190.11 237.99 187.49 239.62 C 187.45 239.02 187.36 237.82 187.32 237.21 C 189.03 235.66 190.80 234.17 192.46 232.54 Z" />
<path fill="#010101" opacity="1.00" d=" M 199.22 248.15 L 201.16 248.32 C 202.82 250.92 202.73 254.16 202.41 257.11 C 201.86 257.71 200.83 259.19 200.05 257.94 C 198.82 257.09 200.50 256.05 200.54 255.09 C 200.77 252.63 198.36 250.74 199.22 248.15 Z" />
<path fill="#010101" opacity="1.00" d=" M 146.23 254.12 C 147.41 253.89 148.86 254.62 148.45 256.00 C 148.51 258.81 148.69 261.62 148.53 264.43 C 148.05 264.42 147.09 264.41 146.61 264.40 C 146.50 260.97 146.41 257.54 146.23 254.12 Z" />
<path fill="#010101" opacity="1.00" d=" M 108.58 258.55 C 109.10 258.56 110.13 258.56 110.65 258.56 C 112.27 260.53 113.29 263.02 115.29 264.71 C 116.66 266.10 119.21 266.28 119.63 268.48 C 115.80 269.12 113.07 265.75 111.03 263.03 C 110.09 261.61 108.30 260.48 108.58 258.55 Z" />
<path fill="#010101" opacity="1.00" d=" M 172.50 261.49 C 173.07 261.60 174.21 261.82 174.79 261.93 C 172.72 265.08 170.01 267.73 167.75 270.73 C 165.84 273.61 164.01 276.55 162.11 279.44 C 161.63 278.97 161.14 278.50 160.66 278.04 C 163.68 271.96 168.17 266.71 172.50 261.49 Z" />
<path fill="#010101" opacity="1.00" d=" M 196.81 268.57 C 199.15 267.55 198.60 269.87 198.20 271.20 C 192.87 279.46 184.12 284.45 176.91 290.88 C 175.39 292.60 172.47 293.09 172.02 295.60 C 175.14 296.00 177.98 294.56 181.05 294.43 C 183.35 293.53 186.05 293.45 187.92 291.67 C 188.63 292.08 190.14 292.99 188.87 293.80 C 186.30 295.76 182.95 296.09 179.99 297.15 C 176.66 297.64 173.24 297.37 169.98 298.36 C 165.91 298.56 161.70 298.62 157.81 297.19 L 157.52 295.77 C 160.82 294.22 164.53 294.60 168.07 294.36 C 170.07 293.95 171.85 292.53 172.60 290.60 C 171.42 290.03 168.31 291.71 169.41 289.31 C 171.72 287.64 173.27 284.67 176.17 284.03 L 176.94 284.73 C 176.27 286.55 174.44 287.44 173.19 288.80 C 178.38 286.90 181.99 282.49 186.45 279.43 C 190.39 276.34 195.01 273.52 196.81 268.57 Z" />
<path fill="#010101" opacity="1.00" d=" M 128.69 279.66 C 137.15 282.25 144.85 287.72 153.98 287.90 C 155.77 289.03 158.34 287.86 159.91 289.13 C 161.39 290.13 159.12 291.60 158.09 291.14 C 155.63 289.83 152.64 290.97 150.18 289.79 C 142.57 288.74 136.13 284.12 128.79 282.19 C 127.30 281.62 127.35 280.37 128.69 279.66 Z" />
<path fill="#010101" opacity="1.00" d=" M 140.57 290.65 C 144.47 291.31 148.08 293.20 152.01 293.85 C 153.98 294.57 157.09 294.57 157.53 297.23 C 156.45 298.18 155.15 297.15 154.07 296.84 C 149.90 295.57 145.67 294.51 141.49 293.25 C 140.19 293.08 140.63 291.51 140.57 290.65 Z" />
<path fill="#010101" opacity="1.00" d=" M 159.85 299.97 C 167.51 297.93 175.33 300.62 183.05 300.62 C 184.69 300.58 185.85 302.00 187.42 302.29 C 188.50 302.12 189.88 301.17 190.80 302.27 C 193.42 302.98 196.60 301.99 198.54 304.43 C 197.29 306.23 194.80 305.16 193.00 305.17 C 191.48 303.57 187.06 306.02 187.63 302.67 C 185.39 302.38 183.20 302.95 181.01 303.17 C 178.36 301.70 174.92 302.78 171.97 302.09 C 170.22 300.93 167.91 301.53 165.95 301.60 C 162.99 302.57 159.82 302.71 156.93 303.92 C 155.44 304.59 153.77 304.84 152.15 304.60 L 152.64 302.94 C 155.23 302.41 157.45 300.96 159.85 299.97 Z" />
</g>
</svg>
